<?xml version="1.0" encoding="UTF-8" standalone="no"?>
<svg
   xml:space="preserve"
   width="94.634499mm"
   height="60mm"
   shape-rendering="geometricPrecision"
   text-rendering="geometricPrecision"
   image-rendering="optimizeQuality"
   fill-rule="evenodd"
   clip-rule="evenodd"
   viewBox="0 0 94.634499 60"
   id="svg2"
   sodipodi:version="0.32"
   inkscape:version="1.2.2 (1:1.2.2+202212051550+b0a8486541)"
   sodipodi:docname="tema9_dram_stack.svg"
   inkscape:output_extension="org.inkscape.output.svg.inkscape"
   version="1.1"
   xmlns:inkscape="http://www.inkscape.org/namespaces/inkscape"
   xmlns:sodipodi="http://sodipodi.sourceforge.net/DTD/sodipodi-0.dtd"
   xmlns="http://www.w3.org/2000/svg"
   xmlns:svg="http://www.w3.org/2000/svg"
   xmlns:rdf="http://www.w3.org/1999/02/22-rdf-syntax-ns#"
   xmlns:cc="http://creativecommons.org/ns#"
   xmlns:dc="http://purl.org/dc/elements/1.1/"><metadata
   id="metadata1015"><rdf:RDF><cc:Work
       rdf:about=""><dc:format>image/svg+xml</dc:format><dc:type
         rdf:resource="http://purl.org/dc/dcmitype/StillImage" /></cc:Work></rdf:RDF></metadata><sodipodi:namedview
   inkscape:window-height="704"
   inkscape:window-width="1320"
   inkscape:pageshadow="2"
   inkscape:pageopacity="0.0"
   guidetolerance="10.0"
   gridtolerance="10.0"
   objecttolerance="10.0"
   borderopacity="1.0"
   bordercolor="#666666"
   pagecolor="#ffffff"
   id="base"
   inkscape:showpageshadow="2"
   inkscape:pagecheckerboard="0"
   inkscape:deskcolor="#d1d1d1"
   inkscape:document-units="mm"
   showgrid="false"
   inkscape:zoom="2.4826736"
   inkscape:cx="143.3938"
   inkscape:cy="103.71883"
   inkscape:window-x="46"
   inkscape:window-y="27"
   inkscape:window-maximized="1"
   inkscape:current-layer="_127312304" />
 <defs
   id="defs4" />
 <g
   id="Ebene_x0020_2"
   transform="translate(-4.67215e-5)">

  <g
   id="_127312304">
   <rect
   id="_177358928"
   fill="#ffffff"
   x="4.67215e-05"
   width="85"
   height="60"
   y="0" />
   <rect
   id="_177358384"
   fill="#bfcfff"
   x="3.0743001"
   y="42.689602"
   width="78.524399"
   height="10.2714" />
   <path
   id="_177357840"
   fill="#b2b2b2"
   d="m 81.5987,11.6937 c -24.5543,0 -37.2389,0 -42.3338,0 -5.0949,0 -10.9585,21.3343 -13.3355,21.3343 -2.3769,0 -7.8252,-21.3343 -12.0152,-21.3343 H 3.0743 v 30.7961 h 78.5244 z" />
   <path
   id="_177357056"
   fill="#6078bf"
   d="m 50.2213,46.5674 h 11.0476 c 1.4118,0 2.5669,-1.502 2.5669,-3.3377 V 42.4898 H 47.6544 v 0.7399 c 0,1.8357 1.1551,3.3377 2.5669,3.3377 z" />
   <path
   id="_177355384"
   fill="#6078bf"
   d="m 22.6795,46.5674 h 5.1716 5.08 c 1.3101,0 2.382,-1.502 2.382,-3.3377 v -0.7399 h -5.08 -9.9356 -5.08 v 0.7399 c 0,1.8357 1.0719,3.3377 2.382,3.3377 z" />
   <rect
   id="_177352624"
   fill="#4c4c4c"
   x="34.618698"
   y="41.0928"
   width="13.7352"
   height="1.3968" />
   <rect
   id="_177350432"
   fill="#798fd9"
   x="34.618698"
   y="34.691002"
   width="13.7352"
   height="6.402" />
   <g
   id="g915">
    <path
   id="_177349496"
   fill="none"
   stroke="#000000"
   stroke-width="0.7056"
   d="m 3.0743,37.266 c 17.7451,-0.5886 10.9493,2.477 16.2944,5.2238 -4.9036,1.5231 1.819,5.3928 -16.2944,5.1747" />
    <path
   id="_177344496"
   fill="#cccccc"
   d="m 3.0743,37.266 c 17.7451,-0.5886 10.9493,2.477 16.2944,5.2238 -4.9036,1.5231 1.819,5.3928 -16.2944,5.1747 z" />
   </g>
   <path
   id="_128507160"
   fill="none"
   stroke="#000000"
   stroke-width="0.7056"
   d="M 81.5987,12.2238 H 50.6819 c -20.2692,0 -19.9239,17.7508 -20.4488,30.266 m -8.4184,0 C 21.0058,29.9138 21.3103,12.2238 3.0743,12.2238 m 0,-3.81 h 5.1689 c 15.8826,0 14.8047,24.5677 17.6862,24.6141 C 29.12,33.0793 26.1127,8.4138 48.9953,8.4138 h 32.6034" />
   <path
   id="_177343592"
   fill="#cc9933"
   d="M 81.5987,12.2238 H 50.6819 c -20.2692,0 -19.9239,17.7508 -20.4488,30.266 H 21.8147 C 21.0058,29.9138 21.3103,12.2238 3.0743,12.2238 v -3.81 h 5.1689 c 15.8826,0 14.8047,24.5677 17.6862,24.6141 C 29.12,33.0793 26.1127,8.4138 48.9953,8.4138 h 32.6034 z" />
   <text
   x="2.2966001"
   y="5.6704998"
   id="_177334544"
   fill="#000000"
   font-weight="normal"
   font-size="4.9389px"
   font-family="'DejaVu Sans'"
   style="line-height:0%">Bit-Línea</text>

   <text
   x="4.4534998"
   y="58.434399"
   id="_177312696"
   fill="#000000"
   font-weight="normal"
   font-size="4.9389px"
   font-family="'DejaVu Sans'"
   style="line-height:0%">Word-Línea</text>

   <text
   x="37.359699"
   y="5.5702"
   id="_177296360"
   fill="#000000"
   font-weight="normal"
   font-size="4.9389px"
   font-family="'DejaVu Sans'"
   style="line-height:0%">Condensador Electrodo</text>

   <g
   id="g924">
    <g
   transform="matrix(1.00002,0,0,1,-32.5156,13.7726)"
   id="g926">
     <text
   x="37.702801"
   y="30"
   id="_177296504"
   fill="#000000"
   font-weight="normal"
   font-size="2.8221px"
   font-family="'DejaVu Sans'"
   style="line-height:0%">SiO</text>

    </g>
    <g
   transform="matrix(1.00002,0,0,1,-32.645,14.598)"
   id="g929">
     <text
   x="42.5"
   y="30"
   id="_177302656"
   fill="#000000"
   font-weight="normal"
   font-size="2.1166px"
   font-family="'DejaVu Sans'"
   style="line-height:0%">2</text>

    </g>
   </g>
   <g
   id="g932">
    <g
   transform="matrix(1.00002,0,0,1,36.0436,-8.7381)"
   id="g934">
     <text
   x="37.702801"
   y="30"
   id="_177285048"
   fill="#000000"
   font-weight="normal"
   font-size="2.8221px"
   font-family="'DejaVu Sans'"
   style="line-height:0%">SiO</text>

    </g>
    <g
   transform="matrix(1.00002,0,0,1,35.9142,-7.9127)"
   id="g937">
     <text
   x="42.5"
   y="30"
   id="_177291104"
   fill="#000000"
   font-weight="normal"
   font-size="2.1166px"
   font-family="'DejaVu Sans'"
   style="line-height:0%">2</text>

    </g>
   </g>
   <g
   id="g940">
    <path
   id="_172111512"
   fill="none"
   stroke="#000000"
   stroke-width="0.7056"
   d="m 81.5987,37.1928 c -17.7451,-0.5886 -10.9493,2.477 -16.2944,5.2238 4.9036,1.5231 -1.819,5.3928 16.2944,5.1747" />
    <path
   id="_177353712"
   fill="#cccccc"
   d="m 81.5987,37.1928 c -17.7451,-0.5886 -10.9493,2.477 -16.2944,5.2238 4.9036,1.5231 -1.819,5.3928 16.2944,5.1747 z" />
   </g>
   <g
   id="g944">
    <g
   transform="matrix(1.00002,0,0,1,36.7429,13.7418)"
   id="g946">
     <text
   x="37.702801"
   y="30"
   id="_177274016"
   fill="#000000"
   font-weight="normal"
   font-size="2.8221px"
   font-family="'DejaVu Sans'"
   style="line-height:0%">SiO</text>

    </g>
    <g
   transform="matrix(1.00002,0,0,1,36.6135,14.5672)"
   id="g949">
     <text
   x="42.5"
   y="30"
   id="_177279920"
   fill="#000000"
   font-weight="normal"
   font-size="2.1166px"
   font-family="'DejaVu Sans'"
   style="line-height:0%">2</text>

    </g>
   </g>
   <g
   id="g952">
    <g
   transform="matrix(0.999981,0.00707072,-0.00707076,0.999975,2.39244,8.90554)"
   id="g954">
     <text
   x="40.7113"
   y="30"
   id="_177207288"
   fill="#000000"
   font-weight="normal"
   font-size="2.8221px"
   font-family="'DejaVu Sans'"
   style="line-height:0%">n</text>

    </g>
    <g
   transform="matrix(0.999981,0.00707072,-0.00707076,0.999975,1.81134,7.37654)"
   id="g957">
     <text
   x="42.5"
   y="30"
   id="_177211976"
   fill="#000000"
   font-weight="normal"
   font-size="2.1165px"
   font-family="'DejaVu Sans'"
   style="line-height:0%">+</text>

    </g>
   </g>
   <text
   x="40.539001"
   y="50.9585"
   id="_177249680"
   fill="#000000"
   font-weight="normal"
   font-size="2.8222px"
   font-family="'DejaVu Sans'"
   style="line-height:0%">p-Si</text>

   <text
   x="43.927502"
   y="17.774599"
   id="_177242424"
   fill="#000000"
   font-weight="normal"
   font-size="2.8222px"
   font-family="'DejaVu Sans'"
   style="line-height:0%"><tspan
     style="fill:#502d16"
     id="tspan14559">Dielectrico</tspan></text>

   <text
   x="45.039299"
   y="21.0597"
   id="text962"
   fill="#000000"
   font-weight="normal"
   font-size="2.8222px"
   font-family="'DejaVu Sans'"
   style="line-height:0%">(z. B. ONO)</text>

   <g
   transform="matrix(0.999981,0.00707072,-0.00707076,0.999975,16.7,15.4568)"
   id="g964">
    <text
   x="37.117298"
   y="30"
   id="_126353144"
   fill="#000000"
   font-weight="normal"
   font-size="2.8221px"
   font-family="'DejaVu Sans'"
   style="line-height:0%">n-Si</text>

   </g>
   <g
   id="g967">
    <path
   id="_125952968"
   fill="#000000"
   fill-rule="nonzero"
   d="m 32.3243,16.0901 -12.054,-8.8731 0.4162,-0.5678 12.054,8.8731 z m -1.3046,-3.0523 3.3444,4.1167 -4.9245,-1.9701 z" />
   </g>
   <g
   id="g970">
    <path
   fill="#000000"
   fill-rule="nonzero"
   d="M 37.771,39.1751 23.7113,53.8236 23.2041,53.3358 37.2638,38.6873 Z m -3.1938,0.8957 4.5145,-2.7797 -2.5924,4.6246 z"
   id="path972" />
   </g>
   <path
   fill="#4c4c4c"
   d="m 40.1385,31.8981 h 16.4567 v 2.2974 h 5.0806 l 1.4725,-2.2974 H 78.626 v -0.4813 c -1.6315,0 -2.4234,0 -4.0548,0 0,-1.1716 0,-2.3431 0,-3.5146 0,-0.8893 0,-0.8893 -0.6027,-0.8893 -14.5516,0 -13.1627,4.8852 -14.5516,4.9371 -1.3887,0.0519 -0.0012,-4.9356 -14.664,-4.9371 h -0.0063 c -0.5963,0 -0.5964,0.0032 -0.5964,0.8893 0,1.1715 0,2.343 0,3.5146 H 40.1385 Z M 78.626,31.4168 V 30.847 h -0.0075 c 0.0073,0.1473 0.0075,0.3334 0.0075,0.5698 z M 55.8499,27.1522 C 55.8226,27.1056 55.7967,27.059 55.7723,27.0129 h -0.0469 c 0.0416,0.0471 0.0831,0.0935 0.1245,0.1393 z"
   id="path974" />
   <path
   fill="#6078bf"
   d="m 57.3652,42.4898 h 4.1034 l -1e-4,-5.0373 c 0,-3.0551 3.3177,-5.5543 7.3727,-5.5544 l 5.1273,-10e-5 v -3.9959 c -14.5516,0 -12.0445,4.9033 -14.5516,4.9032 -2.5071,-1e-4 0,-4.9032 -14.6696,-4.9032 v 3.996 h 5.2453 c 4.0551,0 7.3726,2.4993 7.3726,5.5544 z"
   id="path976" />
   <line
   fill="none"
   stroke="#000000"
   stroke-width="0.3528"
   x1="19.3687"
   y1="42.489799"
   x2="65.304298"
   y2="42.489799"
   id="line978" />
   <path
   fill="#9933cc"
   d="m 76.1213,29.8974 c 0,0.3975 0.9477,0.3975 1.7262,0.3975 0.7785,0 0.7785,0 0.7785,1.1219 -1.6315,0 -2.4234,0 -4.0548,0 0,-1.1716 0,-2.3431 0,-3.5146 0,-0.8893 0,-0.8893 -0.6027,-0.8893 -14.5516,0 -13.1627,4.8852 -14.5516,4.9371 -1.3887,0.0519 -0.0012,-4.9356 -14.664,-4.9371 h -0.0063 c -0.5963,0 -0.5964,0.0032 -0.5964,0.8893 0,1.1715 0,2.343 0,3.5146 -1.6314,0 -2.4233,0 -4.0548,0 0,-1.1219 0,-1.1219 0.7785,-1.1219 0.7785,0 1.7262,0 1.7262,-0.3975 0,-4.4376 0,-4.4376 2.1528,-4.4376 14.6696,0 13.2751,4.2237 14.664,4.1718 1.3889,-0.0519 0,-4.1718 14.5516,-4.1718 2.1528,0 2.1528,0 2.1528,4.4376 z M 44.7529,26.1452 c 0.0044,-0.1507 0.0068,-0.3315 0,-0.6854 z"
   id="path980" />
   <g
   id="g982">
    <path
   fill="#000000"
   fill-rule="nonzero"
   d="m 67.7642,24.4327 -2.1974,-17.8994 0.7,-0.0854 2.1974,17.8994 z m 1.326,-3.0482 -0.6985,5.2668 -1.9516,-4.9415 z"
   id="path984" />
   </g>
   <g
   id="g986">
    <g
   transform="matrix(0.999981,0.00707072,-0.00707076,0.999975,17.6519,6.42514)"
   id="g988">
     <text
   x="40.7113"
   y="30"
   fill="#000000"
   font-weight="normal"
   font-size="2.8221px"
   font-family="'DejaVu Sans'"
   id="text990"
   style="line-height:0%">n</text>

    </g>
    <g
   transform="matrix(0.999981,0.00707072,-0.00707076,0.999975,17.0708,4.89614)"
   id="g992">
     <text
   x="42.5"
   y="30"
   fill="#000000"
   font-weight="normal"
   font-size="2.1165px"
   font-family="'DejaVu Sans'"
   id="text994"
   style="line-height:0%">+</text>

    </g>
   </g>
   <line
   fill="none"
   stroke="#000000"
   stroke-width="0.1764"
   x1="51.1954"
   y1="21.52"
   x2="50.333698"
   y2="27.6495"
   id="line996" />
   <g
   transform="matrix(0.999981,0.00707072,-0.00707076,0.999975,-14.3689,15.6566)"
   id="g998">
    <text
   x="37.117298"
   y="30"
   fill="#000000"
   font-weight="normal"
   font-size="2.8221px"
   font-family="'DejaVu Sans'"
   id="text1000"
   style="line-height:0%">n-Si</text>

   </g>
   <g
   id="g1002">
    <g
   transform="matrix(0.999981,0.00707072,-0.00707076,0.999975,21.1736,-4.76476)"
   id="g1004">
     <text
   x="40.7113"
   y="30"
   fill="#000000"
   font-weight="normal"
   font-size="2.8221px"
   font-family="'DejaVu Sans'"
   id="text1006"
   style="line-height:0%">n</text>

    </g>
    <g
   transform="matrix(0.999981,0.00707072,-0.00707076,0.999975,20.5925,-6.29376)"
   id="g1008">
     <text
   x="42.5"
   y="30"
   fill="#000000"
   font-weight="normal"
   font-size="2.1165px"
   font-family="'DejaVu Sans'"
   id="text1010"
   style="line-height:0%">+</text>

    </g>
   </g>
   <line
   fill="none"
   stroke="#000000"
   stroke-width="0.1764"
   x1="62.417"
   y1="25.723499"
   x2="63.258499"
   y2="27.6199"
   id="line1012" />
  <g
   id="g15020"
   transform="matrix(-0.14325094,0.99289261,-1.1950955,-0.11901375,104.52064,-31.803372)">
    <path
   fill="#000000"
   fill-rule="nonzero"
   d="m 67.7642,24.4327 -2.1974,-17.8994 0.7,-0.0854 2.1974,17.8994 z m 1.326,-3.0482 -0.6985,5.2668 -1.9516,-4.9415 z"
   id="path15018" />
   </g><path
   style="fill:none;stroke:#000000;stroke-width:0.8;stroke-linecap:butt;stroke-linejoin:miter;stroke-dasharray:none;stroke-opacity:1"
   d="M 87.086052,33.0185 V 7.0618378"
   id="path15022" /></g>
 </g>
</svg>
