<?xml version="1.0" encoding="UTF-8" standalone="no"?>
<!-- Created with Inkscape (http://www.inkscape.org/) -->

<svg
   width="210mm"
   height="297mm"
   viewBox="0 0 210 297"
   version="1.1"
   id="svg5"
   sodipodi:docname="tema3_absorcion_conjunto.svg"
   inkscape:version="1.2.2 (1:1.2.2+202212051550+b0a8486541)"
   xmlns:inkscape="http://www.inkscape.org/namespaces/inkscape"
   xmlns:sodipodi="http://sodipodi.sourceforge.net/DTD/sodipodi-0.dtd"
   xmlns="http://www.w3.org/2000/svg"
   xmlns:svg="http://www.w3.org/2000/svg">
  <sodipodi:namedview
     id="namedview7"
     pagecolor="#ffffff"
     bordercolor="#666666"
     borderopacity="1.0"
     inkscape:showpageshadow="2"
     inkscape:pageopacity="0.0"
     inkscape:pagecheckerboard="0"
     inkscape:deskcolor="#d1d1d1"
     inkscape:document-units="mm"
     showgrid="false"
     inkscape:zoom="1.539623"
     inkscape:cx="58.131114"
     inkscape:cy="559.55257"
     inkscape:window-width="1320"
     inkscape:window-height="704"
     inkscape:window-x="46"
     inkscape:window-y="27"
     inkscape:window-maximized="1"
     inkscape:current-layer="layer2" />
  <defs
     id="defs2">
    <rect
       x="99.809463"
       y="442.96384"
       width="112.8016"
       height="32.190609"
       id="rect2694" />
    <rect
       x="86.520105"
       y="449.11097"
       width="183.17419"
       height="24.843744"
       id="rect593" />
    <rect
       x="50.038962"
       y="476.50732"
       width="68.903523"
       height="49.929349"
       id="rect3316" />
    <rect
       x="144.08413"
       y="542.76757"
       width="83.606429"
       height="23.9383"
       id="rect3070" />
    <rect
       x="203.42809"
       y="604.17804"
       width="24.752625"
       height="22.377439"
       id="rect2908" />
    <rect
       x="160.11118"
       y="662.42916"
       width="42.020963"
       height="20.463597"
       id="rect2207" />
    <marker
       style="overflow:visible"
       id="Arrow1L"
       refX="0"
       refY="0"
       orient="auto-start-reverse"
       inkscape:stockid="Arrow1L"
       markerWidth="8.75"
       markerHeight="5"
       viewBox="0 0 8.75 5"
       inkscape:isstock="true"
       inkscape:collect="always"
       preserveAspectRatio="xMidYMid">
      <path
         style="fill:context-stroke;fill-rule:evenodd;stroke:none"
         d="M 0,0 5,-5 -12.5,0 5,5 Z"
         id="arrow1L"
         transform="scale(-0.5)" />
    </marker>
    <rect
       x="203.42809"
       y="604.17804"
       width="24.752625"
       height="22.377439"
       id="rect2908-9" />
    <rect
       x="203.42809"
       y="604.17804"
       width="24.752625"
       height="22.377439"
       id="rect2908-9-2" />
    <rect
       x="144.08414"
       y="542.76758"
       width="56.804401"
       height="23.938299"
       id="rect3070-4" />
    <rect
       x="144.08414"
       y="542.76758"
       width="56.804401"
       height="23.938299"
       id="rect3070-4-9" />
    <rect
       x="50.038962"
       y="476.50732"
       width="68.903523"
       height="49.929349"
       id="rect3399" />
    <rect
       x="50.038962"
       y="476.50732"
       width="68.903523"
       height="49.929349"
       id="rect3411" />
    <rect
       x="144.08414"
       y="542.76758"
       width="56.804401"
       height="23.938299"
       id="rect3070-4-9-0" />
    <clipPath
       id="clipPath941">
      <path
         d="M 0,3 H 5 V 8.109375 H 0 Z m 0,0"
         id="path6160" />
    </clipPath>
    <clipPath
       id="clipPath7577">
      <path
         d="M 18,3 H 31 V 8.109375 H 18 Z m 0,0"
         id="path3884" />
    </clipPath>
    <clipPath
       id="clipPath8319">
      <path
         d="M 0,1 H 6 V 5.535156 H 0 Z m 0,0"
         id="path7822" />
    </clipPath>
    <clipPath
       id="clipPath7405">
      <path
         d="m 8,0 h 6 V 5.535156 H 8 Z m 0,0"
         id="path3912" />
    </clipPath>
    <clipPath
       id="clipPath4829">
      <path
         d="m 17,1 h 6 v 4.535156 h -6 z m 0,0"
         id="path4945" />
    </clipPath>
    <clipPath
       id="clipPath3877">
      <path
         d="m 25,0 h 6 v 5.535156 h -6 z m 0,0"
         id="path7301" />
    </clipPath>
    <clipPath
       id="clipPath4847">
      <path
         d="m 33,1 h 6 v 4.535156 h -6 z m 0,0"
         id="path2818" />
    </clipPath>
    <clipPath
       id="clipPath6601">
      <path
         d="m 41,0 h 7 v 5.535156 h -7 z m 0,0"
         id="path3551" />
    </clipPath>
    <clipPath
       id="clipPath8041">
      <path
         d="m 50,1 h 5 v 4.535156 h -5 z m 0,0"
         id="path8695" />
    </clipPath>
    <clipPath
       id="clipPath2259">
      <path
         d="M 0,0 H 4 V 9.964844 H 0 Z m 0,0"
         id="path9679" />
    </clipPath>
    <clipPath
       id="clipPath560">
      <path
         d="m 26,0 h 4 v 9.964844 h -4 z m 0,0"
         id="path3415" />
    </clipPath>
    <clipPath
       id="clipPath1391">
      <path
         d="m 42,0 h 3 v 9.964844 h -3 z m 0,0"
         id="path4172" />
    </clipPath>
    <clipPath
       id="clipPath3290">
      <path
         d="m 67,0 h 3 v 9.964844 h -3 z m 0,0"
         id="path969" />
    </clipPath>
    <clipPath
       id="clipPath1050">
      <path
         d="M 0,0 H 4 V 9.964844 H 0 Z m 0,0"
         id="path5260" />
    </clipPath>
    <clipPath
       id="clipPath6442">
      <path
         d="m 26,0 h 4 v 9.964844 h -4 z m 0,0"
         id="path978" />
    </clipPath>
    <clipPath
       id="clipPath6432">
      <path
         d="m 42,0 h 3 v 9.964844 h -3 z m 0,0"
         id="path5840" />
    </clipPath>
    <clipPath
       id="clipPath4501">
      <path
         d="m 67,0 h 3 v 9.964844 h -3 z m 0,0"
         id="path7039" />
    </clipPath>
    <clipPath
       id="clipPath4507">
      <path
         d="M 0,0 H 4 V 9.964844 H 0 Z m 0,0"
         id="path4223" />
    </clipPath>
    <clipPath
       id="clipPath6802">
      <path
         d="m 26,0 h 4 v 9.964844 h -4 z m 0,0"
         id="path2348" />
    </clipPath>
    <clipPath
       id="clipPath3246">
      <path
         d="m 42,0 h 3 v 9.964844 h -3 z m 0,0"
         id="path2087" />
    </clipPath>
    <clipPath
       id="clipPath5672">
      <path
         d="m 67,0 h 3 v 9.964844 h -3 z m 0,0"
         id="path6066" />
    </clipPath>
    <clipPath
       id="clipPath6247">
      <path
         d="M 0,0 H 6.640625 V 5.535156 H 0 Z m 0,0"
         id="path5937" />
    </clipPath>
    <clipPath
       id="clipPath5340">
      <path
         d="M 0,0 H 6.640625 V 5.535156 H 0 Z m 0,0"
         id="path9515" />
    </clipPath>
    <clipPath
       id="clipPath5487">
      <path
         d="M 0,1 H 6 V 5.535156 H 0 Z m 0,0"
         id="path6174" />
    </clipPath>
    <clipPath
       id="clipPath4612">
      <path
         d="m 8,0 h 6 V 5.535156 H 8 Z m 0,0"
         id="path3679" />
    </clipPath>
    <clipPath
       id="clipPath6478">
      <path
         d="m 17,1 h 6 v 4.535156 h -6 z m 0,0"
         id="path5262" />
    </clipPath>
    <clipPath
       id="clipPath4766">
      <path
         d="m 25,0 h 6 v 5.535156 h -6 z m 0,0"
         id="path2669" />
    </clipPath>
    <clipPath
       id="clipPath2111">
      <path
         d="m 33,1 h 5.722656 V 5.535156 H 33 Z m 0,0"
         id="path6227" />
    </clipPath>
  </defs>
  <g
     inkscape:label="Geruza 1"
     inkscape:groupmode="layer"
     id="layer1">
    <g
       inkscape:label=""
       transform="matrix(3.05016 0 0 1.8564 52.2831 165.384)"
       id="g5753" />
  </g>
  <g
     inkscape:groupmode="layer"
     id="layer2"
     inkscape:label="Geruza 2">
    <text
       xml:space="preserve"
       transform="scale(0.26458333)"
       id="text591"
       style="font-style:normal;font-weight:normal;font-size:16px;line-height:1.25;font-family:sans-serif;letter-spacing:0px;word-spacing:0px;white-space:pre;shape-inside:url(#rect593);display:inline;fill:#000000;fill-opacity:1;stroke:none"><tspan
         x="86.519531"
         y="463.26758"
         id="tspan4479">
</tspan></text>
    <circle
       style="vector-effect:none;fill:#362aff;fill-opacity:1;fill-rule:evenodd;stroke:#000000;stroke-width:0.190809;stroke-linecap:butt;stroke-linejoin:miter;stroke-miterlimit:4;stroke-dasharray:none;stroke-dashoffset:0;stroke-opacity:0.971698"
       id="circle1855"
       cx="70.180435"
       cy="167.27339"
       r="10.65006" />
    <circle
       style="vector-effect:none;fill:#362aff;fill-opacity:1;fill-rule:evenodd;stroke:#000000;stroke-width:0.190809;stroke-linecap:butt;stroke-linejoin:miter;stroke-miterlimit:4;stroke-dasharray:none;stroke-dashoffset:0;stroke-opacity:0.971698"
       id="circle1874"
       cx="70.180435"
       cy="167.27339"
       r="10.65006" />
    <circle
       style="vector-effect:none;fill:#362aff;fill-opacity:1;fill-rule:evenodd;stroke:#000000;stroke-width:0.190809;stroke-linecap:butt;stroke-linejoin:miter;stroke-miterlimit:4;stroke-dasharray:none;stroke-dashoffset:0;stroke-opacity:0.971698"
       id="circle1876"
       cx="98.755486"
       cy="167.27339"
       r="10.65006" />
    <path
       style="fill:none;stroke:#000000;stroke-width:0.264583px;stroke-linecap:butt;stroke-linejoin:miter;stroke-opacity:1;marker-end:url(#Arrow1L)"
       d="m 32.328549,167.27339 c 6.556391,0 6.556391,0 6.556391,0"
       id="path1942" />
    <text
       xml:space="preserve"
       transform="matrix(0.26458333,0,0,0.26458333,27.997378,4.9975066)"
       id="text2906-6"
       style="font-style:normal;font-weight:normal;font-size:16px;line-height:1.25;font-family:sans-serif;letter-spacing:0px;word-spacing:0px;white-space:pre;shape-inside:url(#rect2908-9);display:inline;fill:#000000;fill-opacity:1;stroke:none"><tspan
         x="203.42773"
         y="618.33398"
         id="tspan4481">=</tspan></text>
    <text
       xml:space="preserve"
       transform="matrix(0.26458333,0,0,0.26458333,1.6536885,-1.3600831)"
       id="text3068"
       style="font-style:normal;font-weight:normal;font-size:16px;line-height:1.25;font-family:sans-serif;letter-spacing:0px;word-spacing:0px;white-space:pre;shape-inside:url(#rect3070);display:inline;fill:#000000;fill-opacity:1;stroke:none"><tspan
         x="144.08398"
         y="556.92383"
         id="tspan4483">x⋅u⋅v</tspan></text>
    <text
       xml:space="preserve"
       transform="matrix(0.26458333,0,0,0.26458333,31.281849,3.1696036)"
       id="text3068-4"
       style="font-style:normal;font-weight:normal;font-size:16px;line-height:1.25;font-family:sans-serif;letter-spacing:0px;word-spacing:0px;white-space:pre;shape-inside:url(#rect3070-4);display:inline;fill:#000000;fill-opacity:1;stroke:none"><tspan
         x="144.08398"
         y="556.92383"
         id="tspan4485">x</tspan></text>
    <text
       xml:space="preserve"
       transform="matrix(0.26458333,0,0,0.26458333,-4.6671741,20.700836)"
       id="text3314"
       style="font-style:normal;font-weight:normal;font-size:16px;line-height:1.25;font-family:sans-serif;letter-spacing:0px;word-spacing:0px;white-space:pre;shape-inside:url(#rect3316);display:inline;fill:#362aff;fill-opacity:1;stroke:none"><tspan
         x="50.039062"
         y="490.66406"
         id="tspan4487">x</tspan></text>
    <text
       xml:space="preserve"
       transform="matrix(0.26458333,0,0,0.26458333,1.4558271,20.700836)"
       id="text3397"
       style="font-style:normal;font-weight:normal;font-size:16px;line-height:1.25;font-family:sans-serif;letter-spacing:0px;word-spacing:0px;white-space:pre;shape-inside:url(#rect3399);display:inline;fill:#ff7f2a;fill-opacity:1;stroke:none"><tspan
         x="50.039062"
         y="490.66406"
         id="tspan4489">u</tspan></text>
    <text
       xml:space="preserve"
       transform="matrix(0.26458333,0,0,0.26458333,7.9129533,20.700836)"
       id="text3409"
       style="font-style:normal;font-weight:normal;font-size:16px;line-height:1.25;font-family:sans-serif;letter-spacing:0px;word-spacing:0px;white-space:pre;shape-inside:url(#rect3411);display:inline;fill:#d35f5f;fill-opacity:1;stroke:none"><tspan
         x="50.039062"
         y="490.66406"
         id="tspan4491">v</tspan></text>
    <text
       xml:space="preserve"
       transform="matrix(0.26458333,0,0,0.26458333,57.322167,3.1696036)"
       id="text3068-4-9-5"
       style="font-style:normal;font-weight:normal;font-size:16px;line-height:1.25;font-family:sans-serif;letter-spacing:0px;word-spacing:0px;white-space:pre;shape-inside:url(#rect3070-4-9-0);display:inline;fill:#000000;fill-opacity:1;stroke:none"><tspan
         x="144.08398"
         y="556.92383"
         id="tspan4493">x</tspan></text>
    <g
       id="surface1"
       transform="matrix(0.86112027,0,0,0.71898255,51.787655,166.17173)">
      <g
         clip-path="url(#clipPath5340)"
         clip-rule="nonzero"
         id="g19">
        <g
           style="fill:#000000;fill-opacity:1"
           id="g17">
          <g
             id="use15"
             transform="translate(0,5.5349998)">
            <path
               style="stroke:none"
               d="m 6.09375,-5.609375 c 0,-0.171875 0,-0.359375 -0.203125,-0.359375 -0.203125,0 -0.203125,0.1875 -0.203125,0.359375 V -2 c 0,1.5 -1.625,1.828125 -2.375,1.828125 -0.4375,0 -1.0625,-0.09375 -1.59375,-0.4375 C 0.953125,-1.09375 0.953125,-1.734375 0.953125,-2 v -3.609375 c 0,-0.171875 0,-0.359375 -0.203125,-0.359375 -0.203125,0 -0.203125,0.1875 -0.203125,0.359375 v 3.65625 c 0,1.515625 1.53125,2.171875 2.765625,2.171875 1.296875,0 2.78125,-0.703125 2.78125,-2.15625 z m 0,0"
               id="path26" />
          </g>
        </g>
      </g>
    </g>
    <g
       inkscape:label=""
       transform="matrix(1.4380412,0,0,1.4380412,35.286554,148.03755)"
       id="g3494">
      <g
         id="g3492"
         transform="matrix(0.352778,0,0,0.352778,-0.104731,0.153017)">
        <g
           clip-path="url(#clipPath5487)"
           clip-rule="nonzero"
           id="g43">
          <g
             style="fill:#000000;fill-opacity:1"
             id="g41">
            <g
               id="use39"
               transform="translate(0,5.5349998)">
              <path
                 style="stroke:none"
                 d="M 3.328125,-3.015625 C 3.390625,-3.265625 3.625,-4.1875 4.3125,-4.1875 c 0.046875,0 0.296875,0 0.5,0.125 C 4.53125,-4 4.34375,-3.765625 4.34375,-3.515625 c 0,0.15625 0.109375,0.34375 0.375,0.34375 0.21875,0 0.53125,-0.171875 0.53125,-0.578125 0,-0.515625 -0.578125,-0.65625 -0.921875,-0.65625 -0.578125,0 -0.921875,0.53125 -1.046875,0.75 -0.25,-0.65625 -0.78125,-0.75 -1.078125,-0.75 -1.03125,0 -1.609375,1.28125 -1.609375,1.53125 0,0.109375 0.109375,0.109375 0.125,0.109375 0.078125,0 0.109375,-0.03125 0.125,-0.109375 0.34375,-1.0625 1,-1.3125 1.34375,-1.3125 0.1875,0 0.53125,0.09375 0.53125,0.671875 0,0.3125 -0.171875,0.96875 -0.53125,2.375 -0.15625,0.609375 -0.515625,1.03125 -0.953125,1.03125 -0.0625,0 -0.28125,0 -0.5,-0.125 0.25,-0.0625 0.46875,-0.265625 0.46875,-0.546875 0,-0.265625 -0.21875,-0.34375 -0.359375,-0.34375 -0.3125,0 -0.546875,0.25 -0.546875,0.578125 0,0.453125 0.484375,0.65625 0.921875,0.65625 0.671875,0 1.03125,-0.703125 1.046875,-0.75 0.125,0.359375 0.484375,0.75 1.078125,0.75 1.03125,0 1.59375,-1.28125 1.59375,-1.53125 0,-0.109375 -0.078125,-0.109375 -0.109375,-0.109375 -0.09375,0 -0.109375,0.046875 -0.140625,0.109375 -0.328125,1.078125 -1,1.3125 -1.3125,1.3125 -0.390625,0 -0.546875,-0.3125 -0.546875,-0.65625 0,-0.21875 0.046875,-0.4375 0.15625,-0.875 z m 0,0"
                 id="path74" />
            </g>
          </g>
        </g>
        <g
           clip-path="url(#clipPath4612)"
           clip-rule="nonzero"
           id="g49">
          <g
             style="fill:#000000;fill-opacity:1"
             id="g47">
            <g
               id="use45"
               transform="translate(7.908,5.5349998)">
              <path
                 style="stroke:none"
                 d="m 6.09375,-3.78125 c 0,-1.515625 -1.53125,-2.1875 -2.78125,-2.1875 -1.28125,0 -2.765625,0.703125 -2.765625,2.171875 v 3.65625 c 0,0.1875 0,0.359375 0.203125,0.359375 0.203125,0 0.203125,-0.171875 0.203125,-0.359375 V -3.75 c 0,-1.5 1.625,-1.8125 2.359375,-1.8125 0.453125,0 1.078125,0.09375 1.609375,0.421875 C 5.6875,-4.640625 5.6875,-4 5.6875,-3.734375 v 3.59375 c 0,0.1875 0,0.359375 0.203125,0.359375 0.203125,0 0.203125,-0.171875 0.203125,-0.359375 z m 0,0"
                 id="path78" />
            </g>
          </g>
        </g>
        <g
           clip-path="url(#clipPath6478)"
           clip-rule="nonzero"
           id="g55">
          <g
             style="fill:#000000;fill-opacity:1"
             id="g53">
            <g
               id="use51"
               transform="translate(16.763,5.5349998)">
              <path
                 style="stroke:none"
                 d="M 3.484375,-0.5625 C 3.59375,-0.15625 3.953125,0.109375 4.375,0.109375 4.71875,0.109375 4.953125,-0.125 5.109375,-0.4375 5.28125,-0.796875 5.40625,-1.40625 5.40625,-1.421875 c 0,-0.109375 -0.078125,-0.109375 -0.109375,-0.109375 -0.109375,0 -0.109375,0.046875 -0.140625,0.1875 -0.140625,0.5625 -0.328125,1.234375 -0.75,1.234375 -0.203125,0 -0.3125,-0.125 -0.3125,-0.453125 0,-0.21875 0.125,-0.6875 0.203125,-1.046875 L 4.578125,-2.6875 C 4.609375,-2.828125 4.703125,-3.203125 4.75,-3.359375 4.796875,-3.59375 4.890625,-3.96875 4.890625,-4.03125 c 0,-0.171875 -0.140625,-0.265625 -0.28125,-0.265625 -0.046875,0 -0.3125,0.015625 -0.390625,0.34375 -0.1875,0.734375 -0.625,2.484375 -0.75,3 -0.015625,0.046875 -0.40625,0.84375 -1.140625,0.84375 -0.515625,0 -0.609375,-0.453125 -0.609375,-0.8125 0,-0.5625 0.28125,-1.34375 0.53125,-2.03125 0.125,-0.3125 0.171875,-0.453125 0.171875,-0.640625 0,-0.4375 -0.3125,-0.8125 -0.8125,-0.8125 -0.953125,0 -1.3125,1.453125 -1.3125,1.53125 0,0.109375 0.09375,0.109375 0.109375,0.109375 0.109375,0 0.109375,-0.03125 0.15625,-0.1875 0.25,-0.859375 0.640625,-1.234375 1.015625,-1.234375 0.09375,0 0.25,0.015625 0.25,0.328125 0,0.234375 -0.109375,0.53125 -0.171875,0.671875 -0.375,1 -0.578125,1.609375 -0.578125,2.09375 0,0.953125 0.6875,1.203125 1.21875,1.203125 0.65625,0 1.015625,-0.453125 1.1875,-0.671875 z m 0,0"
                 id="path82" />
            </g>
          </g>
        </g>
        <g
           clip-path="url(#clipPath4766)"
           clip-rule="nonzero"
           id="g61">
          <g
             style="fill:#000000;fill-opacity:1"
             id="g59">
            <g
               id="use57"
               transform="translate(24.68,5.5349998)">
              <path
                 style="stroke:none"
                 d="m 6.09375,-3.78125 c 0,-1.515625 -1.53125,-2.1875 -2.78125,-2.1875 -1.28125,0 -2.765625,0.703125 -2.765625,2.171875 v 3.65625 c 0,0.1875 0,0.359375 0.203125,0.359375 0.203125,0 0.203125,-0.171875 0.203125,-0.359375 V -3.75 c 0,-1.5 1.625,-1.8125 2.359375,-1.8125 0.453125,0 1.078125,0.09375 1.609375,0.421875 C 5.6875,-4.640625 5.6875,-4 5.6875,-3.734375 v 3.59375 c 0,0.1875 0,0.359375 0.203125,0.359375 0.203125,0 0.203125,-0.171875 0.203125,-0.359375 z m 0,0"
                 id="path86" />
            </g>
          </g>
        </g>
        <g
           clip-path="url(#clipPath2111)"
           clip-rule="nonzero"
           id="g67">
          <g
             style="fill:#000000;fill-opacity:1"
             id="g65">
            <g
               id="use63"
               transform="translate(33.535999,5.5349998)">
              <path
                 style="stroke:none"
                 d="m 4.671875,-3.703125 c 0,-0.546875 -0.265625,-0.703125 -0.4375,-0.703125 -0.25,0 -0.5,0.265625 -0.5,0.484375 0,0.125 0.046875,0.1875 0.15625,0.296875 0.21875,0.203125 0.34375,0.453125 0.34375,0.8125 0,0.421875 -0.609375,2.703125 -1.765625,2.703125 -0.515625,0 -0.75,-0.34375 -0.75,-0.875 0,-0.546875 0.28125,-1.28125 0.578125,-2.109375 0.078125,-0.171875 0.125,-0.3125 0.125,-0.5 0,-0.4375 -0.3125,-0.8125 -0.8125,-0.8125 -0.9375,0 -1.3125,1.453125 -1.3125,1.53125 0,0.109375 0.09375,0.109375 0.109375,0.109375 0.109375,0 0.109375,-0.03125 0.15625,-0.1875 0.296875,-1 0.71875,-1.234375 1.015625,-1.234375 0.078125,0 0.25,0 0.25,0.3125 0,0.25 -0.109375,0.53125 -0.171875,0.703125 -0.4375,1.15625 -0.5625,1.609375 -0.5625,2.046875 0,1.078125 0.875,1.234375 1.328125,1.234375 1.671875,0 2.25,-3.296875 2.25,-3.8125 z m 0,0"
                 id="path90" />
            </g>
          </g>
        </g>
      </g>
    </g>
    <circle
       style="vector-effect:none;fill:#362aff;fill-opacity:1;fill-rule:evenodd;stroke:#000000;stroke-width:0.190809;stroke-linecap:butt;stroke-linejoin:miter;stroke-miterlimit:4;stroke-dasharray:none;stroke-dashoffset:0;stroke-opacity:0.971698"
       id="circle2034"
       cx="12.302114"
       cy="168.86092"
       r="10.65006" />
    <circle
       style="vector-effect:none;fill:#d35f5f;fill-opacity:0.998848;fill-rule:evenodd;stroke:#000000;stroke-width:0.139869;stroke-linecap:butt;stroke-linejoin:miter;stroke-miterlimit:4;stroke-dasharray:none;stroke-dashoffset:0;stroke-opacity:0.971698"
       id="circle2036"
       cx="23.146883"
       cy="171.13934"
       r="7.8068094" />
    <circle
       style="vector-effect:none;fill:#ff7f2a;fill-opacity:1;fill-rule:evenodd;stroke:#000000;stroke-width:0.136044;stroke-linecap:butt;stroke-linejoin:miter;stroke-miterlimit:4;stroke-dasharray:none;stroke-dashoffset:0;stroke-opacity:0.971698"
       id="circle2038"
       cx="21.342775"
       cy="164.72734"
       r="7.5933514" />
    <path
       style="fill:none;fill-opacity:1;fill-rule:evenodd;stroke:#362aff;stroke-width:0.391;stroke-linecap:butt;stroke-linejoin:miter;stroke-miterlimit:4;stroke-dasharray:1.173, 1.173;stroke-dashoffset:0;stroke-opacity:1"
       id="circle3536"
       sodipodi:type="arc"
       sodipodi:cx="37.053108"
       sodipodi:cy="167.91287"
       sodipodi:rx="10.65006"
       sodipodi:ry="10.65006"
       sodipodi:start="5.000794"
       sodipodi:end="1.3089969"
       sodipodi:arc-type="arc"
       d="m 40.082235,157.70267 a 10.65006,10.65006 0 0 1 7.619991,10.35187 10.65006,10.65006 0 0 1 -7.892679,10.1455"
       sodipodi:open="true" />
    <path
       id="circle548"
       style="vector-effect:none;fill:#362aff;fill-opacity:1;fill-rule:evenodd;stroke:#000000;stroke-width:0.190809;stroke-linecap:butt;stroke-linejoin:miter;stroke-miterlimit:4;stroke-dasharray:none;stroke-dashoffset:0;stroke-opacity:0.971698"
       d="m 46.581611,163.24023 a 7.8068094,7.8068094 0 0 0 -0.12299,0.0506 7.8068094,7.8068094 0 0 0 -0.265617,0.12196 7.8068094,7.8068094 0 0 0 -0.260449,0.13125 7.8068094,7.8068094 0 0 0 -0.255798,0.1416 7.8068094,7.8068094 0 0 0 -0.249597,0.15038 7.8068094,7.8068094 0 0 0 -0.24443,0.16019 7.8068094,7.8068094 0 0 0 -0.238228,0.16898 7.8068094,7.8068094 0 0 0 -0.231511,0.17777 7.8068094,7.8068094 0 0 0 -0.224792,0.18604 7.8068094,7.8068094 0 0 0 -0.217558,0.19482 7.8068094,7.8068094 0 0 0 -0.210323,0.20205 7.8068094,7.8068094 0 0 0 -0.202572,0.21032 7.8068094,7.8068094 0 0 0 -0.194303,0.21756 7.8068094,7.8068094 0 0 0 -0.186552,0.22531 7.8068094,7.8068094 0 0 0 -0.177767,0.23151 7.8068094,7.8068094 0 0 0 -0.168982,0.23823 7.8068094,7.8068094 0 0 0 -0.15968,0.24391 7.8068094,7.8068094 0 0 0 -0.150895,0.25012 7.8068094,7.8068094 0 0 0 -0.141077,0.25528 7.8068094,7.8068094 0 0 0 -0.131775,0.26096 7.8068094,7.8068094 0 0 0 -0.121439,0.2651 7.8068094,7.8068094 0 0 0 -0.112138,0.27027 7.8068094,7.8068094 0 0 0 -0.101286,0.27337 7.8068094,7.8068094 0 0 0 -0.09147,0.2775 7.8068094,7.8068094 0 0 0 -0.08062,0.28009 7.8068094,7.8068094 0 0 0 -0.07028,0.2837 7.8068094,7.8068094 0 0 0 -0.03256,0.1726 7.5933514,7.5933514 0 0 0 0.315227,0.35657 7.5933514,7.5933514 0 0 0 0.33693,0.33641 7.5933514,7.5933514 0 0 0 0.357601,0.3142 7.5933514,7.5933514 0 0 0 0.376204,0.29145 7.5933514,7.5933514 0 0 0 0.393775,0.26717 7.5933514,7.5933514 0 0 0 0.409794,0.24236 7.5933514,7.5933514 0 0 0 0.424263,0.21601 7.5933514,7.5933514 0 0 0 0.436666,0.18862 7.5933514,7.5933514 0 0 0 0.448035,0.16123 7.5933514,7.5933514 0 0 0 0.45682,0.13281 7.5933514,7.5933514 0 0 0 0.464571,0.10438 7.5933514,7.5933514 0 0 0 0.470255,0.0744 7.5933514,7.5933514 0 0 0 0.387057,0.0367 10.65006,10.65006 0 0 0 0.576709,-3.43545 10.65006,10.65006 0 0 0 -1.209229,-4.92838 z" />
    <path
       style="fill:none;fill-opacity:0.998848;fill-rule:evenodd;stroke:#ff7f2a;stroke-width:0.34;stroke-linecap:butt;stroke-linejoin:miter;stroke-miterlimit:4;stroke-dasharray:1.02, 1.02;stroke-dashoffset:0;stroke-opacity:1"
       id="circle2130"
       sodipodi:type="arc"
       sodipodi:cx="48.032879"
       sodipodi:cy="163.99922"
       sodipodi:rx="7.8068094"
       sodipodi:ry="7.8068094"
       sodipodi:start="1.1856785"
       sodipodi:end="4.2642512"
       sodipodi:arc-type="arc"
       d="m 50.96565,171.23422 a 7.8068094,7.8068094 0 0 1 -10.071777,-4.07575 7.8068094,7.8068094 0 0 1 3.756409,-10.19518"
       sodipodi:open="true" />
    <path
       style="fill:none;fill-opacity:1;fill-rule:evenodd;stroke:#d35f5f;stroke-width:0.336;stroke-linecap:butt;stroke-linejoin:miter;stroke-miterlimit:4;stroke-dasharray:1.008, 1.008;stroke-dashoffset:0;stroke-opacity:1"
       id="circle2132"
       sodipodi:type="arc"
       sodipodi:cx="49.129112"
       sodipodi:cy="170.41989"
       sodipodi:rx="7.5933514"
       sodipodi:ry="7.5933514"
       sodipodi:start="1.544196"
       sodipodi:end="5.1198721"
       sodipodi:open="true"
       sodipodi:arc-type="arc"
       d="m 49.331074,178.01056 a 7.5933514,7.5933514 0 0 1 -7.179519,-4.59522 7.5933514,7.5933514 0 0 1 1.613561,-8.37007 7.5933514,7.5933514 0 0 1 8.37324,-1.597"
       inkscape:export-filename="tema3_absorcion_conjunto.png"
       inkscape:export-xdpi="96"
       inkscape:export-ydpi="96" />
  </g>
</svg>
