<?xml version="1.0" encoding="UTF-8" standalone="no"?>
<!-- Created with Inkscape (http://www.inkscape.org/) -->

<svg
   width="210mm"
   height="297mm"
   viewBox="0 0 210 297"
   version="1.1"
   id="svg3344"
   inkscape:version="1.2.2 (1:1.2.2+202212051550+b0a8486541)"
   sodipodi:docname="tema3_absorcion_conjunto_2.svg"
   xmlns:inkscape="http://www.inkscape.org/namespaces/inkscape"
   xmlns:sodipodi="http://sodipodi.sourceforge.net/DTD/sodipodi-0.dtd"
   xmlns="http://www.w3.org/2000/svg"
   xmlns:svg="http://www.w3.org/2000/svg">
  <sodipodi:namedview
     id="namedview3346"
     pagecolor="#ffffff"
     bordercolor="#666666"
     borderopacity="1.0"
     inkscape:showpageshadow="2"
     inkscape:pageopacity="0.0"
     inkscape:pagecheckerboard="0"
     inkscape:deskcolor="#d1d1d1"
     inkscape:document-units="mm"
     showgrid="false"
     inkscape:zoom="1.539623"
     inkscape:rotation="-1"
     inkscape:cx="239.98956"
     inkscape:cy="560.57879"
     inkscape:window-width="1320"
     inkscape:window-height="704"
     inkscape:window-x="46"
     inkscape:window-y="27"
     inkscape:window-maximized="1"
     inkscape:current-layer="layer1" />
  <defs
     id="defs3341">
    <marker
       style="overflow:visible"
       id="Arrow1L"
       refX="0"
       refY="0"
       orient="auto-start-reverse"
       inkscape:stockid="Arrow1L"
       markerWidth="8.75"
       markerHeight="5"
       viewBox="0 0 8.75 5"
       inkscape:isstock="true"
       inkscape:collect="always"
       preserveAspectRatio="xMidYMid">
      <path
         style="fill:context-stroke;fill-rule:evenodd;stroke:none"
         d="M 0,0 5,-5 -12.5,0 5,5 Z"
         id="arrow1L"
         transform="scale(-0.5)" />
    </marker>
    <rect
       x="203.42809"
       y="604.17804"
       width="24.752625"
       height="22.377439"
       id="rect2908" />
    <rect
       x="203.42809"
       y="604.17804"
       width="24.752625"
       height="22.377439"
       id="rect2908-9" />
    <rect
       x="203.42809"
       y="604.17804"
       width="24.752625"
       height="22.377439"
       id="rect2908-9-2" />
    <rect
       x="144.08414"
       y="542.76758"
       width="83.60643"
       height="23.938299"
       id="rect3070" />
    <rect
       x="144.08414"
       y="542.76758"
       width="56.804401"
       height="23.938299"
       id="rect3070-4" />
    <rect
       x="144.08414"
       y="542.76758"
       width="56.804401"
       height="23.938299"
       id="rect3070-4-9" />
    <rect
       x="50.038963"
       y="476.50732"
       width="68.903526"
       height="49.929348"
       id="rect3316" />
    <rect
       x="50.038963"
       y="476.50732"
       width="68.903526"
       height="49.929348"
       id="rect3399" />
    <rect
       x="50.038963"
       y="476.50732"
       width="68.903526"
       height="49.929348"
       id="rect3411" />
    <rect
       x="144.08414"
       y="542.76758"
       width="56.804401"
       height="23.938299"
       id="rect3070-4-9-0" />
    <clipPath
       id="clipPath1050">
      <path
         d="M 0,0 H 4 V 9.964844 H 0 Z m 0,0"
         id="path5260" />
    </clipPath>
    <clipPath
       id="clipPath6442">
      <path
         d="m 26,0 h 4 v 9.964844 h -4 z m 0,0"
         id="path978" />
    </clipPath>
    <clipPath
       id="clipPath6432">
      <path
         d="m 42,0 h 3 v 9.964844 h -3 z m 0,0"
         id="path5840" />
    </clipPath>
    <clipPath
       id="clipPath4501">
      <path
         d="m 67,0 h 3 v 9.964844 h -3 z m 0,0"
         id="path7039" />
    </clipPath>
    <clipPath
       id="clipPath7522">
      <path
         d="M 0,0 H 6.640625 V 5.535156 H 0 Z m 0,0"
         id="path3107" />
    </clipPath>
    <clipPath
       id="clipPath6897">
      <path
         d="M 0,1 H 6 V 5.535156 H 0 Z m 0,0"
         id="path1604" />
    </clipPath>
    <clipPath
       id="clipPath8736">
      <path
         d="m 8,0 h 6 V 5.535156 H 8 Z m 0,0"
         id="path4885" />
    </clipPath>
    <clipPath
       id="clipPath2067">
      <path
         d="m 17,1 h 6 v 4.535156 h -6 z m 0,0"
         id="path5278" />
    </clipPath>
    <clipPath
       id="clipPath1234">
      <path
         d="m 25,0 h 6 v 5.535156 h -6 z m 0,0"
         id="path1366" />
    </clipPath>
    <clipPath
       id="clipPath6011">
      <path
         d="m 33,1 h 5.722656 V 5.535156 H 33 Z m 0,0"
         id="path9476" />
    </clipPath>
  </defs>
  <g
     inkscape:label="Geruza 1"
     inkscape:groupmode="layer"
     id="layer1">
    <text
       xml:space="preserve"
       transform="matrix(0.26458333,0,0,0.26458333,22.652843,-10.873366)"
       id="text2906"
       style="font-style:normal;font-weight:normal;font-size:16px;line-height:1.25;font-family:sans-serif;letter-spacing:0px;word-spacing:0px;white-space:pre;shape-inside:url(#rect2908);display:inline;fill:#000000;fill-opacity:1;stroke:none" />
    <g
       id="g4940"
       inkscape:export-filename="tema3_absorcion_conjunto_2.png"
       inkscape:export-xdpi="96"
       inkscape:export-ydpi="96">
      <circle
         style="vector-effect:none;fill:#d35f5f;fill-opacity:0.998848;fill-rule:evenodd;stroke:#000000;stroke-width:0.0910521;stroke-linecap:butt;stroke-linejoin:miter;stroke-miterlimit:4;stroke-dasharray:none;stroke-dashoffset:0;stroke-opacity:0.971698"
         id="circle848-5"
         cx="106.11449"
         cy="156.92708"
         r="5.0820937" />
      <circle
         style="vector-effect:none;fill:#ff7f2a;fill-opacity:1;fill-rule:evenodd;stroke:#000000;stroke-width:0.0910521;stroke-linecap:butt;stroke-linejoin:miter;stroke-miterlimit:4;stroke-dasharray:none;stroke-dashoffset:0;stroke-opacity:0.971698"
         id="circle846-3"
         cx="99.82299"
         cy="143.50722"
         r="5.0820937" />
      <g
         id="g1886"
         transform="translate(8.9163299,-13.312861)">
        <circle
           style="opacity:1;vector-effect:none;fill:#362aff;fill-opacity:1;fill-rule:evenodd;stroke:#000000;stroke-width:0.190809;stroke-linecap:butt;stroke-linejoin:miter;stroke-miterlimit:4;stroke-dasharray:none;stroke-dashoffset:0;stroke-opacity:0.971698"
           id="circle1853"
           cx="16.830719"
           cy="164.79628"
           r="10.65006" />
        <circle
           style="opacity:1;vector-effect:none;fill:#362aff;fill-opacity:1;fill-rule:evenodd;stroke:#000000;stroke-width:0.190809;stroke-linecap:butt;stroke-linejoin:miter;stroke-miterlimit:4;stroke-dasharray:none;stroke-dashoffset:0;stroke-opacity:0.971698"
           id="path790"
           cx="16.830719"
           cy="164.79628"
           r="10.65006" />
        <circle
           style="opacity:1;vector-effect:none;fill:#d35f5f;fill-opacity:0.998848;fill-rule:evenodd;stroke:#000000;stroke-width:0.0910521;stroke-linecap:butt;stroke-linejoin:miter;stroke-miterlimit:4;stroke-dasharray:none;stroke-dashoffset:0;stroke-opacity:0.971698"
           id="circle848"
           cx="27.229561"
           cy="168.28027"
           r="5.0820937" />
        <circle
           style="opacity:1;vector-effect:none;fill:#ff7f2a;fill-opacity:1;fill-rule:evenodd;stroke:#000000;stroke-width:0.0910521;stroke-linecap:butt;stroke-linejoin:miter;stroke-miterlimit:4;stroke-dasharray:none;stroke-dashoffset:0;stroke-opacity:0.971698"
           id="circle846"
           cx="20.938065"
           cy="154.86041"
           r="5.0820937" />
      </g>
      <circle
         style="vector-effect:none;fill:#362aff;fill-opacity:1;fill-rule:evenodd;stroke:#000000;stroke-width:0.190809;stroke-linecap:butt;stroke-linejoin:miter;stroke-miterlimit:4;stroke-dasharray:none;stroke-dashoffset:0;stroke-opacity:0.971698"
         id="circle1874"
         cx="62.449532"
         cy="152.00182"
         r="10.65006" />
      <circle
         style="vector-effect:none;fill:#362aff;fill-opacity:1;fill-rule:evenodd;stroke:#000000;stroke-width:0.190809;stroke-linecap:butt;stroke-linejoin:miter;stroke-miterlimit:4;stroke-dasharray:none;stroke-dashoffset:0;stroke-opacity:0.971698"
         id="circle1876"
         cx="129.46408"
         cy="151.4834"
         r="10.65006" />
      <path
         style="fill:none;stroke:#000000;stroke-width:0.264583px;stroke-linecap:butt;stroke-linejoin:miter;stroke-opacity:1;marker-end:url(#Arrow1L)"
         d="m 41.870217,151.48339 c 6.556391,0 6.556391,0 6.556391,0"
         id="path1942" />
      <text
         xml:space="preserve"
         transform="matrix(0.26458333,0,0,0.26458333,58.684949,-10.792492)"
         id="text2906-6-5"
         style="font-style:normal;font-weight:normal;font-size:16px;line-height:1.25;font-family:sans-serif;letter-spacing:0px;word-spacing:0px;white-space:pre;shape-inside:url(#rect2908-9-2);display:inline;fill:#000000;fill-opacity:1;stroke:none"><tspan
           x="203.42773"
           y="618.33398"
           id="tspan5200">=</tspan></text>
      <text
         xml:space="preserve"
         transform="matrix(0.26458333,0,0,0.26458333,51.133601,-12.053289)"
         id="text3068"
         style="font-style:normal;font-weight:normal;font-size:16px;line-height:1.25;font-family:sans-serif;letter-spacing:0px;word-spacing:0px;white-space:pre;shape-inside:url(#rect3070);display:inline;fill:#000000;fill-opacity:1;stroke:none"><tspan
           x="144.08398"
           y="556.92383"
           id="tspan5202">x+u+v</tspan></text>
      <text
         xml:space="preserve"
         transform="matrix(0.26458333,0,0,0.26458333,22.606064,-12.49428)"
         id="text3068-4"
         style="font-style:normal;font-weight:normal;font-size:16px;line-height:1.25;font-family:sans-serif;letter-spacing:0px;word-spacing:0px;white-space:pre;shape-inside:url(#rect3070-4);display:inline;fill:#000000;fill-opacity:1;stroke:none"><tspan
           x="144.08398"
           y="556.92383"
           id="tspan5204">x</tspan></text>
      <text
         xml:space="preserve"
         transform="matrix(0.26458333,0,0,0.26458333,4.3453303,4.910837)"
         id="text3314"
         style="font-style:normal;font-weight:normal;font-size:16px;line-height:1.25;font-family:sans-serif;letter-spacing:0px;word-spacing:0px;white-space:pre;shape-inside:url(#rect3316);display:inline;fill:#362aff;fill-opacity:1;stroke:none"><tspan
           x="50.039062"
           y="490.66406"
           id="tspan5206">x</tspan></text>
      <text
         xml:space="preserve"
         transform="matrix(0.26458333,0,0,0.26458333,10.468328,4.910837)"
         id="text3397"
         style="font-style:normal;font-weight:normal;font-size:16px;line-height:1.25;font-family:sans-serif;letter-spacing:0px;word-spacing:0px;white-space:pre;shape-inside:url(#rect3399);display:inline;fill:#ff7f2a;fill-opacity:1;stroke:none"><tspan
           x="50.039062"
           y="490.66406"
           id="tspan5208">u</tspan></text>
      <text
         xml:space="preserve"
         transform="matrix(0.26458333,0,0,0.26458333,16.925454,4.910837)"
         id="text3409"
         style="font-style:normal;font-weight:normal;font-size:16px;line-height:1.25;font-family:sans-serif;letter-spacing:0px;word-spacing:0px;white-space:pre;shape-inside:url(#rect3411);display:inline;fill:#d35f5f;fill-opacity:1;stroke:none"><tspan
           x="50.039062"
           y="490.66406"
           id="tspan5210">v</tspan></text>
      <text
         xml:space="preserve"
         transform="matrix(0.26458333,0,0,0.26458333,88.030459,-12.620395)"
         id="text3068-4-9-5"
         style="font-style:normal;font-weight:normal;font-size:16px;line-height:1.25;font-family:sans-serif;letter-spacing:0px;word-spacing:0px;white-space:pre;shape-inside:url(#rect3070-4-9-0);display:inline;fill:#000000;fill-opacity:1;stroke:none"><tspan
           x="144.08398"
           y="556.92383"
           id="tspan5212">x</tspan></text>
      <g
         inkscape:label=""
         transform="translate(113.473, 102.786)"
         id="g970">
        <g
           inkscape:label=""
           transform="translate(-23.675435,25.387477)"
           id="g4720">
          <g
             id="surface1"
             transform="matrix(0.352778,0,0,0.352778,-0.104731,0.153017)">
            <g
               clip-path="url(#clipPath6897)"
               clip-rule="nonzero"
               id="g43">
              <g
                 style="fill:#000000;fill-opacity:1"
                 id="g41">
                <g
                   id="use39"
                   transform="translate(0,5.5349998)">
                  <path
                     style="stroke:none"
                     d="M 3.328125,-3.015625 C 3.390625,-3.265625 3.625,-4.1875 4.3125,-4.1875 c 0.046875,0 0.296875,0 0.5,0.125 C 4.53125,-4 4.34375,-3.765625 4.34375,-3.515625 c 0,0.15625 0.109375,0.34375 0.375,0.34375 0.21875,0 0.53125,-0.171875 0.53125,-0.578125 0,-0.515625 -0.578125,-0.65625 -0.921875,-0.65625 -0.578125,0 -0.921875,0.53125 -1.046875,0.75 -0.25,-0.65625 -0.78125,-0.75 -1.078125,-0.75 -1.03125,0 -1.609375,1.28125 -1.609375,1.53125 0,0.109375 0.109375,0.109375 0.125,0.109375 0.078125,0 0.109375,-0.03125 0.125,-0.109375 0.34375,-1.0625 1,-1.3125 1.34375,-1.3125 0.1875,0 0.53125,0.09375 0.53125,0.671875 0,0.3125 -0.171875,0.96875 -0.53125,2.375 -0.15625,0.609375 -0.515625,1.03125 -0.953125,1.03125 -0.0625,0 -0.28125,0 -0.5,-0.125 0.25,-0.0625 0.46875,-0.265625 0.46875,-0.546875 0,-0.265625 -0.21875,-0.34375 -0.359375,-0.34375 -0.3125,0 -0.546875,0.25 -0.546875,0.578125 0,0.453125 0.484375,0.65625 0.921875,0.65625 0.671875,0 1.03125,-0.703125 1.046875,-0.75 0.125,0.359375 0.484375,0.75 1.078125,0.75 1.03125,0 1.59375,-1.28125 1.59375,-1.53125 0,-0.109375 -0.078125,-0.109375 -0.109375,-0.109375 -0.09375,0 -0.109375,0.046875 -0.140625,0.109375 -0.328125,1.078125 -1,1.3125 -1.3125,1.3125 -0.390625,0 -0.546875,-0.3125 -0.546875,-0.65625 0,-0.21875 0.046875,-0.4375 0.15625,-0.875 z m 0,0"
                     id="path74" />
                </g>
              </g>
            </g>
            <g
               clip-path="url(#clipPath8736)"
               clip-rule="nonzero"
               id="g49">
              <g
                 style="fill:#000000;fill-opacity:1"
                 id="g47">
                <g
                   id="use45"
                   transform="translate(7.908,5.5349998)">
                  <path
                     style="stroke:none"
                     d="m 6.09375,-5.609375 c 0,-0.171875 0,-0.359375 -0.203125,-0.359375 -0.203125,0 -0.203125,0.1875 -0.203125,0.359375 V -2 c 0,1.5 -1.625,1.828125 -2.375,1.828125 -0.4375,0 -1.0625,-0.09375 -1.59375,-0.4375 C 0.953125,-1.09375 0.953125,-1.734375 0.953125,-2 v -3.609375 c 0,-0.171875 0,-0.359375 -0.203125,-0.359375 -0.203125,0 -0.203125,0.1875 -0.203125,0.359375 v 3.65625 c 0,1.515625 1.53125,2.171875 2.765625,2.171875 1.296875,0 2.78125,-0.703125 2.78125,-2.15625 z m 0,0"
                     id="path78" />
                </g>
              </g>
            </g>
            <g
               clip-path="url(#clipPath2067)"
               clip-rule="nonzero"
               id="g55">
              <g
                 style="fill:#000000;fill-opacity:1"
                 id="g53">
                <g
                   id="use51"
                   transform="translate(16.763,5.5349998)">
                  <path
                     style="stroke:none"
                     d="M 3.484375,-0.5625 C 3.59375,-0.15625 3.953125,0.109375 4.375,0.109375 4.71875,0.109375 4.953125,-0.125 5.109375,-0.4375 5.28125,-0.796875 5.40625,-1.40625 5.40625,-1.421875 c 0,-0.109375 -0.078125,-0.109375 -0.109375,-0.109375 -0.109375,0 -0.109375,0.046875 -0.140625,0.1875 -0.140625,0.5625 -0.328125,1.234375 -0.75,1.234375 -0.203125,0 -0.3125,-0.125 -0.3125,-0.453125 0,-0.21875 0.125,-0.6875 0.203125,-1.046875 L 4.578125,-2.6875 C 4.609375,-2.828125 4.703125,-3.203125 4.75,-3.359375 4.796875,-3.59375 4.890625,-3.96875 4.890625,-4.03125 c 0,-0.171875 -0.140625,-0.265625 -0.28125,-0.265625 -0.046875,0 -0.3125,0.015625 -0.390625,0.34375 -0.1875,0.734375 -0.625,2.484375 -0.75,3 -0.015625,0.046875 -0.40625,0.84375 -1.140625,0.84375 -0.515625,0 -0.609375,-0.453125 -0.609375,-0.8125 0,-0.5625 0.28125,-1.34375 0.53125,-2.03125 0.125,-0.3125 0.171875,-0.453125 0.171875,-0.640625 0,-0.4375 -0.3125,-0.8125 -0.8125,-0.8125 -0.953125,0 -1.3125,1.453125 -1.3125,1.53125 0,0.109375 0.09375,0.109375 0.109375,0.109375 0.109375,0 0.109375,-0.03125 0.15625,-0.1875 0.25,-0.859375 0.640625,-1.234375 1.015625,-1.234375 0.09375,0 0.25,0.015625 0.25,0.328125 0,0.234375 -0.109375,0.53125 -0.171875,0.671875 -0.375,1 -0.578125,1.609375 -0.578125,2.09375 0,0.953125 0.6875,1.203125 1.21875,1.203125 0.65625,0 1.015625,-0.453125 1.1875,-0.671875 z m 0,0"
                     id="path82" />
                </g>
              </g>
            </g>
            <g
               clip-path="url(#clipPath1234)"
               clip-rule="nonzero"
               id="g61">
              <g
                 style="fill:#000000;fill-opacity:1"
                 id="g59">
                <g
                   id="use57"
                   transform="translate(24.68,5.5349998)">
                  <path
                     style="stroke:none"
                     d="m 6.09375,-5.609375 c 0,-0.171875 0,-0.359375 -0.203125,-0.359375 -0.203125,0 -0.203125,0.1875 -0.203125,0.359375 V -2 c 0,1.5 -1.625,1.828125 -2.375,1.828125 -0.4375,0 -1.0625,-0.09375 -1.59375,-0.4375 C 0.953125,-1.09375 0.953125,-1.734375 0.953125,-2 v -3.609375 c 0,-0.171875 0,-0.359375 -0.203125,-0.359375 -0.203125,0 -0.203125,0.1875 -0.203125,0.359375 v 3.65625 c 0,1.515625 1.53125,2.171875 2.765625,2.171875 1.296875,0 2.78125,-0.703125 2.78125,-2.15625 z m 0,0"
                     id="path86" />
                </g>
              </g>
            </g>
            <g
               clip-path="url(#clipPath6011)"
               clip-rule="nonzero"
               id="g67">
              <g
                 style="fill:#000000;fill-opacity:1"
                 id="g65">
                <g
                   id="use63"
                   transform="translate(33.535999,5.5349998)">
                  <path
                     style="stroke:none"
                     d="m 4.671875,-3.703125 c 0,-0.546875 -0.265625,-0.703125 -0.4375,-0.703125 -0.25,0 -0.5,0.265625 -0.5,0.484375 0,0.125 0.046875,0.1875 0.15625,0.296875 0.21875,0.203125 0.34375,0.453125 0.34375,0.8125 0,0.421875 -0.609375,2.703125 -1.765625,2.703125 -0.515625,0 -0.75,-0.34375 -0.75,-0.875 0,-0.546875 0.28125,-1.28125 0.578125,-2.109375 0.078125,-0.171875 0.125,-0.3125 0.125,-0.5 0,-0.4375 -0.3125,-0.8125 -0.8125,-0.8125 -0.9375,0 -1.3125,1.453125 -1.3125,1.53125 0,0.109375 0.09375,0.109375 0.109375,0.109375 0.109375,0 0.109375,-0.03125 0.15625,-0.1875 0.296875,-1 0.71875,-1.234375 1.015625,-1.234375 0.078125,0 0.25,0 0.25,0.3125 0,0.25 -0.109375,0.53125 -0.171875,0.703125 -0.4375,1.15625 -0.5625,1.609375 -0.5625,2.046875 0,1.078125 0.875,1.234375 1.328125,1.234375 1.671875,0 2.25,-3.296875 2.25,-3.8125 z m 0,0"
                     id="path90" />
                </g>
              </g>
            </g>
          </g>
        </g>
      </g>
      <circle
         style="vector-effect:none;fill:#362aff;fill-opacity:1;fill-rule:evenodd;stroke:#000000;stroke-width:0.190809;stroke-linecap:butt;stroke-linejoin:miter;stroke-miterlimit:4;stroke-dasharray:none;stroke-dashoffset:0;stroke-opacity:0.971698"
         id="circle1853-6"
         cx="95.715645"
         cy="153.44308"
         r="10.65006" />
      <circle
         style="vector-effect:none;fill:#362aff;fill-opacity:1;fill-rule:evenodd;stroke:#000000;stroke-width:0.190809;stroke-linecap:butt;stroke-linejoin:miter;stroke-miterlimit:4;stroke-dasharray:none;stroke-dashoffset:0;stroke-opacity:0.971698"
         id="path790-7"
         cx="95.715645"
         cy="153.44308"
         r="10.65006" />
      <g
         inkscape:label=""
         transform="matrix(2.6824373,0,0,2.6824373,76.301736,149.01591)"
         id="g4541">
        <g
           id="g4729"
           transform="matrix(0.352778,0,0,0.352778,-0.192925,0.153017)">
          <g
             clip-path="url(#clipPath7522)"
             clip-rule="nonzero"
             id="g19">
            <g
               style="fill:#000000;fill-opacity:1"
               id="g17">
              <g
                 id="use15"
                 transform="translate(0,5.5349998)">
                <path
                   style="stroke:none"
                   d="m 6.09375,-3.78125 c 0,-1.515625 -1.53125,-2.1875 -2.78125,-2.1875 -1.28125,0 -2.765625,0.703125 -2.765625,2.171875 v 3.65625 c 0,0.1875 0,0.359375 0.203125,0.359375 0.203125,0 0.203125,-0.171875 0.203125,-0.359375 V -3.75 c 0,-1.5 1.625,-1.8125 2.359375,-1.8125 0.453125,0 1.078125,0.09375 1.609375,0.421875 C 5.6875,-4.640625 5.6875,-4 5.6875,-3.734375 v 3.59375 c 0,0.1875 0,0.359375 0.203125,0.359375 0.203125,0 0.203125,-0.171875 0.203125,-0.359375 z m 0,0"
                   id="path26" />
              </g>
            </g>
          </g>
        </g>
      </g>
    </g>
  </g>
</svg>
