<?xml version="1.0" encoding="UTF-8" standalone="no"?>
<!-- Created with Inkscape (http://www.inkscape.org/) -->

<svg
   width="154.25691mm"
   height="63.060387mm"
   viewBox="0 0 154.25691 63.060387"
   version="1.1"
   id="svg1737"
   inkscape:version="1.2.2 (1:1.2.2+202212051550+b0a8486541)"
   sodipodi:docname="tema9_CMOS_inverter.svg"
   xmlns:inkscape="http://www.inkscape.org/namespaces/inkscape"
   xmlns:sodipodi="http://sodipodi.sourceforge.net/DTD/sodipodi-0.dtd"
   xmlns="http://www.w3.org/2000/svg"
   xmlns:svg="http://www.w3.org/2000/svg">
  <sodipodi:namedview
     id="namedview1739"
     pagecolor="#ffffff"
     bordercolor="#666666"
     borderopacity="1.0"
     inkscape:showpageshadow="2"
     inkscape:pageopacity="0.0"
     inkscape:pagecheckerboard="0"
     inkscape:deskcolor="#d1d1d1"
     inkscape:document-units="mm"
     showgrid="false"
     inkscape:zoom="1.4690675"
     inkscape:cx="301.55184"
     inkscape:cy="183.44971"
     inkscape:window-width="1320"
     inkscape:window-height="704"
     inkscape:window-x="46"
     inkscape:window-y="27"
     inkscape:window-maximized="1"
     inkscape:current-layer="layer1" />
  <defs
     id="defs1734">
    <rect
       x="175.34137"
       y="72.928482"
       width="52.010967"
       height="19.458824"
       id="rect499" />
    <rect
       x="175.34137"
       y="72.928482"
       width="47.250286"
       height="18.581856"
       id="rect385" />
    <rect
       x="175.34137"
       y="72.928482"
       width="47.250286"
       height="18.581856"
       id="rect327" />
  </defs>
  <g
     inkscape:label="Geruza 1"
     inkscape:groupmode="layer"
     id="layer1"
     transform="translate(59.838578,-83.015262)">
    <g
       fill="none"
       stroke="#000000"
       stroke-width="2"
       id="g24"
       transform="matrix(0.26458333,0,0,0.26458333,-68.908476,81.304755)">
      <path
         d="M 55,25.5 H 230.2"
         id="path2" />
      <path
         d="M 55,225.5 H 230.2"
         id="path4" />
      <path
         d="m 155,25.5 v 45 h -15 v 30 h 15 v 50 h -15 v 30 h 15 v 45"
         id="path6" />
      <path
         d="m 155,125.5 h 50"
         id="path8" />
      <path
         d="m 133,69.5 v 32"
         id="path10" />
      <path
         d="m 133,149.5 v 32"
         id="path12" />
      <path
         d="M 125.6,85.5 H 98 v 80 h 35"
         id="path14" />
      <path
         d="M 98,125.5 H 53"
         id="path16" />
      <circle
         cx="129.10001"
         cy="85.5"
         r="3.5"
         id="circle18" />
      <path
         stroke-width="2.3"
         d="M 140,144.7 V 188"
         id="path20" />
      <path
         stroke-width="2.3"
         d="m 140,63.3 v 43.3"
         id="path22" />
    </g>
    <circle
       cx="-27.89806"
       cy="140.96829"
       r="0.66145831"
       id="circle26"
       style="stroke-width:0.264583" />
    <circle
       cx="-27.89806"
       cy="114.50996"
       r="0.66145831"
       id="circle28"
       style="stroke-width:0.264583" />
    <circle
       cx="-42.979309"
       cy="114.50996"
       r="0.66145831"
       id="circle30"
       style="stroke-width:0.264583" />
    <circle
       cx="-27.89806"
       cy="88.051628"
       r="0.66145831"
       id="circle32"
       style="stroke-width:0.264583" />
    <g
       font-family="'Bitstream Vera Sans'"
       font-size="24px"
       id="g38"
       transform="matrix(0.26458333,0,0,0.26458333,44.075869,81.476393)">
      <path
         id="A"
         d="m -377.04752,132.9 h -2.4 l -1.7,-4.9 h -7.6 l -1.7,4.9 h -2.3 l 6.3,-17.4 h 3.1 l 6.3,17.4 m -4.9,-6.8 -3,-8.6 -3.1,8.6 h 6.1" />
      <path
         id="Q"
         d="m -200.04509,137.0803 c -0.5,0.2 -0.9,0.2 -1.4,0.3 -0.4,0 -0.9,0.1 -1.4,0.1 -1.3,0 -2.4,-0.4 -3.3,-1.1 -0.8,-0.8 -1.2,-1.9 -1.3,-3.2 -0.2,0 -0.4,0 -0.6,0 -0.1,0 -0.3,0 -0.5,0 -1.2,0 -2.3,-0.2 -3.3,-0.6 -1,-0.4 -1.9,-1 -2.6,-1.7 -0.7,-0.8 -1.2,-1.8 -1.6,-2.9 -0.4,-1.1 -0.6,-2.4 -0.6,-3.8 0,-1.5 0.2,-2.7 0.6,-3.9 0.4,-1.1 0.9,-2.1 1.6,-2.9 0.7,-0.7 1.6,-1.3 2.6,-1.7 1,-0.4 2.1,-0.6 3.3,-0.6 1.3,0 2.4,0.2 3.4,0.6 1,0.4 1.9,1 2.5,1.7 0.8,0.8 1.3,1.8 1.7,2.9 0.4,1.1 0.6,2.4 0.6,3.9 0,2.1 -0.5,3.9 -1.4,5.3 -0.8,1.5 -2,2.5 -3.5,3.1 0.1,0.9 0.3,1.6 0.7,2.1 0.4,0.5 1.1,0.7 2.1,0.7 0.3,0 0.7,0 1.1,-0.1 0.5,-0.1 0.8,-0.2 1,-0.3 h 0.3 v 2.1 m -2.8,-12.9 c 0,-2.3 -0.5,-4.1 -1.5,-5.3 -1,-1.2 -2.4,-1.8 -4.1,-1.8 -1.8,0 -3.2,0.6 -4.2,1.8 -1,1.2 -1.5,3 -1.5,5.3 0,2.2 0.5,4 1.5,5.2 1,1.2 2.4,1.8 4.2,1.8 1.7,0 3.1,-0.6 4.1,-1.8 1,-1.2 1.5,-3 1.5,-5.2" />
      <text
         xml:space="preserve"
         style="font-style:normal;font-weight:normal;font-size:16px;line-height:1.25;font-family:sans-serif;letter-spacing:0px;word-spacing:0px;fill:#000000;fill-opacity:1;stroke:none"
         x="-108.56518"
         y="120.84772"
         id="text940"><tspan
           sodipodi:role="line"
           id="tspan938"
           x="-108.56518"
           y="120.84772">Vss</tspan></text>
      <text
         xml:space="preserve"
         style="font-style:normal;font-weight:normal;font-size:16px;line-height:1.25;font-family:sans-serif;letter-spacing:0px;word-spacing:0px;fill:#000000;fill-opacity:1;stroke:none"
         x="-7.6553078"
         y="120.40824"
         id="text944"><tspan
           sodipodi:role="line"
           id="tspan942"
           x="-7.6553078"
           y="120.40824">Vdd</tspan></text>
      <text
         xml:space="preserve"
         style="font-style:normal;font-weight:normal;font-size:16px;line-height:1.25;font-family:sans-serif;letter-spacing:0px;word-spacing:0px;fill:#000000;fill-opacity:1;stroke:none"
         x="62.344692"
         y="120.40824"
         id="text948"><tspan
           sodipodi:role="line"
           id="tspan946"
           x="62.344692"
           y="120.40824">Vdd</tspan></text>
      <text
         xml:space="preserve"
         style="font-style:normal;font-weight:normal;font-size:16px;line-height:1.25;font-family:sans-serif;letter-spacing:0px;word-spacing:0px;fill:#000000;fill-opacity:1;stroke:none"
         x="163.43481"
         y="120.84772"
         id="text952"><tspan
           sodipodi:role="line"
           id="tspan950"
           x="163.43481"
           y="120.84772">Vss</tspan></text>
      <text
         xml:space="preserve"
         style="font-style:normal;font-weight:normal;font-size:16px;line-height:1.25;font-family:sans-serif;letter-spacing:0px;word-spacing:0px;fill:#000000;fill-opacity:1;stroke:none"
         x="-288.53925"
         y="17.972446"
         id="text956"><tspan
           sodipodi:role="line"
           id="tspan954"
           x="-288.53925"
           y="17.972446">Vdd -&gt; +10V</tspan></text>
      <text
         xml:space="preserve"
         style="font-style:normal;font-weight:normal;font-size:16px;line-height:1.25;font-family:sans-serif;letter-spacing:0px;word-spacing:0px;fill:#000000;fill-opacity:1;stroke:none"
         x="-286.07431"
         y="243.9281"
         id="text960"><tspan
           sodipodi:role="line"
           id="tspan958"
           x="-286.07431"
           y="243.9281">Vss -&gt; 0V</tspan></text>
    </g>
    <text
       xml:space="preserve"
       id="text325"
       style="font-style:normal;font-weight:normal;font-size:16px;line-height:1.25;font-family:sans-serif;letter-spacing:0px;word-spacing:0px;white-space:pre;shape-inside:url(#rect327);display:inline;fill:#000000;fill-opacity:1;stroke:none"
       transform="matrix(0.26458333,0,0,0.26458333,-72.093774,82.473442)"><tspan
         x="175.3418"
         y="87.083984"
         id="tspan2362">PMOS</tspan></text>
    <text
       xml:space="preserve"
       id="text383"
       style="font-style:normal;font-weight:normal;font-size:16px;line-height:1.25;font-family:sans-serif;letter-spacing:0px;word-spacing:0px;white-space:pre;shape-inside:url(#rect385);display:inline;fill:#000000;fill-opacity:1;stroke:none"
       transform="matrix(0.26458333,0,0,0.26458333,40.987417,103.19395)"><tspan
         x="175.3418"
         y="105.66602"
         id="tspan2366"><tspan
           dx="0 11.96875 13.804688 12.59375"
           id="tspan2364">NMOS</tspan></tspan></text>
    <text
       xml:space="preserve"
       id="text497"
       style="font-style:normal;font-weight:normal;font-size:16px;line-height:1.25;font-family:sans-serif;letter-spacing:0px;word-spacing:0px;white-space:pre;shape-inside:url(#rect499);display:inline;fill:#000000;fill-opacity:1;stroke:none"
       transform="matrix(0.26458333,0,0,0.26458333,-72.093774,103.64011)"><tspan
         x="175.3418"
         y="87.083984"
         id="tspan2368">NMOS</tspan></text>
    <circle
       cx="-27.89806"
       cy="140.96829"
       r="0.66145831"
       id="circle608"
       style="stroke-width:0.264583" />
    <circle
       cx="-27.89806"
       cy="114.50996"
       r="0.66145831"
       id="circle610"
       style="stroke-width:0.264583" />
    <circle
       cx="-42.979309"
       cy="114.50996"
       r="0.66145831"
       id="circle612"
       style="stroke-width:0.264583" />
    <path
       d="M 33.500015,88.05163 H 44.450601"
       id="path614"
       style="fill:none;stroke:#000000;stroke-width:0.257195" />
    <path
       d="M 32.1715,140.9683 H 44.432752"
       id="path616"
       style="fill:none;stroke:#000000;stroke-width:0.272153" />
    <path
       d="m 33.929471,107.87059 4.318302,0.0248 v 13.22916 h -3.96875 m 0,7.9375 h 3.96875 v 11.90625 m 0,-52.916663 v 11.90625 h -3.96875 v 7.597673"
       id="path618"
       style="fill:none;stroke:#000000;stroke-width:0.529167"
       sodipodi:nodetypes="cccccccccc" />
    <path
       d="m 38.247773,114.37781 h 6.621698"
       id="path620"
       style="fill:none;stroke:#000000;stroke-width:0.374377" />
    <path
       d="m 31.046021,104.02331 0.01744,-0.0967 h -3.663593 v 21.16667 h 3.818996"
       id="path626"
       style="fill:none;stroke:#000000;stroke-width:0.529167"
       sodipodi:nodetypes="ccccc" />
    <path
       d="M 27.399856,114.50996 H 22.535989"
       id="path628"
       style="fill:none;stroke:#000000;stroke-width:0.338217" />
    <path
       d="M 76.362515,88.05163 H 87.3131"
       id="path854"
       style="fill:none;stroke:#000000;stroke-width:0.257195" />
    <path
       d="M 75.033999,140.9683 H 87.295251"
       id="path856"
       style="fill:none;stroke:#000000;stroke-width:0.272153" />
    <path
       d="m 76.791971,107.87059 4.318301,0.0248 v 13.22916 h -3.96875 m 3.96875,-33.072913 v 11.90625 h -4.497917 m 4.497917,41.010413 v -11.90625 h -3.96875 v -7.9375"
       id="path858"
       style="fill:none;stroke:#000000;stroke-width:0.529167"
       sodipodi:nodetypes="cccccccccc" />
    <path
       d="M 81.110272,114.37781 H 87.73197"
       id="path860"
       style="fill:none;stroke:#000000;stroke-width:0.374377" />
    <path
       d="m 73.90852,104.02331 0.01744,-0.0967 h -3.663593 v 21.16667 h 3.818996"
       id="path862"
       style="fill:none;stroke:#000000;stroke-width:0.529167"
       sodipodi:nodetypes="ccccc" />
    <path
       d="M 70.262356,114.50996 H 65.398488"
       id="path864"
       style="fill:none;stroke:#000000;stroke-width:0.338217" />
  </g>
</svg>
