<?xml version="1.0" encoding="UTF-8" standalone="no"?>
<svg
   viewBox="0 0 292.42734 243.13551"
   version="1.1"
   id="svg1955"
   sodipodi:docname="tema9_mosfet_fg_bias.svg"
   width="292.42734"
   height="243.13551"
   inkscape:version="1.2.2 (1:1.2.2+202212051550+b0a8486541)"
   xmlns:inkscape="http://www.inkscape.org/namespaces/inkscape"
   xmlns:sodipodi="http://sodipodi.sourceforge.net/DTD/sodipodi-0.dtd"
   xmlns="http://www.w3.org/2000/svg"
   xmlns:svg="http://www.w3.org/2000/svg">
  <sodipodi:namedview
     id="namedview1957"
     pagecolor="#ffffff"
     bordercolor="#666666"
     borderopacity="1.0"
     inkscape:showpageshadow="2"
     inkscape:pageopacity="0.0"
     inkscape:pagecheckerboard="0"
     inkscape:deskcolor="#d1d1d1"
     showgrid="false"
     inkscape:zoom="1.408377"
     inkscape:cx="354.30855"
     inkscape:cy="240.34758"
     inkscape:window-width="1320"
     inkscape:window-height="704"
     inkscape:window-x="46"
     inkscape:window-y="27"
     inkscape:window-maximized="1"
     inkscape:current-layer="svg1955" />
  <defs
     id="defs1861">
    <pattern
       id="a"
       width="6"
       patternUnits="userSpaceOnUse"
       height="6">
      <path
         d="m0 0h6v6h-6z"
         fill="#eee"
         id="path1856" />
      <circle
         cx="4"
         cy="4"
         r="1.2"
         id="circle1858" />
    </pattern>
  </defs>
  <g
     stroke="#000000"
     stroke-width="2"
     id="g1875"
     transform="matrix(0.67006102,0,0,0.67006102,-3.2497959,-8.308364)">
    <g
       stroke-width="3.5"
       id="g1867">
      <path
         d="m 25,215 c 0,0 -9.1,6.95 -9.1,16.95 0,10 7.211,13.85 7.211,22.35 h 122.4 V 215 Z m 354,0 c 0,0 17.2,9.8 17.2,17 0,9.9 -16.5,16.09 -16.5,22.39 H 258.4 V 215 Z"
         fill="#eeeeee"
         id="path1863" />
      <path
         fill="url(#a)"
         d="m 221,195 h 58.8 V 179.8 H 221 Z m -50.2,-0.4948 69,-69.01 h 39 v -19.9 h -49.9 l -69,70 h -37.82 v 18.91 z m 206.2,179 H 23 c 0,0 -16.4,-18.6 -16.4,-37.6 0,-19.9 23,-22 24,-36.8 0.8,-14.9 -19.9,-10.4 -19.9,-21.6 0,-11.3 12.4,-14.7 12.4,-23.5 h 85 c 16.9,0 33,-19.01 33,-39 h 119 c 0,16.99 15.9,39 35.4,39 h 84 c 0.3,13.3 20.9,12.8 20.4,27.6 -0.5,14.9 -21.6,18 -21.6,32.7 0,15 6.8,10.9 6.8,23 0,11 -15.5,9.6 -15.5,18.4 0,8.7 8.6,17.8 8.6,17.8 z"
         id="path1865" />
    </g>
    <path
       d="m 269,169 5.2,6.1 -10.1,3.3 z"
       id="path1869" />
    <path
       d="m 281,201 v 8 l -9.8,-4 z"
       id="path1871" />
    <path
       fill="none"
       d="m 281.6,205 h 25 c 7,0 13.6,-4 21.9,-12.4 l 79.9,-76 M 313,137 271,172.7 M 261,79 v 31.5 M 73,176 c -6.6,12.6 -0.6,31 2.2,45.9 M 391,232 c 14.8,-1.2 22,4.5 26.3,10.9"
       id="path1873" />
  </g>
  <g
     style="font-weight:bold;font-size:17px;font-family:Arial, sans-serif;text-anchor:middle"
     id="g1947"
     transform="matrix(0.67006102,0,0,0.67006102,-3.2497959,-8.308364)">
    <g
       font-size="19px"
       transform="translate(229,26)"
       id="g1887">
      <switch
         id="switch1885">
        <text
           systemLanguage="de"
           id="text1877">Löschen durch Tunneln</text>
        <text
           systemLanguage="ru"
           id="text1879">Стирание через туннельный эффект</text>
        <text
           systemLanguage="fr"
           id="text1881">Effacement par effet tunnel</text>
        <text
           id="text1883">Erasure via tunneling</text>
      </switch>
    </g>
    <g
       font-size="18px"
       transform="translate(75,240)"
       id="g1899">
      <switch
         id="switch1897">
        <text
           systemLanguage="ru"
           id="text1891">Исток<tspan
   x="256"
   id="tspan1889">Сток</tspan></text>
        <text
           id="text1895">SOURCE<tspan
   x="256"
   id="tspan1893">DRAIN</tspan></text>
      </switch>
    </g>
    <switch
       id="switch1925">
      <text
         systemLanguage="de"
         id="text1905"><tspan
           y="126"
           x="339"
           id="tspan1901">Floating-</tspan><tspan
           y="143"
           x="339"
           id="tspan1903">Gate</tspan></text>
      <text
         systemLanguage="fr"
         id="text1911"><tspan
           y="113"
           x="339"
           id="tspan1907">Grille</tspan><tspan
           y="131"
           x="339"
           id="tspan1909">Flottante</tspan></text>
      <text
         systemLanguage="ru"
         font-size="15px"
         id="text1917"><tspan
           y="126"
           x="339"
           id="tspan1913">плавающий</tspan><tspan
           y="143"
           x="339"
           id="tspan1915">затвор</tspan></text>
      <text
         id="text1923"><tspan
           y="126"
           x="339"
           id="tspan1919">floating</tspan><tspan
           y="143"
           x="339"
           id="tspan1921">gate</tspan></text>
    </switch>
    <switch
       id="switch1935">
      <text
         y="153"
         x="73"
         systemLanguage="de"
         id="text1927">offen</text>
      <text
         y="153"
         x="73"
         systemLanguage="ru"
         font-size="16px"
         id="text1929">открыт</text>
      <text
         y="153"
         x="73"
         systemLanguage="fr"
         id="text1931">ouvert</text>
      <text
         y="153"
         x="73"
         id="text1933">open</text>
    </switch>
    <text
       y="271"
       x="423.79999"
       id="text1937">12 V</text>
    <text
       y="56"
       x="259"
       id="text1939">0 V</text>
    <text
       y="112"
       x="402"
       id="text1941">200</text>
    <text
       y="112"
       x="428"
       id="text1943">A</text>
    <text
       y="109"
       x="428"
       font-size="20px"
       id="text1945">°</text>
  </g>
  <circle
     cx="277.10373"
     cy="155.38754"
     r="3.5513237"
     id="circle1949"
     style="stroke-width:0.670061" />
  <circle
     cx="171.63612"
     cy="42.314747"
     r="3.5513237"
     id="circle1951"
     style="stroke-width:0.670061" />
  <circle
     cx="45.785271"
     cy="108.55026"
     r="3.5513237"
     id="circle1953"
     style="stroke-width:0.670061" />
</svg>
