<?xml version="1.0" encoding="UTF-8" standalone="no"?>
<!-- Created with Inkscape (http://www.inkscape.org/) -->
<svg
   xmlns:dc="http://purl.org/dc/elements/1.1/"
   xmlns:cc="http://web.resource.org/cc/"
   xmlns:rdf="http://www.w3.org/1999/02/22-rdf-syntax-ns#"
   xmlns:svg="http://www.w3.org/2000/svg"
   xmlns="http://www.w3.org/2000/svg"
   xmlns:sodipodi="http://sodipodi.sourceforge.net/DTD/sodipodi-0.dtd"
   xmlns:inkscape="http://www.inkscape.org/namespaces/inkscape"
   width="1112.2812"
   height="929.5885"
   id="svg2"
   sodipodi:version="0.32"
   inkscape:version="0.45"
   version="1.0"
   sodipodi:docbase="/home/oalexandrov/diverse/wiki"
   sodipodi:docname="Mask_illustration.svg"
   inkscape:output_extension="org.inkscape.output.svg.inkscape"
   sodipodi:modified="true">
  <defs
     id="defs4">
    <marker
       inkscape:stockid="Arrow2Lend"
       orient="auto"
       refY="0.0"
       refX="0.0"
       id="Arrow2Lend"
       style="overflow:visible;">
      <path
         id="path3371"
         style="font-size:12.0;fill-rule:evenodd;stroke-width:0.62500000;stroke-linejoin:round;"
         d="M 8.7185878,4.0337352 L -2.2072895,0.016013256 L 8.7185884,-4.0017078 C 6.9730900,-1.6296469 6.9831476,1.6157441 8.7185878,4.0337352 z "
         transform="scale(1.1) rotate(180) translate(1,0)" />
    </marker>
    <marker
       inkscape:stockid="Arrow1Lend"
       orient="auto"
       refY="0.0"
       refX="0.0"
       id="Arrow1Lend"
       style="overflow:visible;">
      <path
         id="path3156"
         d="M 0.0,0.0 L 5.0,-5.0 L -12.5,0.0 L 5.0,5.0 L 0.0,0.0 z "
         style="fill-rule:evenodd;stroke:#000000;stroke-width:1.0pt;marker-start:none;"
         transform="scale(0.8) rotate(180) translate(12.5,0)" />
    </marker>
  </defs>
  <sodipodi:namedview
     id="base"
     pagecolor="#ffffff"
     bordercolor="#666666"
     borderopacity="1.0"
     gridtolerance="10000"
     guidetolerance="10"
     objecttolerance="10"
     inkscape:pageopacity="0.0"
     inkscape:pageshadow="2"
     inkscape:zoom="0.24748737"
     inkscape:cx="753.99754"
     inkscape:cy="399.17479"
     inkscape:document-units="px"
     inkscape:current-layer="g4317"
     showgrid="false"
     gridspacingx="0.1px"
     gridspacingy="0.1px"
     inkscape:grid-points="true"
     width="1000.48px"
     height="1000px"
     showguides="true"
     inkscape:guide-bbox="true"
     inkscape:window-width="1139"
     inkscape:window-height="993"
     inkscape:window-x="0"
     inkscape:window-y="0" />
  <metadata
     id="metadata7">
    <rdf:RDF>
      <cc:Work
         rdf:about="">
        <dc:format>image/svg+xml</dc:format>
        <dc:type
           rdf:resource="http://purl.org/dc/dcmitype/StillImage" />
      </cc:Work>
    </rdf:RDF>
  </metadata>
  <g
     inkscape:label="Layer 1"
     inkscape:groupmode="layer"
     id="layer1"
     transform="translate(139.73424,-177)">
    <g
       id="g9026"
       transform="matrix(1.2494444,0,0,1.2494444,-130.29032,-163.5113)"
       style="opacity:1;fill:#dddddd;fill-opacity:1;stroke:#000000;stroke-width:2.40106726;stroke-miterlimit:4;stroke-dasharray:none;stroke-opacity:1">
      <g
         id="g4317"
         style="fill:#dddddd;fill-opacity:1">
        <path
           sodipodi:nodetypes="csssssssc"
           id="path9018"
           d="M 661.33298,788.29393 C 661.33298,952.22956 483.34996,1085.9068 265.88431,1085.9068 C 187.43806,1085.9068 112.535,1070.4797 52.90142,1038.763 C 27.1385,1025.068 -0.55204646,1011.5667 -28.940625,996.53058 C -108.07239,954.60012 -128.07519,868.94351 -128.07519,788.92198 C -128.07519,624.98635 57.196414,480.68677 274.66206,480.68677 C 324.92695,480.68677 352.92787,476.19247 397.33411,496.46928 C 430.46217,511.59623 472.90029,533.68476 498.84073,547.48145 C 599.95237,601.2587 661.33298,687.98483 661.33298,788.29393 z "
           style="fill:#c6c6c6;fill-opacity:1;fill-rule:evenodd;stroke-width:3.34915495;stroke-linecap:round;stroke-linejoin:round;stroke-dashoffset:0"
           transform="matrix(0.5269948,0.3312569,-1.0260806,0.3303148,1110.1951,498.44046)" />
        <path
           sodipodi:type="arc"
           style="opacity:1;fill:#dddddd;fill-opacity:1;fill-rule:evenodd;stroke:#000000;stroke-width:3.34915495;stroke-linecap:round;stroke-linejoin:round;stroke-miterlimit:4;stroke-dasharray:none;stroke-dashoffset:0;stroke-opacity:1"
           id="path5137"
           sodipodi:cx="264.65997"
           sodipodi:cy="787.70221"
           sodipodi:rx="393.9595"
           sodipodi:ry="296.98483"
           d="M 658.61948 787.70221 A 393.9595 296.98483 0 1 1  -129.29953,787.70221 A 393.9595 296.98483 0 1 1  658.61948 787.70221 z"
           transform="matrix(0.5269948,0.3312569,-1.0260806,0.3303148,1110.1951,458.44046)" />
        <path
           style="fill:none;fill-rule:evenodd;stroke:#a60000;stroke-width:5.00000026;stroke-linecap:butt;stroke-linejoin:miter;stroke-opacity:1;stroke-miterlimit:4;stroke-dasharray:none;marker-end:none"
           d="M 278.8021,408.34979 L 335.37064,679.07067"
           id="path2227"
           transform="matrix(0.8003557,0,0,0.8003557,-7.5584956,272.53017)"
           sodipodi:nodetypes="cc" />
        <path
           style="fill:none;fill-rule:evenodd;stroke:#a60000;stroke-width:5.00000026;stroke-linecap:butt;stroke-linejoin:miter;stroke-opacity:1;stroke-miterlimit:4;stroke-dasharray:none;marker-end:none"
           d="M 852.56875,218.44111 L 796.00021,529.56809"
           id="path2229"
           transform="matrix(0.8003557,0,0,0.8003557,-7.5584956,272.53017)" />
        <g
           id="g3411"
           transform="translate(1.6169628,1.6169628)"
           style="fill:#a60000;fill-opacity:1;stroke:none">
          <path
             d="M 267.79005,768.92668 L 260.3154,819.62254 L 233.16618,776.16151 C 244.95873,781.54696 258.93372,778.58158 267.79005,768.92668 z "
             style="font-size:12px;fill:#a60000;fill-opacity:1;fill-rule:evenodd;stroke:none;stroke-width:2.75122309;stroke-linejoin:round"
             id="path3417" />
        </g>
        <g
           id="g3403"
           transform="translate(7.2763325,-22.233239)"
           style="fill:#a60000;fill-opacity:1;stroke:none">
          <path
             d="M 647.16761,680.09285 L 621.16351,724.24857 L 612.36649,673.76537 C 621.26528,683.19291 635.32884,685.70492 647.16761,680.09285 z "
             style="font-size:12px;fill:#a60000;fill-opacity:1;fill-rule:evenodd;stroke:none;stroke-width:2.75122309;stroke-linejoin:round"
             id="path3409" />
        </g>
      </g>
    </g>
    <g
       id="g9037"
       transform="translate(8.0812206,20.203051)"
       style="fill:#912f00;fill-opacity:1;stroke:#f3ebcc;stroke-width:6;stroke-miterlimit:4;stroke-dasharray:none;stroke-opacity:1">
      <rect
         ry="0"
         transform="matrix(0.8086273,-0.5883213,0,1,0,0)"
         y="1034.3243"
         x="433.08914"
         height="26.353313"
         width="71.023338"
         id="rect4158"
         style="opacity:0.83999999;fill:#7f2900;fill-opacity:1;fill-rule:evenodd;stroke:#f3ebcc;stroke-width:6.67232275;stroke-linecap:round;stroke-linejoin:round;stroke-miterlimit:4;stroke-dasharray:none;stroke-dashoffset:0;stroke-opacity:1" />
      <rect
         y="803.67926"
         x="322.12039"
         height="26.028999"
         width="70.086662"
         id="rect3181"
         style="opacity:1;fill:#6f2000;fill-opacity:1;fill-rule:evenodd;stroke:#f3ebcc;stroke-width:6;stroke-linecap:round;stroke-linejoin:round;stroke-miterlimit:4;stroke-dasharray:none;stroke-dashoffset:0;stroke-opacity:1" />
      <rect
         ry="0"
         transform="matrix(0.7611747,-0.6485469,0,1,0,0)"
         y="1165.725"
         x="596.64093"
         height="34.596508"
         width="76.068359"
         id="rect4160"
         style="opacity:0.83999999;fill:#7e2900;fill-opacity:1;fill-rule:evenodd;stroke:#f3ebcc;stroke-width:6.87715912;stroke-linecap:round;stroke-linejoin:round;stroke-miterlimit:4;stroke-dasharray:none;stroke-dashoffset:0;stroke-opacity:1" />
      <rect
         y="799.14978"
         x="425.50876"
         height="27.478319"
         width="72.546265"
         id="rect3183"
         style="opacity:1;fill:#6e2100;fill-opacity:1;fill-rule:evenodd;stroke:#f3ebcc;stroke-width:6;stroke-linecap:round;stroke-linejoin:round;stroke-miterlimit:4;stroke-dasharray:none;stroke-dashoffset:0;stroke-opacity:1" />
      <rect
         transform="matrix(0.8086273,-0.5883213,0,1,0,0)"
         y="1188.9104"
         x="548.46472"
         height="23.898247"
         width="249.80054"
         id="rect4154"
         style="opacity:0.83999999;fill:#812a00;fill-opacity:1;fill-rule:evenodd;stroke:#f3ebcc;stroke-width:6.67232275;stroke-linecap:round;stroke-linejoin:round;stroke-miterlimit:4;stroke-dasharray:none;stroke-dashoffset:0;stroke-opacity:1" />
      <rect
         ry="0"
         transform="matrix(0.8086273,-0.5883213,0,1,0,0)"
         y="1038.2024"
         x="326.94119"
         height="25.984385"
         width="71.647949"
         id="rect4156"
         style="opacity:0.83999999;fill:#7f2900;fill-opacity:1;fill-rule:evenodd;stroke:#f3ebcc;stroke-width:6.67232275;stroke-linecap:round;stroke-linejoin:round;stroke-miterlimit:4;stroke-dasharray:none;stroke-dashoffset:0;stroke-opacity:1" />
      <rect
         y="737.82898"
         x="407.57974"
         height="26.391573"
         width="71.459923"
         id="rect3177"
         style="opacity:1;fill:#6e2300;fill-opacity:1;fill-rule:evenodd;stroke:#f3ebcc;stroke-width:6;stroke-linecap:round;stroke-linejoin:round;stroke-miterlimit:4;stroke-dasharray:none;stroke-dashoffset:0;stroke-opacity:1" />
      <rect
         y="737.82465"
         x="511.96146"
         height="26.573717"
         width="71.292793"
         id="rect3179"
         style="opacity:1;fill:#6e2200;fill-opacity:1;fill-rule:evenodd;stroke:#f3ebcc;stroke-width:6;stroke-linecap:round;stroke-linejoin:round;stroke-miterlimit:4;stroke-dasharray:none;stroke-dashoffset:0;stroke-opacity:1" />
      <rect
         ry="0"
         transform="matrix(0.8086273,-0.5883213,0,1,0,0)"
         y="1112.6823"
         x="456.22247"
         height="24.050707"
         width="70.821442"
         id="rect4162"
         style="opacity:0.83999999;fill:#912f00;fill-opacity:1;fill-rule:evenodd;stroke:#f3ebcc;stroke-width:6.67232275;stroke-linecap:round;stroke-linejoin:round;stroke-miterlimit:4;stroke-dasharray:none;stroke-dashoffset:0;stroke-opacity:1" />
      <rect
         y="866.0755"
         x="202.42157"
         height="24.094614"
         width="241.03583"
         id="rect3175"
         style="opacity:1;fill:#6d2200;fill-opacity:1;fill-rule:evenodd;stroke:#f3ebcc;stroke-width:6;stroke-linecap:round;stroke-linejoin:round;stroke-miterlimit:4;stroke-dasharray:none;stroke-dashoffset:0;stroke-opacity:1" />
      <path
         sodipodi:nodetypes="ccccccccccccccccccccccccc"
         id="path3153"
         d="M 404.99109,718.375 L 646.51131,718.375 L 443.8529,865.96378 L 202.33269,865.96378 L 404.99109,718.375 z M 408.3204,740.35519 L 351.64842,781.62735 L 421.64616,781.62735 L 478.31813,740.35519 L 408.3204,740.35519 z M 512.82102,740.35519 L 456.14904,781.62735 L 526.14678,781.62735 L 582.81875,740.35519 L 512.82102,740.35519 z M 426.20588,802.71146 L 369.552,843.97048 L 439.54973,843.97048 L 496.20361,802.71146 L 426.20588,802.71146 z M 322.45875,803.60754 L 265.78677,844.87968 L 335.78451,844.87968 L 392.45649,803.60754 L 322.45875,803.60754 z "
         style="opacity:1;fill:#912e00;fill-opacity:1;fill-rule:evenodd;stroke:#f3ebcc;stroke-width:6;stroke-linecap:round;stroke-linejoin:round;stroke-miterlimit:4;stroke-dasharray:none;stroke-dashoffset:0;stroke-opacity:1" />
    </g>
    <path
       style="opacity:1;fill:#161f4d;fill-opacity:1;fill-rule:evenodd;stroke:#5a0073;stroke-width:0;stroke-linecap:round;stroke-linejoin:round;stroke-miterlimit:10.43299961;stroke-dasharray:none;stroke-dashoffset:0;stroke-opacity:1"
       d="M 423.25,74.625 L -84.25,444.1875 L 520.5625,444.1875 L 1028.0312,74.625 L 423.25,74.625 z M 457.21875,147.71875 L 807.21875,147.71875 L 513.53125,361.625 L 163.53125,361.625 L 457.21875,147.71875 z M 462.03125,179.59375 L 379.90625,239.40625 L 481.34375,239.40625 L 563.46875,179.59375 L 462.03125,179.59375 z M 613.46875,179.59375 L 531.34375,239.40625 L 632.78125,239.40625 L 714.90625,179.59375 L 613.46875,179.59375 z M 487.96875,269.9375 L 405.875,329.75 L 507.3125,329.75 L 589.40625,269.9375 L 487.96875,269.9375 z M 337.625,271.25 L 255.5,331.0625 L 356.9375,331.0625 L 439.0625,271.25 L 337.625,271.25 z "
       transform="translate(-55.484243,102.375)"
       id="path9015" />
  </g>
</svg>
