<?xml version="1.0" encoding="UTF-8" standalone="no"?>
<!-- Created with Inkscape (http://www.inkscape.org/) -->

<svg
   version="1.0"
   width="70.913528mm"
   height="39.891506mm"
   viewBox="0 0 7091.3528 3989.1506"
   id="svg2"
   xml:space="preserve"
   style="fill-rule:evenodd"
   sodipodi:docname="tema9_mosfet_fg_cargado.svg"
   inkscape:version="1.2.2 (1:1.2.2+202212051550+b0a8486541)"
   xmlns:inkscape="http://www.inkscape.org/namespaces/inkscape"
   xmlns:sodipodi="http://sodipodi.sourceforge.net/DTD/sodipodi-0.dtd"
   xmlns:xlink="http://www.w3.org/1999/xlink"
   xmlns="http://www.w3.org/2000/svg"
   xmlns:svg="http://www.w3.org/2000/svg"><sodipodi:namedview
   id="namedview42"
   pagecolor="#ffffff"
   bordercolor="#666666"
   borderopacity="1.0"
   inkscape:showpageshadow="2"
   inkscape:pageopacity="0.0"
   inkscape:pagecheckerboard="0"
   inkscape:deskcolor="#d1d1d1"
   inkscape:document-units="mm"
   showgrid="false"
   inkscape:zoom="3.8355423"
   inkscape:cx="144.95994"
   inkscape:cy="89.296369"
   inkscape:window-width="1320"
   inkscape:window-height="704"
   inkscape:window-x="46"
   inkscape:window-y="27"
   inkscape:window-maximized="1"
   inkscape:current-layer="svg2" />
 <defs
   id="defs4"><marker
     style="overflow:visible"
     id="Arrow1L"
     refX="0"
     refY="0"
     orient="auto-start-reverse"
     inkscape:stockid="Arrow1L"
     markerWidth="8.75"
     markerHeight="5"
     viewBox="0 0 8.75 5"
     inkscape:isstock="true"
     inkscape:collect="always"
     preserveAspectRatio="xMidYMid"><path
       style="fill:context-stroke;fill-rule:evenodd;stroke:none"
       d="M 0,0 5,-5 -12.5,0 5,5 Z"
       id="arrow1L"
       transform="scale(-0.5)" /></marker><rect
     x="124.96326"
     y="114.37596"
     width="39.076183"
     height="19.563004"
     id="rect807" /><rect
     x="115.69318"
     y="-3.3646104"
     width="77.377037"
     height="21.455656"
     id="rect743" /><linearGradient
     x1="4129.8999"
     y1="1904.2"
     x2="4129.8999"
     y2="2361"
     id="id0"
     gradientUnits="userSpaceOnUse">
   <stop
   id="stop9"
   style="stop-color:#ff0000;stop-opacity:1"
   offset="0" />
   <stop
   id="stop11"
   style="stop-color:#cc3300;stop-opacity:1"
   offset="0.01176" />
   <stop
   id="stop13"
   style="stop-color:#ffffff;stop-opacity:1"
   offset="0.98823" />
   <stop
   id="stop15"
   style="stop-color:#ffffff;stop-opacity:1"
   offset="1" />
  </linearGradient><linearGradient
     x1="4129.8999"
     y1="1904.2"
     x2="4129.8999"
     y2="2361"
     id="linearGradient3413"
     xlink:href="#id0"
     gradientUnits="userSpaceOnUse"
     gradientTransform="translate(-8.8632589e-7)" /></defs>
 <path
   d="m 2055.7146,2842.7433 h 3573 c -15,-14 -29,-28 -42,-44 -27,-23 -44,-48 -67,-96 -35,-60 -64,-125 -90,-189 l -49,-128 h -1 -3033 c -59,126 -114,247 -206,361 -36,53 -46,64 -85,96 z"
   id="path19"
   style="fill:url(#linearGradient3413)" /><polygon
   points="2635,1621 5668,1621 5668,1128 2634,1128 "
   id="polygon21"
   style="fill:#58ffdb"
   transform="translate(-272.64148,479.70905)" /><polygon
   points="5668,352 2634,352 2635,845 5668,845 "
   id="polygon23"
   style="fill:#61ffe7"
   transform="translate(-288.28537,481.74326)" /><path
   d="m 1977.7146,2904.7433 c 136,-112 104,-71 205,-223 46,-97 104,-176 163,-296 H 652.71463 l 2,914 1021.99997,-242 c 108,-39 191,-107 302,-153 z"
   id="path25"
   style="fill:#f4fea2" /><path
   d="m 5471.7146,2597.7433 c 95,218 80,181 275,308 105,67 195,113 303,153 l 1024,242 v -914 h -1693 l 92,212 z"
   id="path27"
   style="fill:#f4fea2" /><polygon
   points="5668,881 2634,881 2635,1092 5668,1092 "
   id="polygon29"
   style="fill:#ffffff"
   transform="translate(-288.28537,481.74326)" /><polygon
   points="5668,1657 2634,1657 2635,1868 5668,1868 "
   id="polygon31"
   style="fill:#ffffff"
   transform="translate(-288.28537,481.74326)" /><path
   d="m 645.35287,3338.392 c 0,-914 0,-914 0,-914 H 7066.3528 v 914 c -124,-26 -248,-51 -372,-77 -203,-39 -408,-82 -614,-148 -165,-54 -317,-125 -459,-232 -92,-85 -150,-209 -199,-329 l -49,-128 -1,-1552.00005 h -3033 V 2424.392 c -62,131 -118,255 -216,373 -119,111 -259,199 -411,266 -176,69 -372,137 -580,177 l -485.99993,98 z"
   id="path33"
   style="fill:none;stroke:#000000;stroke-width:50" /><rect
   width="3033"
   height="283"
   x="2345.7146"
   y="1326.7433"
   id="rect35"
   style="fill:none;stroke:#000000;stroke-width:20" /><rect
   width="3033"
   height="283"
   x="2345.7146"
   y="2102.7432"
   id="rect37"
   style="fill:none;stroke:#000000;stroke-width:20" /><path
   d="m 1101.7146,2842.7433 v -253 h 39 v 36 c 19,-28 45,-41 80,-41 15,0 29,3 42,8 13,5 22,13 29,22 6,9 11,19 13,32 2,8 2,22 2,42 v 155 h -43 v -154 c 0,-17 -2,-31 -5,-39 -3,-9 -9,-16 -18,-21 -8,-5 -18,-8 -30,-8 -18,0 -34,6 -47,17 -13,12 -20,34 -20,66 v 138 h -43 z"
   id="path39"
   style="fill:#000000;fill-rule:nonzero" /><polygon
   points="1656,2209 1656,2169 1751,2169 1751,2074 1792,2074 1792,2169 1887,2169 1887,2209 1792,2209 1792,2304 1751,2304 1751,2209 "
   id="1"
   style="fill:#000000;fill-rule:nonzero"
   transform="translate(-288.28537,481.74326)" /><path
   d="m 6100.7146,2842.7433 v -253 h 39 v 36 c 19,-28 45,-41 80,-41 15,0 29,3 42,8 13,5 22,13 29,22 6,9 11,19 13,32 2,8 2,22 2,42 v 155 h -43 v -154 c 0,-17 -2,-31 -5,-39 -3,-9 -9,-16 -18,-21 -8,-5 -18,-8 -30,-8 -18,0 -34,6 -47,17 -13,12 -20,34 -20,66 v 138 h -43 z"
   id="path42"
   style="fill:#000000;fill-rule:nonzero" /><polygon
   points="6655,2209 6655,2169 6750,2169 6750,2074 6790,2074 6790,2169 6885,2169 6885,2209 6790,2209 6790,2304 6750,2304 6750,2209 "
   id="polygon44"
   style="fill:#000000;fill-rule:nonzero"
   transform="translate(-288.28537,481.74326)" /><line
   style="fill:none;stroke:#000000;stroke-width:20"
   id="line114"
   y2="921.74329"
   x2="1979.7146"
   y1="1172.7433"
   x1="2547.7146"
   class="fil5 str1" />



<text
   x="-16.867189"
   y="1007.7905"
   id="text3427"
   xml:space="preserve"
   style="font-style:normal;font-variant:normal;font-weight:normal;font-stretch:normal;font-size:338.667px;line-height:125%;font-family:Arial;-inkscape-font-specification:Arial;text-align:start;writing-mode:lr-tb;text-anchor:start;fill:#000000;fill-opacity:1;stroke:none;stroke-width:1px;stroke-linecap:butt;stroke-linejoin:miter;stroke-opacity:1"><tspan
     x="-16.867189"
     y="1007.7905"
     id="tspan3429">Control gate</tspan></text>


<g
   id="g1582"
   transform="translate(-3453.6202,480.43462)"><path
     style="fill:none;stroke:#ff0000;stroke-width:26.4583px;stroke-linecap:butt;stroke-linejoin:miter;stroke-opacity:1"
     d="m 6578.6495,1268.4122 v 219.8234"
     id="path1524" /><path
     style="fill:none;stroke:#ff0000;stroke-width:26.4583px;stroke-linecap:butt;stroke-linejoin:miter;stroke-opacity:1"
     d="m 6463.2689,1374.7841 h 219.8234"
     id="path1528" /></g><g
   id="g1593"
   transform="translate(-2255.048,480.43462)"><path
     style="fill:none;stroke:#ff0000;stroke-width:26.4583px;stroke-linecap:butt;stroke-linejoin:miter;stroke-opacity:1"
     d="m 6578.6495,1268.4122 v 219.8234"
     id="path1589" /><path
     style="fill:none;stroke:#ff0000;stroke-width:26.4583px;stroke-linecap:butt;stroke-linejoin:miter;stroke-opacity:1"
     d="m 6463.2689,1374.7841 h 219.8234"
     id="path1591" /></g><g
   id="g1601"
   transform="translate(-1356.1189,480.43462)"><path
     style="fill:none;stroke:#ff0000;stroke-width:26.4583px;stroke-linecap:butt;stroke-linejoin:miter;stroke-opacity:1"
     d="m 6578.6495,1268.4122 v 219.8234"
     id="path1597" /><path
     style="fill:none;stroke:#ff0000;stroke-width:26.4583px;stroke-linecap:butt;stroke-linejoin:miter;stroke-opacity:1"
     d="m 6463.2689,1374.7841 h 219.8234"
     id="path1599" /></g><g
   id="g1609"
   transform="translate(-2554.6911,480.43462)"><path
     style="fill:none;stroke:#ff0000;stroke-width:26.4583px;stroke-linecap:butt;stroke-linejoin:miter;stroke-opacity:1"
     d="m 6578.6495,1268.4122 v 219.8234"
     id="path1605" /><path
     style="fill:none;stroke:#ff0000;stroke-width:26.4583px;stroke-linecap:butt;stroke-linejoin:miter;stroke-opacity:1"
     d="m 6463.2689,1374.7841 h 219.8234"
     id="path1607" /></g><g
   id="g1617"
   transform="translate(-2854.3341,480.43462)"><path
     style="fill:none;stroke:#ff0000;stroke-width:26.4583px;stroke-linecap:butt;stroke-linejoin:miter;stroke-opacity:1"
     d="m 6578.6495,1268.4122 v 219.8234"
     id="path1613" /><path
     style="fill:none;stroke:#ff0000;stroke-width:26.4583px;stroke-linecap:butt;stroke-linejoin:miter;stroke-opacity:1"
     d="m 6463.2689,1374.7841 h 219.8234"
     id="path1615" /></g><g
   id="g1625"
   transform="translate(-3153.9772,480.43462)"><path
     style="fill:none;stroke:#ff0000;stroke-width:26.4583px;stroke-linecap:butt;stroke-linejoin:miter;stroke-opacity:1"
     d="m 6578.6495,1268.4122 v 219.8234"
     id="path1621" /><path
     style="fill:none;stroke:#ff0000;stroke-width:26.4583px;stroke-linecap:butt;stroke-linejoin:miter;stroke-opacity:1"
     d="m 6463.2689,1374.7841 h 219.8234"
     id="path1623" /></g><g
   id="g1633"
   transform="translate(-3753.2633,480.43462)"><path
     style="fill:none;stroke:#ff0000;stroke-width:26.4583px;stroke-linecap:butt;stroke-linejoin:miter;stroke-opacity:1"
     d="m 6578.6495,1268.4122 v 219.8234"
     id="path1629" /><path
     style="fill:none;stroke:#ff0000;stroke-width:26.4583px;stroke-linecap:butt;stroke-linejoin:miter;stroke-opacity:1"
     d="m 6463.2689,1374.7841 h 219.8234"
     id="path1631" /></g><g
   id="g1641"
   transform="translate(-4052.9063,480.43462)"><path
     style="fill:none;stroke:#ff0000;stroke-width:26.4583px;stroke-linecap:butt;stroke-linejoin:miter;stroke-opacity:1"
     d="m 6578.6495,1268.4122 v 219.8234"
     id="path1637" /><path
     style="fill:none;stroke:#ff0000;stroke-width:26.4583px;stroke-linecap:butt;stroke-linejoin:miter;stroke-opacity:1"
     d="m 6463.2689,1374.7841 h 219.8234"
     id="path1639" /></g><g
   id="g1649"
   transform="translate(-1655.7619,480.43462)"><path
     style="fill:none;stroke:#ff0000;stroke-width:26.4583px;stroke-linecap:butt;stroke-linejoin:miter;stroke-opacity:1"
     d="m 6578.6495,1268.4122 v 219.8234"
     id="path1645" /><path
     style="fill:none;stroke:#ff0000;stroke-width:26.4583px;stroke-linecap:butt;stroke-linejoin:miter;stroke-opacity:1"
     d="m 6463.2689,1374.7841 h 219.8234"
     id="path1647" /></g><g
   id="g1657"
   transform="translate(-1955.405,480.43462)"><path
     style="fill:none;stroke:#ff0000;stroke-width:26.4583px;stroke-linecap:butt;stroke-linejoin:miter;stroke-opacity:1"
     d="m 6578.6495,1268.4122 v 219.8234"
     id="path1653" /><path
     style="fill:none;stroke:#ff0000;stroke-width:26.4583px;stroke-linecap:butt;stroke-linejoin:miter;stroke-opacity:1"
     d="m 6463.2689,1374.7841 h 219.8234"
     id="path1655" /></g><text
   xml:space="preserve"
   style="font-style:normal;font-weight:normal;font-size:423.333px;line-height:1.25;font-family:sans-serif;letter-spacing:0px;word-spacing:0px;fill:#ff0000;fill-opacity:1;stroke:none;stroke-width:26.4583"
   x="3349.1265"
   y="2857.9509"
   id="text1795"><tspan
     sodipodi:role="line"
     id="tspan1793"
     style="fill:#ff0000;stroke-width:26.4583"
     x="3349.1265"
     y="2857.9509">OFF</tspan></text><text
   xml:space="preserve"
   transform="matrix(26.458333,0,0,26.458333,-93.721471,23.099365)"
   id="text741"
   style="font-style:normal;font-weight:normal;font-size:16px;line-height:1.25;font-family:sans-serif;letter-spacing:0px;word-spacing:0px;white-space:pre;shape-inside:url(#rect743);fill:#000000;fill-opacity:1;stroke:none"><tspan
     x="115.69336"
     y="10.791016"
     id="tspan1661">V<tspan
   style="font-size:65%;baseline-shift:sub"
   id="tspan1657">G</tspan> &lt; V<tspan
   style="font-size:65%;baseline-shift:sub"
   id="tspan1659">T2</tspan></tspan></text><path
   style="fill:none;stroke:#000000;stroke-width:26.4583px;stroke-linecap:butt;stroke-linejoin:miter;stroke-opacity:1"
   d="M 3792.7323,865.01454 V 423.1972"
   id="path803" /><text
   xml:space="preserve"
   transform="matrix(26.458333,0,0,26.458333,-15.903361,582.43364)"
   id="text805"
   style="font-style:normal;font-weight:normal;font-size:16px;line-height:1.25;font-family:sans-serif;letter-spacing:0px;word-spacing:0px;white-space:pre;shape-inside:url(#rect807);fill:#ff0000;fill-opacity:1;stroke:none"><tspan
     x="124.96289"
     y="128.53125"
     id="tspan1663">bit 0</tspan></text><path
   style="fill:none;stroke:#000000;stroke-width:26.4583px;stroke-linecap:butt;stroke-linejoin:miter;stroke-dasharray:79.3749, 79.3749;stroke-dashoffset:0;stroke-opacity:1;marker-end:url(#Arrow1L)"
   d="m 3737.8506,3010.0213 v 466.2904"
   id="path811" /></svg>
