<?xml version="1.0" encoding="UTF-8" standalone="no"?><svg xmlns="http://www.w3.org/2000/svg" height="1075" width="3055" version="1.1">
 <g transform="translate(1402,500)">
  <rect height="40" width="40" y="0" x="0" fill="#00a4ca"/>
  <text font-size="32px" y="30" x="60" font-family="Sans" fill="#00a4ca">256-bit Register</text>
  <g transform="translate(0,54)">
   <rect height="40" width="40" y="0" x="0" fill="#700"/>
   <text font-size="32px" y="30" x="60" font-family="Sans" fill="#770000">512-bit Register</text>
  </g>
  <g fill="#02329f" transform="translate(328,0)">
   <rect height="40" width="40" y="0" x="0"/>
   <text font-size="32px" y="30" x="60" font-family="Sans">80-bit Register</text>
  </g>
  <g transform="translate(328,54)">
   <rect height="40" width="40" y="0" x="0" fill="#F95"/>
   <text font-size="32px" y="30" x="60" font-family="Sans" fill="#ff9955">128-bit Register</text>
  </g>
  <g fill="#b40000" transform="translate(656,0)">
   <rect height="40" width="40" y="0" x="0"/>
   <text font-size="32px" y="30" x="60" font-family="Sans">64-bit Register</text>
  </g>
  <g fill="#008000" transform="translate(656,54)">
   <rect height="40" width="40" y="0" x="0"/>
   <text font-size="32px" y="30" x="60" font-family="Sans">32-bit Register</text>
  </g>
  <g transform="translate(984,0)">
   <rect height="40" width="40" y="0" x="0" fill="#F0F"/>
   <text font-size="32px" y="30" x="60" font-family="Sans" fill="#ff00ff">16-bit Register</text>
  </g>
  <g fill="#a0a0a0" transform="translate(984,54)">
   <rect height="40" width="40" y="0" x="0"/>
   <text font-size="32px" y="30" x="60" font-family="Sans">8-bit Register</text>
  </g>
 </g>
 <g transform="translate(2,2)">
  <rect height="64" width="552" stroke="#700" y="0" x="0" stroke-width="2" fill="none"/>
  <text font-size="40px" y="47" x="17" font-family="Sans" fill="#770000">ZMM0</text>
  <rect height="50" width="325" stroke="#00a4ca" y="7" x="220" stroke-width="2" fill="none"/>
  <text font-size="40px" y="47" x="237" font-family="Sans" fill="#00a4ca">YMM0</text>
  <rect height="42" width="141" stroke="#F95" y="11" x="400" stroke-width="2" fill="none"/>
  <text font-size="36px" y="45" x="404" font-family="Sans" fill="#ff9955">XMM0</text>
  <g transform="translate(560,0)">
   <rect height="64" width="552" stroke="#700" y="0" x="0" stroke-width="2" fill="none"/>
   <text font-size="40px" y="47" x="17" font-family="Sans" fill="#770000">ZMM1</text>
   <rect height="50" width="325" stroke="#00a4ca" y="7" x="220" stroke-width="2" fill="none"/>
   <text font-size="40px" y="47" x="237" font-family="Sans" fill="#00a4ca">YMM1</text>
   <rect height="42" width="141" stroke="#F95" y="11" x="400" stroke-width="2" fill="none"/>
   <text font-size="36px" y="45" x="404" font-family="Sans" fill="#ff9955">XMM1</text>
  </g>
  <g transform="translate(0,72)">
   <rect height="64" width="552" stroke="#700" y="0" x="0" stroke-width="2" fill="none"/>
   <text font-size="40px" y="47" x="17" font-family="Sans" fill="#770000">ZMM2</text>
   <rect height="50" width="325" stroke="#00a4ca" y="7" x="220" stroke-width="2" fill="none"/>
   <text font-size="40px" y="47" x="237" font-family="Sans" fill="#00a4ca">YMM2</text>
   <rect height="42" width="141" stroke="#F95" y="11" x="400" stroke-width="2" fill="none"/>
   <text font-size="36px" y="45" x="404" font-family="Sans" fill="#ff9955">XMM2</text>
  </g>
  <g transform="translate(560,72)">
   <rect height="64" width="552" stroke="#700" y="0" x="0" stroke-width="2" fill="none"/>
   <text font-size="40px" y="47" x="17" font-family="Sans" fill="#770000">ZMM3</text>
   <rect height="50" width="325" stroke="#00a4ca" y="7" x="220" stroke-width="2" fill="none"/>
   <text font-size="40px" y="47" x="237" font-family="Sans" fill="#00a4ca">YMM3</text>
   <rect height="42" width="141" stroke="#F95" y="11" x="400" stroke-width="2" fill="none"/>
   <text font-size="36px" y="45" x="404" font-family="Sans" fill="#ff9955">XMM3</text>
  </g>
  <g transform="translate(0,144)">
   <rect height="64" width="552" stroke="#700" y="0" x="0" stroke-width="2" fill="none"/>
   <text font-size="40px" y="47" x="17" font-family="Sans" fill="#770000">ZMM4</text>
   <rect height="50" width="325" stroke="#00a4ca" y="7" x="220" stroke-width="2" fill="none"/>
   <text font-size="40px" y="47" x="237" font-family="Sans" fill="#00a4ca">YMM4</text>
   <rect height="42" width="141" stroke="#F95" y="11" x="400" stroke-width="2" fill="none"/>
   <text font-size="36px" y="45" x="404" font-family="Sans" fill="#ff9955">XMM4</text>
  </g>
  <g transform="translate(560,144)">
   <rect height="64" width="552" stroke="#700" y="0" x="0" stroke-width="2" fill="none"/>
   <text font-size="40px" y="47" x="17" font-family="Sans" fill="#770000">ZMM5</text>
   <rect height="50" width="325" stroke="#00a4ca" y="7" x="220" stroke-width="2" fill="none"/>
   <text font-size="40px" y="47" x="237" font-family="Sans" fill="#00a4ca">YMM5</text>
   <rect height="42" width="141" stroke="#F95" y="11" x="400" stroke-width="2" fill="none"/>
   <text font-size="36px" y="45" x="404" font-family="Sans" fill="#ff9955">XMM5</text>
  </g>
  <g transform="translate(0,216)">
   <rect height="64" width="552" stroke="#700" y="0" x="0" stroke-width="2" fill="none"/>
   <text font-size="40px" y="47" x="17" font-family="Sans" fill="#770000">ZMM6</text>
   <rect height="50" width="325" stroke="#00a4ca" y="7" x="220" stroke-width="2" fill="none"/>
   <text font-size="40px" y="47" x="237" font-family="Sans" fill="#00a4ca">YMM6</text>
   <rect height="42" width="141" stroke="#F95" y="11" x="400" stroke-width="2" fill="none"/>
   <text font-size="36px" y="45" x="404" font-family="Sans" fill="#ff9955">XMM6</text>
  </g>
  <g transform="translate(560,216)">
   <rect height="64" width="552" stroke="#700" y="0" x="0" stroke-width="2" fill="none"/>
   <text font-size="40px" y="47" x="17" font-family="Sans" fill="#770000">ZMM7</text>
   <rect height="50" width="325" stroke="#00a4ca" y="7" x="220" stroke-width="2" fill="none"/>
   <text font-size="40px" y="47" x="237" font-family="Sans" fill="#00a4ca">YMM7</text>
   <rect height="42" width="141" stroke="#F95" y="11" x="400" stroke-width="2" fill="none"/>
   <text font-size="36px" y="45" x="404" font-family="Sans" fill="#ff9955">XMM7</text>
  </g>
  <g transform="translate(0,288)">
   <rect height="64" width="552" stroke="#700" y="0" x="0" stroke-width="2" fill="none"/>
   <text font-size="40px" y="47" x="17" font-family="Sans" fill="#770000">ZMM8</text>
   <rect height="50" width="325" stroke="#00a4ca" y="7" x="220" stroke-width="2" fill="none"/>
   <text font-size="40px" y="47" x="237" font-family="Sans" fill="#00a4ca">YMM8</text>
   <rect height="42" width="141" stroke="#F95" y="11" x="400" stroke-width="2" fill="none"/>
   <text font-size="36px" y="45" x="404" font-family="Sans" fill="#ff9955">XMM8</text>
  </g>
  <g transform="translate(560,288)">
   <rect height="64" width="552" stroke="#700" y="0" x="0" stroke-width="2" fill="none"/>
   <text font-size="40px" y="47" x="17" font-family="Sans" fill="#770000">ZMM9</text>
   <rect height="50" width="325" stroke="#00a4ca" y="7" x="220" stroke-width="2" fill="none"/>
   <text font-size="40px" y="47" x="237" font-family="Sans" fill="#00a4ca">YMM9</text>
   <rect height="42" width="141" stroke="#F95" y="11" x="400" stroke-width="2" fill="none"/>
   <text font-size="36px" y="45" x="404" font-family="Sans" fill="#ff9955">XMM9</text>
  </g>
  <g transform="translate(0,360)">
   <rect height="64" width="552" stroke="#700" y="0" x="0" stroke-width="2" fill="none"/>
   <text font-size="40px" y="47" x="17" font-family="Sans" fill="#770000">ZMM10</text>
   <rect height="50" width="325" stroke="#00a4ca" y="7" x="220" stroke-width="2" fill="none"/>
   <text font-size="40px" y="47" x="237" font-family="Sans" fill="#00a4ca">YMM10</text>
   <rect height="42" width="141" stroke="#F95" y="11" x="400" stroke-width="2" fill="none"/>
   <text font-size="36px" y="45" x="404" font-family="Sans" fill="#ff9955">XMM10</text>
  </g>
  <g transform="translate(560,360)">
   <rect height="64" width="552" stroke="#700" y="0" x="0" stroke-width="2" fill="none"/>
   <text font-size="40px" y="47" x="17" font-family="Sans" fill="#770000">ZMM11</text>
   <rect height="50" width="325" stroke="#00a4ca" y="7" x="220" stroke-width="2" fill="none"/>
   <text font-size="40px" y="47" x="237" font-family="Sans" fill="#00a4ca">YMM11</text>
   <rect height="42" width="141" stroke="#F95" y="11" x="400" stroke-width="2" fill="none"/>
   <text font-size="36px" y="45" x="404" font-family="Sans" fill="#ff9955">XMM11</text>
  </g>
  <g transform="translate(0,432)">
   <rect height="64" width="552" stroke="#700" y="0" x="0" stroke-width="2" fill="none"/>
   <text font-size="40px" y="47" x="17" font-family="Sans" fill="#770000">ZMM12</text>
   <rect height="50" width="325" stroke="#00a4ca" y="7" x="220" stroke-width="2" fill="none"/>
   <text font-size="40px" y="47" x="237" font-family="Sans" fill="#00a4ca">YMM12</text>
   <rect height="42" width="141" stroke="#F95" y="11" x="400" stroke-width="2" fill="none"/>
   <text font-size="36px" y="45" x="404" font-family="Sans" fill="#ff9955">XMM12</text>
  </g>
  <g transform="translate(560,432)">
   <rect height="64" width="552" stroke="#700" y="0" x="0" stroke-width="2" fill="none"/>
   <text font-size="40px" y="47" x="17" font-family="Sans" fill="#770000">ZMM13</text>
   <rect height="50" width="325" stroke="#00a4ca" y="7" x="220" stroke-width="2" fill="none"/>
   <text font-size="40px" y="47" x="237" font-family="Sans" fill="#00a4ca">YMM13</text>
   <rect height="42" width="141" stroke="#F95" y="11" x="400" stroke-width="2" fill="none"/>
   <text font-size="36px" y="45" x="404" font-family="Sans" fill="#ff9955">XMM13</text>
  </g>
  <g transform="translate(0,504)">
   <rect height="64" width="552" stroke="#700" y="0" x="0" stroke-width="2" fill="none"/>
   <text font-size="40px" y="47" x="17" font-family="Sans" fill="#770000">ZMM14</text>
   <rect height="50" width="325" stroke="#00a4ca" y="7" x="220" stroke-width="2" fill="none"/>
   <text font-size="40px" y="47" x="237" font-family="Sans" fill="#00a4ca">YMM14</text>
   <rect height="42" width="141" stroke="#F95" y="11" x="400" stroke-width="2" fill="none"/>
   <text font-size="36px" y="45" x="404" font-family="Sans" fill="#ff9955">XMM14</text>
  </g>
  <g transform="translate(560,504)">
   <rect height="64" width="552" stroke="#700" y="0" x="0" stroke-width="2" fill="none"/>
   <text font-size="40px" y="47" x="17" font-family="Sans" fill="#770000">ZMM15</text>
   <rect height="50" width="325" stroke="#00a4ca" y="7" x="220" stroke-width="2" fill="none"/>
   <text font-size="40px" y="47" x="237" font-family="Sans" fill="#00a4ca">YMM15</text>
   <rect height="42" width="141" stroke="#F95" y="11" x="400" stroke-width="2" fill="none"/>
   <text font-size="36px" y="45" x="404" font-family="Sans" fill="#ff9955">XMM15</text>
  </g>
  <g transform="translate(0,576)">
   <rect height="64" width="132" stroke="#700" y="0" x="0" stroke-width="2" fill="none"/>
   <text font-size="30px" y="42" x="17" font-family="Sans" fill="#770000">ZMM16</text>
  </g>
  <g transform="translate(140,576)">
   <rect height="64" width="132" stroke="#700" y="0" x="0" stroke-width="2" fill="none"/>
   <text font-size="30px" y="42" x="17" font-family="Sans" fill="#770000">ZMM17</text>
  </g>
  <g transform="translate(280,576)">
   <rect height="64" width="132" stroke="#700" y="0" x="0" stroke-width="2" fill="none"/>
   <text font-size="30px" y="42" x="17" font-family="Sans" fill="#770000">ZMM18</text>
  </g>
  <g transform="translate(420,576)">
   <rect height="64" width="132" stroke="#700" y="0" x="0" stroke-width="2" fill="none"/>
   <text font-size="30px" y="42" x="17" font-family="Sans" fill="#770000">ZMM19</text>
  </g>
  <g transform="translate(560,576)">
   <rect height="64" width="132" stroke="#700" y="0" x="0" stroke-width="2" fill="none"/>
   <text font-size="30px" y="42" x="17" font-family="Sans" fill="#770000">ZMM20</text>
  </g>
  <g transform="translate(700,576)">
   <rect height="64" width="132" stroke="#700" y="0" x="0" stroke-width="2" fill="none"/>
   <text font-size="30px" y="42" x="17" font-family="Sans" fill="#770000">ZMM21</text>
  </g>
  <g transform="translate(840,576)">
   <rect height="64" width="132" stroke="#700" y="0" x="0" stroke-width="2" fill="none"/>
   <text font-size="30px" y="42" x="17" font-family="Sans" fill="#770000">ZMM22</text>
  </g>
  <g transform="translate(980,576)">
   <rect height="64" width="132" stroke="#700" y="0" x="0" stroke-width="2" fill="none"/>
   <text font-size="30px" y="42" x="17" font-family="Sans" fill="#770000">ZMM23</text>
  </g>
  <g transform="translate(0,648)">
   <rect height="64" width="132" stroke="#700" y="0" x="0" stroke-width="2" fill="none"/>
   <text font-size="30px" y="42" x="17" font-family="Sans" fill="#770000">ZMM24</text>
  </g>
  <g transform="translate(140,648)">
   <rect height="64" width="132" stroke="#700" y="0" x="0" stroke-width="2" fill="none"/>
   <text font-size="30px" y="42" x="17" font-family="Sans" fill="#770000">ZMM25</text>
  </g>
  <g transform="translate(280,648)">
   <rect height="64" width="132" stroke="#700" y="0" x="0" stroke-width="2" fill="none"/>
   <text font-size="30px" y="42" x="17" font-family="Sans" fill="#770000">ZMM26</text>
  </g>
  <g transform="translate(420,648)">
   <rect height="64" width="132" stroke="#700" y="0" x="0" stroke-width="2" fill="none"/>
   <text font-size="30px" y="42" x="17" font-family="Sans" fill="#770000">ZMM27</text>
  </g>
  <g transform="translate(560,648)">
   <rect height="64" width="132" stroke="#700" y="0" x="0" stroke-width="2" fill="none"/>
   <text font-size="30px" y="42" x="17" font-family="Sans" fill="#770000">ZMM28</text>
  </g>
  <g transform="translate(700,648)">
   <rect height="64" width="132" stroke="#700" y="0" x="0" stroke-width="2" fill="none"/>
   <text font-size="30px" y="42" x="17" font-family="Sans" fill="#770000">ZMM29</text>
  </g>
  <g transform="translate(840,648)">
   <rect height="64" width="132" stroke="#700" y="0" x="0" stroke-width="2" fill="none"/>
   <text font-size="30px" y="42" x="17" font-family="Sans" fill="#770000">ZMM30</text>
  </g>
  <g transform="translate(980,648)">
   <rect height="64" width="132" stroke="#700" y="0" x="0" stroke-width="2" fill="none"/>
   <text font-size="30px" y="42" x="17" font-family="Sans" fill="#770000">ZMM31</text>
  </g>
 </g>
 <g transform="translate(1148,2)">
  <rect height="64" width="272" stroke="#02329f" y="0" x="0" stroke-width="2" fill="none"/>
  <text font-size="40px" y="47" x="17" font-family="Sans" fill="#02329f">ST(0)</text>
  <rect height="50" width="128" stroke="#b40000" y="7" x="137" stroke-width="2" fill="none"/>
  <text font-size="40px" y="47" x="141" font-family="Sans" fill="#b40000">MM0</text>
  <g transform="translate(280,0)">
   <rect height="64" width="272" stroke="#02329f" y="0" x="0" stroke-width="2" fill="none"/>
   <text font-size="40px" y="47" x="17" font-family="Sans" fill="#02329f">ST(1)</text>
   <rect height="50" width="128" stroke="#b40000" y="7" x="137" stroke-width="2" fill="none"/>
   <text font-size="40px" y="47" x="141" font-family="Sans" fill="#b40000">MM1</text>
  </g>
  <g transform="translate(0,72)">
   <rect height="64" width="272" stroke="#02329f" y="0" x="0" stroke-width="2" fill="none"/>
   <text font-size="40px" y="47" x="17" font-family="Sans" fill="#02329f">ST(2)</text>
   <rect height="50" width="128" stroke="#b40000" y="7" x="137" stroke-width="2" fill="none"/>
   <text font-size="40px" y="47" x="141" font-family="Sans" fill="#b40000">MM2</text>
  </g>
  <g transform="translate(280,72)">
   <rect height="64" width="272" stroke="#02329f" y="0" x="0" stroke-width="2" fill="none"/>
   <text font-size="40px" y="47" x="17" font-family="Sans" fill="#02329f">ST(3)</text>
   <rect height="50" width="128" stroke="#b40000" y="7" x="137" stroke-width="2" fill="none"/>
   <text font-size="40px" y="47" x="141" font-family="Sans" fill="#b40000">MM3</text>
  </g>
  <g transform="translate(0,144)">
   <rect height="64" width="272" stroke="#02329f" y="0" x="0" stroke-width="2" fill="none"/>
   <text font-size="40px" y="47" x="17" font-family="Sans" fill="#02329f">ST(4)</text>
   <rect height="50" width="128" stroke="#b40000" y="7" x="137" stroke-width="2" fill="none"/>
   <text font-size="40px" y="47" x="141" font-family="Sans" fill="#b40000">MM4</text>
  </g>
  <g transform="translate(280,144)">
   <rect height="64" width="272" stroke="#02329f" y="0" x="0" stroke-width="2" fill="none"/>
   <text font-size="40px" y="47" x="17" font-family="Sans" fill="#02329f">ST(5)</text>
   <rect height="50" width="128" stroke="#b40000" y="7" x="137" stroke-width="2" fill="none"/>
   <text font-size="40px" y="47" x="141" font-family="Sans" fill="#b40000">MM5</text>
  </g>
  <g transform="translate(0,216)">
   <rect height="64" width="272" stroke="#02329f" y="0" x="0" stroke-width="2" fill="none"/>
   <text font-size="40px" y="47" x="17" font-family="Sans" fill="#02329f">ST(6)</text>
   <rect height="50" width="128" stroke="#b40000" y="7" x="137" stroke-width="2" fill="none"/>
   <text font-size="40px" y="47" x="141" font-family="Sans" fill="#b40000">MM6</text>
  </g>
  <g transform="translate(280,216)">
   <rect height="64" width="272" stroke="#02329f" y="0" x="0" stroke-width="2" fill="none"/>
   <text font-size="40px" y="47" x="17" font-family="Sans" fill="#02329f">ST(7)</text>
   <rect height="50" width="128" stroke="#b40000" y="7" x="137" stroke-width="2" fill="none"/>
   <text font-size="40px" y="47" x="141" font-family="Sans" fill="#b40000">MM7</text>
  </g>
 </g>
 <g text-anchor="middle" transform="translate(1148,362)">
  <g>
   <rect height="64" width="132" stroke="#F0F" y="0" x="0" stroke-width="2" fill="none"/>
   <text font-size="40px" y="47" x="66" font-family="Sans" fill="#ff00ff">CW</text>
  </g>
  <g transform="translate(140,0)">
   <rect height="64" width="132" stroke="#F0F" y="0" x="0" stroke-width="2" fill="none"/>
   <text font-size="40px" y="47" x="66" font-family="Sans" fill="#ff00ff">FP_IP</text>
  </g>
  <g transform="translate(280,0)">
   <rect height="64" width="132" stroke="#F0F" y="0" x="0" stroke-width="2" fill="none"/>
   <text font-size="40px" y="47" x="66" font-family="Sans" fill="#ff00ff">FP_DP</text>
  </g>
  <g transform="translate(420,0)">
   <rect height="64" width="132" stroke="#F0F" y="0" x="0" stroke-width="2" fill="none"/>
   <text font-size="40px" y="47" x="66" font-family="Sans" fill="#ff00ff">FP_CS</text>
  </g>
  <g transform="translate(0,72)">
   <rect height="64" width="132" stroke="#F0F" y="0" x="0" stroke-width="2" fill="none"/>
   <text font-size="40px" y="47" x="66" font-family="Sans" fill="#ff00ff">SW</text>
  </g>
  <g transform="translate(0,144)">
   <rect height="64" width="132" stroke="#F0F" y="0" x="0" stroke-width="2" fill="none"/>
   <text font-size="40px" y="47" x="66" font-family="Sans" fill="#ff00ff">TW</text>
  </g>
  <g transform="translate(0,216)">
   <rect height="64" width="132" stroke="#F0F" y="0" x="0" stroke-width="2" fill="none"/>
   <text font-size="40px" y="47" x="66" font-family="Sans" fill="#ff00ff">FP_DS</text>
  </g>
  <g transform="translate(0,288)">
   <rect height="64" width="132" stroke="#F0F" y="0" x="0" stroke-width="2" fill="none"/>
   <text font-size="32px" y="43" x="66" font-family="Sans" fill="#ff00ff">FP_OPC</text>
  </g>
  <g transform="translate(140,288)">
   <rect height="64" width="132" stroke="#008000" y="0" x="0" stroke-width="2" fill="none"/>
   <text font-size="40px" y="47" x="66" font-family="Sans" fill="#008000">FP_DP</text>
  </g>
  <g transform="translate(280,288)">
   <rect height="64" width="132" stroke="#008000" y="0" x="0" stroke-width="2" fill="none"/>
   <text font-size="40px" y="47" x="66" font-family="Sans" fill="#008000">FP_IP</text>
  </g>
 </g>
 <g text-anchor="end" transform="translate(1730,2)">
  <g>
   <rect height="64" width="296" stroke="#b40000" y="0" x="0" stroke-width="2" fill="none"/>
   <text font-size="40px" y="47" x="292" font-family="Sans" fill="#b40000">RAX</text>
   <rect height="50" width="200" stroke="#008000" y="7" x="4" stroke-width="2" fill="none"/>
   <text font-size="32px" y="43" x="198" font-family="Sans" fill="#008000">EAX</text>
   <rect height="42" width="126" stroke="#F0F" y="11" x="8" stroke-width="2" fill="none"/>
   <text font-size="32px" y="43" x="132" font-family="Sans" fill="#ff00ff">AX</text>
   <g transform="translate(38,0)">
    <rect height="34" width="36" stroke="#a0a0a0" y="15" x="12" stroke-width="2" fill="none"/>
    <text font-size="20px" y="39" x="45" font-family="Sans" fill="#a0a0a0">AH</text>
   </g>
   <rect height="34" width="36" stroke="#a0a0a0" y="15" x="12" stroke-width="2" fill="none"/>
   <text font-size="20px" y="39" x="45" font-family="Sans" fill="#a0a0a0">AL</text>
  </g>
  <g transform="translate(0,72)">
   <rect height="64" width="296" stroke="#b40000" y="0" x="0" stroke-width="2" fill="none"/>
   <text font-size="40px" y="47" x="292" font-family="Sans" fill="#b40000">RBX</text>
   <rect height="50" width="200" stroke="#008000" y="7" x="4" stroke-width="2" fill="none"/>
   <text font-size="32px" y="43" x="198" font-family="Sans" fill="#008000">EBX</text>
   <rect height="42" width="126" stroke="#F0F" y="11" x="8" stroke-width="2" fill="none"/>
   <text font-size="32px" y="43" x="132" font-family="Sans" fill="#ff00ff">BX</text>
   <g transform="translate(38,0)">
    <rect height="34" width="36" stroke="#a0a0a0" y="15" x="12" stroke-width="2" fill="none"/>
    <text font-size="20px" y="39" x="45" font-family="Sans" fill="#a0a0a0">BH</text>
   </g>
   <rect height="34" width="36" stroke="#a0a0a0" y="15" x="12" stroke-width="2" fill="none"/>
   <text font-size="20px" y="39" x="45" font-family="Sans" fill="#a0a0a0">BL</text>
  </g>
  <g transform="translate(0,144)">
   <rect height="64" width="296" stroke="#b40000" y="0" x="0" stroke-width="2" fill="none"/>
   <text font-size="40px" y="47" x="292" font-family="Sans" fill="#b40000">RCX</text>
   <rect height="50" width="200" stroke="#008000" y="7" x="4" stroke-width="2" fill="none"/>
   <text font-size="32px" y="43" x="198" font-family="Sans" fill="#008000">ECX</text>
   <rect height="42" width="126" stroke="#F0F" y="11" x="8" stroke-width="2" fill="none"/>
   <text font-size="32px" y="43" x="132" font-family="Sans" fill="#ff00ff">CX</text>
   <g transform="translate(38,0)">
    <rect height="34" width="36" stroke="#a0a0a0" y="15" x="12" stroke-width="2" fill="none"/>
    <text font-size="20px" y="39" x="45" font-family="Sans" fill="#a0a0a0">CH</text>
   </g>
   <rect height="34" width="36" stroke="#a0a0a0" y="15" x="12" stroke-width="2" fill="none"/>
   <text font-size="20px" y="39" x="45" font-family="Sans" fill="#a0a0a0">CL</text>
  </g>
  <g transform="translate(0,216)">
   <rect height="64" width="296" stroke="#b40000" y="0" x="0" stroke-width="2" fill="none"/>
   <text font-size="40px" y="47" x="292" font-family="Sans" fill="#b40000">RDX</text>
   <rect height="50" width="200" stroke="#008000" y="7" x="4" stroke-width="2" fill="none"/>
   <text font-size="32px" y="43" x="198" font-family="Sans" fill="#008000">EDX</text>
   <rect height="42" width="126" stroke="#F0F" y="11" x="8" stroke-width="2" fill="none"/>
   <text font-size="32px" y="43" x="132" font-family="Sans" fill="#ff00ff">DX</text>
   <g transform="translate(38,0)">
    <rect height="34" width="36" stroke="#a0a0a0" y="15" x="12" stroke-width="2" fill="none"/>
    <text font-size="20px" y="39" x="45" font-family="Sans" fill="#a0a0a0">DH</text>
   </g>
   <rect height="34" width="36" stroke="#a0a0a0" y="15" x="12" stroke-width="2" fill="none"/>
   <text font-size="20px" y="39" x="45" font-family="Sans" fill="#a0a0a0">DL</text>
  </g>
  <g transform="translate(304,0)">
   <rect height="64" width="264" stroke="#b40000" y="0" x="0" stroke-width="2" fill="none"/>
   <text font-size="36px" y="45" x="260" font-family="Sans" fill="#b40000">R8</text>
   <rect height="50" width="184" stroke="#008000" y="7" x="4" stroke-width="2" fill="none"/>
   <text font-size="22" y="39" x="184" font-family="Sans" fill="#008000">R8D</text>
   <rect height="42" width="112" stroke="#F0F" y="11" x="8" stroke-width="2" fill="none"/>
   <text font-size="20px" y="38" x="118" font-family="Sans" fill="#ff00ff">R8W</text>
   <rect height="34" width="44" stroke="#a0a0a0" y="15" x="12" stroke-width="2" fill="none"/>
   <text font-size="14px" y="36" x="54" font-family="Sans" fill="#a0a0a0">R8B</text>
  </g>
  <g transform="translate(304,72)">
   <rect height="64" width="264" stroke="#b40000" y="0" x="0" stroke-width="2" fill="none"/>
   <text font-size="36px" y="45" x="260" font-family="Sans" fill="#b40000">R9</text>
   <rect height="50" width="184" stroke="#008000" y="7" x="4" stroke-width="2" fill="none"/>
   <text font-size="22" y="39" x="184" font-family="Sans" fill="#008000">R9D</text>
   <rect height="42" width="112" stroke="#F0F" y="11" x="8" stroke-width="2" fill="none"/>
   <text font-size="20px" y="38" x="118" font-family="Sans" fill="#ff00ff">R9W</text>
   <rect height="34" width="44" stroke="#a0a0a0" y="15" x="12" stroke-width="2" fill="none"/>
   <text font-size="14px" y="36" x="54" font-family="Sans" fill="#a0a0a0">R9B</text>
  </g>
  <g transform="translate(304,144)">
   <rect height="64" width="264" stroke="#b40000" y="0" x="0" stroke-width="2" fill="none"/>
   <text font-size="36px" y="45" x="260" font-family="Sans" fill="#b40000">R10</text>
   <rect height="50" width="184" stroke="#008000" y="7" x="4" stroke-width="2" fill="none"/>
   <text font-size="22" y="39" x="184" font-family="Sans" fill="#008000">R10D</text>
   <rect height="42" width="112" stroke="#F0F" y="11" x="8" stroke-width="2" fill="none"/>
   <text font-size="20px" y="38" x="118" font-family="Sans" fill="#ff00ff">R10W</text>
   <rect height="34" width="44" stroke="#a0a0a0" y="15" x="12" stroke-width="2" fill="none"/>
   <text font-size="14px" y="36" x="54" font-family="Sans" fill="#a0a0a0">R10B</text>
  </g>
  <g transform="translate(304,216)">
   <rect height="64" width="264" stroke="#b40000" y="0" x="0" stroke-width="2" fill="none"/>
   <text font-size="36px" y="45" x="260" font-family="Sans" fill="#b40000">R11</text>
   <rect height="50" width="184" stroke="#008000" y="7" x="4" stroke-width="2" fill="none"/>
   <text font-size="22" y="39" x="184" font-family="Sans" fill="#008000">R11D</text>
   <rect height="42" width="112" stroke="#F0F" y="11" x="8" stroke-width="2" fill="none"/>
   <text font-size="20px" y="38" x="118" font-family="Sans" fill="#ff00ff">R11W</text>
   <rect height="34" width="44" stroke="#a0a0a0" y="15" x="12" stroke-width="2" fill="none"/>
   <text font-size="14px" y="36" x="54" font-family="Sans" fill="#a0a0a0">R11B</text>
  </g>
  <g transform="translate(576,0)">
   <rect height="64" width="264" stroke="#b40000" y="0" x="0" stroke-width="2" fill="none"/>
   <text font-size="36px" y="45" x="260" font-family="Sans" fill="#b40000">R12</text>
   <rect height="50" width="184" stroke="#008000" y="7" x="4" stroke-width="2" fill="none"/>
   <text font-size="22" y="39" x="184" font-family="Sans" fill="#008000">R12D</text>
   <rect height="42" width="112" stroke="#F0F" y="11" x="8" stroke-width="2" fill="none"/>
   <text font-size="20px" y="38" x="118" font-family="Sans" fill="#ff00ff">R12W</text>
   <rect height="34" width="44" stroke="#a0a0a0" y="15" x="12" stroke-width="2" fill="none"/>
   <text font-size="14px" y="36" x="54" font-family="Sans" fill="#a0a0a0">R12B</text>
  </g>
  <g transform="translate(576,72)">
   <rect height="64" width="264" stroke="#b40000" y="0" x="0" stroke-width="2" fill="none"/>
   <text font-size="36px" y="45" x="260" font-family="Sans" fill="#b40000">R13</text>
   <rect height="50" width="184" stroke="#008000" y="7" x="4" stroke-width="2" fill="none"/>
   <text font-size="22" y="39" x="184" font-family="Sans" fill="#008000">R13D</text>
   <rect height="42" width="112" stroke="#F0F" y="11" x="8" stroke-width="2" fill="none"/>
   <text font-size="20px" y="38" x="118" font-family="Sans" fill="#ff00ff">R13W</text>
   <rect height="34" width="44" stroke="#a0a0a0" y="15" x="12" stroke-width="2" fill="none"/>
   <text font-size="14px" y="36" x="54" font-family="Sans" fill="#a0a0a0">R13B</text>
  </g>
  <g transform="translate(576,144)">
   <rect height="64" width="264" stroke="#b40000" y="0" x="0" stroke-width="2" fill="none"/>
   <text font-size="36px" y="45" x="260" font-family="Sans" fill="#b40000">R14</text>
   <rect height="50" width="184" stroke="#008000" y="7" x="4" stroke-width="2" fill="none"/>
   <text font-size="22" y="39" x="184" font-family="Sans" fill="#008000">R14D</text>
   <rect height="42" width="112" stroke="#F0F" y="11" x="8" stroke-width="2" fill="none"/>
   <text font-size="20px" y="38" x="118" font-family="Sans" fill="#ff00ff">R14W</text>
   <rect height="34" width="44" stroke="#a0a0a0" y="15" x="12" stroke-width="2" fill="none"/>
   <text font-size="14px" y="36" x="54" font-family="Sans" fill="#a0a0a0">R14B</text>
  </g>
  <g transform="translate(576,216)">
   <rect height="64" width="264" stroke="#b40000" y="0" x="0" stroke-width="2" fill="none"/>
   <text font-size="36px" y="45" x="260" font-family="Sans" fill="#b40000">R15</text>
   <rect height="50" width="184" stroke="#008000" y="7" x="4" stroke-width="2" fill="none"/>
   <text font-size="22" y="39" x="184" font-family="Sans" fill="#008000">R15D</text>
   <rect height="42" width="112" stroke="#F0F" y="11" x="8" stroke-width="2" fill="none"/>
   <text font-size="20px" y="38" x="118" font-family="Sans" fill="#ff00ff">R15W</text>
   <rect height="34" width="44" stroke="#a0a0a0" y="15" x="12" stroke-width="2" fill="none"/>
   <text font-size="14px" y="36" x="54" font-family="Sans" fill="#a0a0a0">R15B</text>
  </g>
  <g transform="translate(0,288)">
   <rect height="64" width="264" stroke="#b40000" y="0" x="0" stroke-width="2" fill="none"/>
   <text font-size="40px" y="47" x="260" font-family="Sans" fill="#b40000">RBP</text>
   <rect height="50" width="176" stroke="#008000" y="7" x="4" stroke-width="2" fill="none"/>
   <text font-size="36px" y="45" x="176" font-family="Sans" fill="#008000">EBP</text>
   <rect height="42" width="100" stroke="#F0F" y="11" x="8" stroke-width="2" fill="none"/>
   <text font-size="34px" y="44" x="104" font-family="Sans" fill="#ff00ff">BP</text>
   <rect height="34" width="44" stroke="#a0a0a0" y="15" x="12" stroke-width="2" fill="none"/>
   <text font-size="22px" y="40" x="54" font-family="Sans" fill="#a0a0a0">BPL</text>
  </g>
  <g transform="translate(288,288)">
   <rect height="64" width="264" stroke="#b40000" y="0" x="0" stroke-width="2" fill="none"/>
   <text font-size="40px" y="47" x="260" font-family="Sans" fill="#b40000">RDI</text>
   <rect height="50" width="176" stroke="#008000" y="7" x="4" stroke-width="2" fill="none"/>
   <text font-size="36px" y="45" x="176" font-family="Sans" fill="#008000">EDI</text>
   <rect height="42" width="100" stroke="#F0F" y="11" x="8" stroke-width="2" fill="none"/>
   <text font-size="34px" y="44" x="104" font-family="Sans" fill="#ff00ff">DI</text>
   <rect height="34" width="44" stroke="#a0a0a0" y="15" x="12" stroke-width="2" fill="none"/>
   <text font-size="22px" y="40" x="54" font-family="Sans" fill="#a0a0a0">DIL</text>
  </g>
  <g transform="translate(576,288)">
   <rect height="64" width="264" stroke="#b40000" y="0" x="0" stroke-width="2" fill="none"/>
   <text font-size="40px" y="47" x="260" font-family="Sans" fill="#b40000">RIP</text>
   <rect height="50" width="176" stroke="#008000" y="7" x="4" stroke-width="2" fill="none"/>
   <text font-size="36px" y="45" x="176" font-family="Sans" fill="#008000">EIP</text>
   <rect height="42" width="100" stroke="#F0F" y="11" x="8" stroke-width="2" fill="none"/>
   <text font-size="34px" y="44" x="104" font-family="Sans" fill="#ff00ff">IP</text>
  </g>
  <g transform="translate(0,360)">
   <rect height="64" width="264" stroke="#b40000" y="0" x="0" stroke-width="2" fill="none"/>
   <text font-size="40px" y="47" x="260" font-family="Sans" fill="#b40000">RSI</text>
   <rect height="50" width="176" stroke="#008000" y="7" x="4" stroke-width="2" fill="none"/>
   <text font-size="36px" y="45" x="176" font-family="Sans" fill="#008000">ESI</text>
   <rect height="42" width="100" stroke="#F0F" y="11" x="8" stroke-width="2" fill="none"/>
   <text font-size="34px" y="44" x="104" font-family="Sans" fill="#ff00ff">SI</text>
   <rect height="34" width="44" stroke="#a0a0a0" y="15" x="12" stroke-width="2" fill="none"/>
   <text font-size="22px" y="40" x="54" font-family="Sans" fill="#a0a0a0">SIL</text>
  </g>
  <g transform="translate(288,360)">
   <rect height="64" width="264" stroke="#b40000" y="0" x="0" stroke-width="2" fill="none"/>
   <text font-size="40px" y="47" x="260" font-family="Sans" fill="#b40000">RSP</text>
   <rect height="50" width="176" stroke="#008000" y="7" x="4" stroke-width="2" fill="none"/>
   <text font-size="36px" y="45" x="176" font-family="Sans" fill="#008000">ESP</text>
   <rect height="42" width="100" stroke="#F0F" y="11" x="8" stroke-width="2" fill="none"/>
   <text font-size="34px" y="44" x="104" font-family="Sans" fill="#ff00ff">SP</text>
   <rect height="34" width="44" stroke="#a0a0a0" y="15" x="12" stroke-width="2" fill="none"/>
   <text font-size="22px" y="40" x="54" font-family="Sans" fill="#a0a0a0">SPL</text>
  </g>
 </g>
 <g text-anchor="middle" transform="translate(2602,2)">
  <rect height="64" width="144" stroke="#b40000" y="0" x="0" stroke-width="2" fill="none"/>
  <text font-size="40px" y="47" x="72" font-family="Sans" fill="#b40000">CR0</text>
  <g transform="translate(0,72)">
   <rect height="64" width="144" stroke="#b40000" y="0" x="0" stroke-width="2" fill="none"/>
   <text font-size="40px" y="47" x="72" font-family="Sans" fill="#b40000">CR1</text>
  </g>
  <g transform="translate(0,144)">
   <rect height="64" width="144" stroke="#b40000" y="0" x="0" stroke-width="2" fill="none"/>
   <text font-size="40px" y="47" x="72" font-family="Sans" fill="#b40000">CR2</text>
  </g>
  <g transform="translate(0,216)">
   <rect height="64" width="144" stroke="#b40000" y="0" x="0" stroke-width="2" fill="none"/>
   <text font-size="40px" y="47" x="72" font-family="Sans" fill="#b40000">CR3</text>
  </g>
  <g transform="translate(0,288)">
   <rect height="64" width="144" stroke="#008000" y="0" x="0" stroke-width="2" fill="none"/>
   <text font-size="40px" y="47" x="72" font-family="Sans" fill="#008000">CR3</text>
  </g>
  <g transform="translate(0,360)">
   <rect height="64" width="144" stroke="#b40000" y="0" x="0" stroke-width="2" fill="none"/>
   <text font-size="40px" y="47" x="72" font-family="Sans" fill="#b40000">MSW</text>
  </g>
  <g transform="translate(152,0)">
   <rect height="64" width="144" stroke="#b40000" y="0" x="0" stroke-width="2" fill="none"/>
   <text font-size="40px" y="47" x="72" font-family="Sans" fill="#b40000">CR4</text>
  </g>
  <g transform="translate(152,72)">
   <rect height="64" width="144" stroke="#b40000" y="0" x="0" stroke-width="2" fill="none"/>
   <text font-size="40px" y="47" x="72" font-family="Sans" fill="#b40000">CR5</text>
  </g>
  <g transform="translate(152,144)">
   <rect height="64" width="144" stroke="#b40000" y="0" x="0" stroke-width="2" fill="none"/>
   <text font-size="40px" y="47" x="72" font-family="Sans" fill="#b40000">CR6</text>
  </g>
  <g transform="translate(152,216)">
   <rect height="64" width="144" stroke="#b40000" y="0" x="0" stroke-width="2" fill="none"/>
   <text font-size="40px" y="47" x="72" font-family="Sans" fill="#b40000">CR7</text>
  </g>
  <g transform="translate(152,288)">
   <rect height="64" width="144" stroke="#b40000" y="0" x="0" stroke-width="2" fill="none"/>
   <text font-size="40px" y="47" x="72" font-family="Sans" fill="#b40000">CR8</text>
  </g>
  <g transform="translate(152,360)">
   <rect height="64" width="144" stroke="#b40000" y="0" x="0" stroke-width="2" fill="none"/>
   <text font-size="40px" y="47" x="72" font-family="Sans" fill="#b40000">CR9</text>
  </g>
  <g transform="translate(152,432)">
   <rect height="64" width="144" stroke="#b40000" y="0" x="0" stroke-width="2" fill="none"/>
   <text font-size="40px" y="47" x="72" font-family="Sans" fill="#b40000">CR10</text>
  </g>
  <g transform="translate(152,504)">
   <rect height="64" width="144" stroke="#b40000" y="0" x="0" stroke-width="2" fill="none"/>
   <text font-size="40px" y="47" x="72" font-family="Sans" fill="#b40000">CR11</text>
  </g>
  <g transform="translate(152,576)">
   <rect height="64" width="144" stroke="#b40000" y="0" x="0" stroke-width="2" fill="none"/>
   <text font-size="40px" y="47" x="72" font-family="Sans" fill="#b40000">CR12</text>
  </g>
  <g transform="translate(152,648)">
   <rect height="64" width="144" stroke="#b40000" y="0" x="0" stroke-width="2" fill="none"/>
   <text font-size="40px" y="47" x="72" font-family="Sans" fill="#b40000">CR13</text>
  </g>
  <g transform="translate(152,720)">
   <rect height="64" width="144" stroke="#b40000" y="0" x="0" stroke-width="2" fill="none"/>
   <text font-size="40px" y="47" x="72" font-family="Sans" fill="#b40000">CR14</text>
  </g>
  <g transform="translate(152,792)">
   <rect height="64" width="144" stroke="#b40000" y="0" x="0" stroke-width="2" fill="none"/>
   <text font-size="40px" y="47" x="72" font-family="Sans" fill="#b40000">CR15</text>
  </g>
  <g transform="translate(304,792)">
   <rect height="64" width="144" stroke="#008000" y="0" x="0" stroke-width="2" fill="none"/>
   <text font-size="40px" y="47" x="72" font-family="Sans" fill="#008000">MXCSR</text>
  </g>
 </g>
 <g text-anchor="middle" transform="translate(2426,650)">
  <rect height="64" width="144" stroke="#b40000" y="0" x="0" stroke-width="2" fill="none"/>
  <text font-size="40px" y="47" x="72" font-family="Sans" fill="#b40000">DR0</text>
  <g transform="translate(0,72)">
   <rect height="64" width="144" stroke="#b40000" y="0" x="0" stroke-width="2" fill="none"/>
   <text font-size="40px" y="47" x="72" font-family="Sans" fill="#b40000">DR1</text>
  </g>
  <g transform="translate(0,144)">
   <rect height="64" width="144" stroke="#b40000" y="0" x="0" stroke-width="2" fill="none"/>
   <text font-size="40px" y="47" x="72" font-family="Sans" fill="#b40000">DR2</text>
  </g>
  <g transform="translate(0,216)">
   <rect height="64" width="144" stroke="#b40000" y="0" x="0" stroke-width="2" fill="none"/>
   <text font-size="40px" y="47" x="72" font-family="Sans" fill="#b40000">DR3</text>
  </g>
  <g transform="translate(0,288)">
   <rect height="64" width="144" stroke="#b40000" y="0" x="0" stroke-width="2" fill="none"/>
   <text font-size="40px" y="47" x="72" font-family="Sans" fill="#b40000">DR4</text>
  </g>
  <g transform="translate(0,360)">
   <rect height="64" width="144" stroke="#b40000" y="0" x="0" stroke-width="2" fill="none"/>
   <text font-size="40px" y="47" x="72" font-family="Sans" fill="#b40000">DR5</text>
  </g>
  <g transform="translate(152,0)">
   <rect height="64" width="144" stroke="#b40000" y="0" x="0" stroke-width="2" fill="none"/>
   <text font-size="40px" y="47" x="72" font-family="Sans" fill="#b40000">DR6</text>
  </g>
  <g transform="translate(152,72)">
   <rect height="64" width="144" stroke="#b40000" y="0" x="0" stroke-width="2" fill="none"/>
   <text font-size="40px" y="47" x="72" font-family="Sans" fill="#b40000">DR7</text>
  </g>
  <g transform="translate(152,144)">
   <rect height="64" width="144" stroke="#b40000" y="0" x="0" stroke-width="2" fill="none"/>
   <text font-size="40px" y="47" x="72" font-family="Sans" fill="#b40000">DR8</text>
  </g>
  <g transform="translate(152,216)">
   <rect height="64" width="144" stroke="#b40000" y="0" x="0" stroke-width="2" fill="none"/>
   <text font-size="40px" y="47" x="72" font-family="Sans" fill="#b40000">DR9</text>
  </g>
  <g transform="translate(152,288)">
   <rect height="64" width="144" stroke="#b40000" y="0" x="0" stroke-width="2" fill="none"/>
   <text font-size="40px" y="47" x="72" font-family="Sans" fill="#b40000">DR10</text>
  </g>
  <g transform="translate(152,360)">
   <rect height="64" width="144" stroke="#b40000" y="0" x="0" stroke-width="2" fill="none"/>
   <text font-size="40px" y="47" x="72" font-family="Sans" fill="#b40000">DR11</text>
  </g>
  <g transform="translate(304,288)">
   <rect height="64" width="144" stroke="#b40000" y="0" x="0" stroke-width="2" fill="none"/>
   <text font-size="40px" y="47" x="72" font-family="Sans" fill="#b40000">DR12</text>
  </g>
  <g transform="translate(304,360)">
   <rect height="64" width="144" stroke="#b40000" y="0" x="0" stroke-width="2" fill="none"/>
   <text font-size="40px" y="47" x="72" font-family="Sans" fill="#b40000">DR13</text>
  </g>
  <g transform="translate(456,288)">
   <rect height="64" width="144" stroke="#b40000" y="0" x="0" stroke-width="2" fill="none"/>
   <text font-size="40px" y="47" x="72" font-family="Sans" fill="#b40000">DR14</text>
  </g>
  <g transform="translate(456,360)">
   <rect height="64" width="144" stroke="#b40000" y="0" x="0" stroke-width="2" fill="none"/>
   <text font-size="40px" y="47" x="72" font-family="Sans" fill="#b40000">DR15</text>
  </g>
 </g>
 <g text-anchor="middle" transform="translate(1642,650)">
  <rect height="64" width="120" stroke="#F0F" y="0" x="0" stroke-width="2" fill="none"/>
  <text font-size="40px" y="47" x="60" font-family="Sans" fill="#ff00ff">CS</text>
  <g transform="translate(128,0)">
   <rect height="64" width="120" stroke="#F0F" y="0" x="0" stroke-width="2" fill="none"/>
   <text font-size="40px" y="47" x="60" font-family="Sans" fill="#ff00ff">SS</text>
  </g>
  <g transform="translate(256,0)">
   <rect height="64" width="120" stroke="#F0F" y="0" x="0" stroke-width="2" fill="none"/>
   <text font-size="40px" y="47" x="60" font-family="Sans" fill="#ff00ff">DS</text>
  </g>
  <g transform="translate(0,72)">
   <rect height="64" width="120" stroke="#F0F" y="0" x="0" stroke-width="2" fill="none"/>
   <text font-size="40px" y="47" x="60" font-family="Sans" fill="#ff00ff">ES</text>
  </g>
  <g transform="translate(128,72)">
   <rect height="64" width="120" stroke="#F0F" y="0" x="0" stroke-width="2" fill="none"/>
   <text font-size="40px" y="47" x="60" font-family="Sans" fill="#ff00ff">FS</text>
  </g>
  <g transform="translate(256,72)">
   <rect height="64" width="120" stroke="#F0F" y="0" x="0" stroke-width="2" fill="none"/>
   <text font-size="40px" y="47" x="60" font-family="Sans" fill="#ff00ff">GS</text>
  </g>
 </g>
 <g text-anchor="middle" transform="translate(2050,650)">
  <rect height="64" width="168" stroke="#F0F" y="0" x="0" stroke-width="2" fill="none"/>
  <text font-size="40px" y="47" x="84" font-family="Sans" fill="#ff00ff">GDTR</text>
  <g transform="translate(176,0)">
   <rect height="64" width="168" stroke="#F0F" y="0" x="0" stroke-width="2" fill="none"/>
   <text font-size="40px" y="47" x="84" font-family="Sans" fill="#ff00ff">IDTR</text>
  </g>
  <g transform="translate(0,72)">
   <rect height="64" width="168" stroke="#F0F" y="0" x="0" stroke-width="2" fill="none"/>
   <text font-size="40px" y="47" x="84" font-family="Sans" fill="#ff00ff">TR</text>
  </g>
  <g transform="translate(176,72)">
   <rect height="64" width="168" stroke="#F0F" y="0" x="0" stroke-width="2" fill="none"/>
   <text font-size="40px" y="47" x="84" font-family="Sans" fill="#ff00ff">LDTR</text>
  </g>
 </g>
 <g text-anchor="end" transform="translate(2050,818)">
  <rect height="64" width="344" stroke="#b40000" y="0" x="0" stroke-width="2" fill="none"/>
  <text font-size="40px" y="47" x="340" font-family="Sans" fill="#b40000">RFLAGS</text>
  <rect height="50" width="176" stroke="#008000" y="7" x="4" stroke-width="2" fill="none"/>
  <text font-size="20px" y="40" x="176" font-family="Sans" fill="#008000">EFLAGS</text>
  <rect height="42" width="86" stroke="#F0F" y="11" x="8" stroke-width="2" fill="none"/>
  <text font-size="20px" y="40" x="84" font-family="Sans" fill="#ff00ff">FLAGS</text>
 </g>
</svg>
