<?xml version="1.0" encoding="UTF-8" standalone="no"?>
<!DOCTYPE svg PUBLIC "-//W3C//DTD SVG 1.1//EN"
 "http://www.w3.org/Graphics/SVG/1.1/DTD/svg11.dtd">
<!-- Generated by graphviz version 2.40.1 (20161225.0304)
 -->
<!-- Title: G Pages: 1 -->
<svg width="1353pt" height="332pt"
 viewBox="0.00 0.00 1353.29 332.00" xmlns="http://www.w3.org/2000/svg" xmlns:xlink="http://www.w3.org/1999/xlink">
<g id="graph0" class="graph" transform="scale(1 1) rotate(0) translate(4 328)">
<title>G</title>
<polygon fill="#ffffff" stroke="transparent" points="-4,4 -4,-328 1349.286,-328 1349.286,4 -4,4"/>
<!-- ISA -->
<g id="node1" class="node">
<title>ISA</title>
<ellipse fill="none" stroke="#000000" cx="540.9931" cy="-306" rx="27" ry="18"/>
<text text-anchor="middle" x="540.9931" y="-302.3" font-family="Times,serif" font-size="14.00" fill="#000000">ISA</text>
</g>
<!-- Estructura de la Computadora -->
<g id="node2" class="node">
<title>Estructura de la Computadora</title>
<ellipse fill="none" stroke="#000000" cx="254.9931" cy="-234" rx="116.9792" ry="18"/>
<text text-anchor="middle" x="254.9931" y="-230.3" font-family="Times,serif" font-size="14.00" fill="#000000">Estructura de la Computadora</text>
</g>
<!-- ISA&#45;&gt;Estructura de la Computadora -->
<g id="edge1" class="edge">
<title>ISA&#45;&gt;Estructura de la Computadora</title>
<path fill="none" stroke="#000000" d="M515.6125,-299.6105C473.5251,-289.0151 387.8239,-267.4399 326.1749,-251.9199"/>
<polygon fill="#000000" stroke="#000000" points="326.6661,-248.4344 316.1142,-249.3871 324.9572,-255.2226 326.6661,-248.4344"/>
</g>
<!-- Formatos -->
<g id="node3" class="node">
<title>Formatos</title>
<ellipse fill="none" stroke="#000000" cx="540.9931" cy="-234" rx="44.393" ry="18"/>
<text text-anchor="middle" x="540.9931" y="-230.3" font-family="Times,serif" font-size="14.00" fill="#000000">Formatos</text>
</g>
<!-- ISA&#45;&gt;Formatos -->
<g id="edge2" class="edge">
<title>ISA&#45;&gt;Formatos</title>
<path fill="none" stroke="#000000" d="M540.9931,-287.8314C540.9931,-280.131 540.9931,-270.9743 540.9931,-262.4166"/>
<polygon fill="#000000" stroke="#000000" points="544.4932,-262.4132 540.9931,-252.4133 537.4932,-262.4133 544.4932,-262.4132"/>
</g>
<!-- Repertorio de instrucciones -->
<g id="node4" class="node">
<title>Repertorio de instrucciones</title>
<ellipse fill="none" stroke="#000000" cx="977.9931" cy="-234" rx="107.781" ry="18"/>
<text text-anchor="middle" x="977.9931" y="-230.3" font-family="Times,serif" font-size="14.00" fill="#000000">Repertorio de instrucciones</text>
</g>
<!-- ISA&#45;&gt;Repertorio de instrucciones -->
<g id="edge3" class="edge">
<title>ISA&#45;&gt;Repertorio de instrucciones</title>
<path fill="none" stroke="#000000" d="M567.3453,-301.6582C629.9651,-291.341 789.9688,-264.9788 890.7594,-248.3726"/>
<polygon fill="#000000" stroke="#000000" points="891.6301,-251.7764 900.928,-246.6972 890.4921,-244.8695 891.6301,-251.7764"/>
</g>
<!-- CPU -->
<g id="node5" class="node">
<title>CPU</title>
<ellipse fill="none" stroke="#000000" cx="75.9931" cy="-162" rx="27.8951" ry="18"/>
<text text-anchor="middle" x="75.9931" y="-158.3" font-family="Times,serif" font-size="14.00" fill="#000000">CPU</text>
</g>
<!-- Estructura de la Computadora&#45;&gt;CPU -->
<g id="edge4" class="edge">
<title>Estructura de la Computadora&#45;&gt;CPU</title>
<path fill="none" stroke="#000000" d="M208.2065,-217.4039C180.3136,-207.2143 144.3441,-193.5549 112.9931,-180 111.1736,-179.2133 109.3138,-178.3857 107.4438,-177.5352"/>
<polygon fill="#000000" stroke="#000000" points="108.6884,-174.2532 98.1484,-173.1765 105.7165,-180.591 108.6884,-174.2532"/>
</g>
<!-- Memoria -->
<g id="node6" class="node">
<title>Memoria</title>
<ellipse fill="none" stroke="#000000" cx="165.9931" cy="-162" rx="44.393" ry="18"/>
<text text-anchor="middle" x="165.9931" y="-158.3" font-family="Times,serif" font-size="14.00" fill="#000000">Memoria</text>
</g>
<!-- Estructura de la Computadora&#45;&gt;Memoria -->
<g id="edge5" class="edge">
<title>Estructura de la Computadora&#45;&gt;Memoria</title>
<path fill="none" stroke="#000000" d="M232.9931,-216.2022C221.1698,-206.6373 206.4708,-194.7461 193.8558,-184.5406"/>
<polygon fill="#000000" stroke="#000000" points="195.8938,-181.6874 185.9179,-178.119 191.4911,-187.1296 195.8938,-181.6874"/>
</g>
<!-- I/O -->
<g id="node7" class="node">
<title>I/O</title>
<ellipse fill="none" stroke="#000000" cx="254.9931" cy="-162" rx="27" ry="18"/>
<text text-anchor="middle" x="254.9931" y="-158.3" font-family="Times,serif" font-size="14.00" fill="#000000">I/O</text>
</g>
<!-- Estructura de la Computadora&#45;&gt;I/O -->
<g id="edge6" class="edge">
<title>Estructura de la Computadora&#45;&gt;I/O</title>
<path fill="none" stroke="#000000" d="M254.9931,-215.8314C254.9931,-208.131 254.9931,-198.9743 254.9931,-190.4166"/>
<polygon fill="#000000" stroke="#000000" points="258.4932,-190.4132 254.9931,-180.4133 251.4932,-190.4133 258.4932,-190.4132"/>
</g>
<!-- Bus -->
<g id="node8" class="node">
<title>Bus</title>
<ellipse fill="none" stroke="#000000" cx="326.9931" cy="-162" rx="27" ry="18"/>
<text text-anchor="middle" x="326.9931" y="-158.3" font-family="Times,serif" font-size="14.00" fill="#000000">Bus</text>
</g>
<!-- Estructura de la Computadora&#45;&gt;Bus -->
<g id="edge7" class="edge">
<title>Estructura de la Computadora&#45;&gt;Bus</title>
<path fill="none" stroke="#000000" d="M272.7908,-216.2022C282.4416,-206.5515 294.4608,-194.5323 304.727,-184.2661"/>
<polygon fill="#000000" stroke="#000000" points="307.2375,-186.7054 311.8337,-177.1594 302.2877,-181.7556 307.2375,-186.7054"/>
</g>
<!-- Instrucciones -->
<g id="node12" class="node">
<title>Instrucciones</title>
<ellipse fill="none" stroke="#000000" cx="451.9931" cy="-162" rx="57.6901" ry="18"/>
<text text-anchor="middle" x="451.9931" y="-158.3" font-family="Times,serif" font-size="14.00" fill="#000000">Instrucciones</text>
</g>
<!-- Formatos&#45;&gt;Instrucciones -->
<g id="edge11" class="edge">
<title>Formatos&#45;&gt;Instrucciones</title>
<path fill="none" stroke="#000000" d="M520.7976,-217.6621C508.9905,-208.1102 493.8904,-195.8945 480.8459,-185.3416"/>
<polygon fill="#000000" stroke="#000000" points="483.0131,-182.5929 473.0373,-179.0245 478.6104,-188.0351 483.0131,-182.5929"/>
</g>
<!-- Datos -->
<g id="node14" class="node">
<title>Datos</title>
<ellipse fill="none" stroke="#000000" cx="629.9931" cy="-162" rx="31.3957" ry="18"/>
<text text-anchor="middle" x="629.9931" y="-158.3" font-family="Times,serif" font-size="14.00" fill="#000000">Datos</text>
</g>
<!-- Formatos&#45;&gt;Datos -->
<g id="edge13" class="edge">
<title>Formatos&#45;&gt;Datos</title>
<path fill="none" stroke="#000000" d="M561.1886,-217.6621C573.7602,-207.4918 590.065,-194.3014 603.6468,-183.3138"/>
<polygon fill="#000000" stroke="#000000" points="606.1206,-185.8145 611.6938,-176.8039 601.718,-180.3723 606.1206,-185.8145"/>
</g>
<!-- Operaciones -->
<g id="node16" class="node">
<title>Operaciones</title>
<ellipse fill="none" stroke="#000000" cx="977.9931" cy="-162" rx="54.6905" ry="18"/>
<text text-anchor="middle" x="977.9931" y="-158.3" font-family="Times,serif" font-size="14.00" fill="#000000">Operaciones</text>
</g>
<!-- Repertorio de instrucciones&#45;&gt;Operaciones -->
<g id="edge15" class="edge">
<title>Repertorio de instrucciones&#45;&gt;Operaciones</title>
<path fill="none" stroke="#000000" d="M977.9931,-215.8314C977.9931,-208.131 977.9931,-198.9743 977.9931,-190.4166"/>
<polygon fill="#000000" stroke="#000000" points="981.4932,-190.4132 977.9931,-180.4133 974.4932,-190.4133 981.4932,-190.4132"/>
</g>
<!-- Modos de Direccionamiento -->
<g id="node18" class="node">
<title>Modos de Direccionamiento</title>
<ellipse fill="none" stroke="#000000" cx="1213.9931" cy="-162" rx="112.3801" ry="18"/>
<text text-anchor="middle" x="1213.9931" y="-158.3" font-family="Times,serif" font-size="14.00" fill="#000000">Modos de Direccionamiento</text>
</g>
<!-- Repertorio de instrucciones&#45;&gt;Modos de Direccionamiento -->
<g id="edge17" class="edge">
<title>Repertorio de instrucciones&#45;&gt;Modos de Direccionamiento</title>
<path fill="none" stroke="#000000" d="M1029.7843,-218.1993C1065.6559,-207.2554 1113.597,-192.6293 1151.579,-181.0416"/>
<polygon fill="#000000" stroke="#000000" points="1152.9637,-184.2785 1161.5071,-178.0127 1150.921,-177.5831 1152.9637,-184.2785"/>
</g>
<!-- Jerarquía -->
<g id="node9" class="node">
<title>Jerarquía</title>
<ellipse fill="none" stroke="#000000" cx="147.9931" cy="-90" rx="42.7926" ry="18"/>
<text text-anchor="middle" x="147.9931" y="-86.3" font-family="Times,serif" font-size="14.00" fill="#000000">Jerarquía</text>
</g>
<!-- Memoria&#45;&gt;Jerarquía -->
<g id="edge8" class="edge">
<title>Memoria&#45;&gt;Jerarquía</title>
<path fill="none" stroke="#000000" d="M161.4509,-143.8314C159.4747,-135.9266 157.1149,-126.4872 154.9272,-117.7365"/>
<polygon fill="#000000" stroke="#000000" points="158.2924,-116.7659 152.4714,-107.9134 151.5014,-118.4637 158.2924,-116.7659"/>
</g>
<!-- Memoria Principal -->
<g id="node10" class="node">
<title>Memoria Principal</title>
<ellipse fill="none" stroke="#000000" cx="77.9931" cy="-18" rx="77.9862" ry="18"/>
<text text-anchor="middle" x="77.9931" y="-14.3" font-family="Times,serif" font-size="14.00" fill="#000000">Memoria Principal</text>
</g>
<!-- Jerarquía&#45;&gt;Memoria Principal -->
<g id="edge9" class="edge">
<title>Jerarquía&#45;&gt;Memoria Principal</title>
<path fill="none" stroke="#000000" d="M131.7577,-73.3008C123.0036,-64.2965 112.0259,-53.0052 102.2762,-42.9769"/>
<polygon fill="#000000" stroke="#000000" points="104.5973,-40.3434 95.117,-35.6132 99.5783,-45.2229 104.5973,-40.3434"/>
</g>
<!-- Registros -->
<g id="node11" class="node">
<title>Registros</title>
<ellipse fill="none" stroke="#000000" cx="217.9931" cy="-18" rx="44.393" ry="18"/>
<text text-anchor="middle" x="217.9931" y="-14.3" font-family="Times,serif" font-size="14.00" fill="#000000">Registros</text>
</g>
<!-- Jerarquía&#45;&gt;Registros -->
<g id="edge10" class="edge">
<title>Jerarquía&#45;&gt;Registros</title>
<path fill="none" stroke="#000000" d="M164.2284,-73.3008C173.1113,-64.1641 184.2836,-52.6726 194.1393,-42.5353"/>
<polygon fill="#000000" stroke="#000000" points="196.8984,-44.7184 201.3597,-35.1086 191.8794,-39.8388 196.8984,-44.7184"/>
</g>
<!-- Código Operaciones &#45; Ref Operando Fuente -->
<g id="node13" class="node">
<title>Código Operaciones &#45; Ref Operando Fuente</title>
<ellipse fill="none" stroke="#000000" cx="375.9931" cy="-90" rx="167.0704" ry="18"/>
<text text-anchor="middle" x="375.9931" y="-86.3" font-family="Times,serif" font-size="14.00" fill="#000000">Código Operaciones &#45; Ref Operando Fuente</text>
</g>
<!-- Instrucciones&#45;&gt;Código Operaciones &#45; Ref Operando Fuente -->
<g id="edge12" class="edge">
<title>Instrucciones&#45;&gt;Código Operaciones &#45; Ref Operando Fuente</title>
<path fill="none" stroke="#000000" d="M433.5956,-144.5708C424.2837,-135.749 412.8092,-124.8784 402.5587,-115.1674"/>
<polygon fill="#000000" stroke="#000000" points="404.6815,-112.3572 395.0148,-108.0206 399.8673,-117.4389 404.6815,-112.3572"/>
</g>
<!-- Enteros Complemento a 2 -->
<g id="node15" class="node">
<title>Enteros Complemento a 2</title>
<ellipse fill="none" stroke="#000000" cx="664.9931" cy="-90" rx="103.9815" ry="18"/>
<text text-anchor="middle" x="664.9931" y="-86.3" font-family="Times,serif" font-size="14.00" fill="#000000">Enteros Complemento a 2</text>
</g>
<!-- Datos&#45;&gt;Enteros Complemento a 2 -->
<g id="edge14" class="edge">
<title>Datos&#45;&gt;Enteros Complemento a 2</title>
<path fill="none" stroke="#000000" d="M638.4656,-144.5708C642.4597,-136.3544 647.3177,-126.3608 651.7796,-117.1821"/>
<polygon fill="#000000" stroke="#000000" points="655.0089,-118.5445 656.2331,-108.0206 648.7133,-115.4841 655.0089,-118.5445"/>
</g>
<!-- Transferencia&#45;Aritmética&#45;Lógica&#45;SaltoCondicional -->
<g id="node17" class="node">
<title>Transferencia&#45;Aritmética&#45;Lógica&#45;SaltoCondicional</title>
<ellipse fill="none" stroke="#000000" cx="977.9931" cy="-90" rx="191.1661" ry="18"/>
<text text-anchor="middle" x="977.9931" y="-86.3" font-family="Times,serif" font-size="14.00" fill="#000000">Transferencia&#45;Aritmética&#45;Lógica&#45;SaltoCondicional</text>
</g>
<!-- Operaciones&#45;&gt;Transferencia&#45;Aritmética&#45;Lógica&#45;SaltoCondicional -->
<g id="edge16" class="edge">
<title>Operaciones&#45;&gt;Transferencia&#45;Aritmética&#45;Lógica&#45;SaltoCondicional</title>
<path fill="none" stroke="#000000" d="M977.9931,-143.8314C977.9931,-136.131 977.9931,-126.9743 977.9931,-118.4166"/>
<polygon fill="#000000" stroke="#000000" points="981.4932,-118.4132 977.9931,-108.4133 974.4932,-118.4133 981.4932,-118.4132"/>
</g>
<!-- Dirección Absoluta -->
<g id="node19" class="node">
<title>Dirección Absoluta</title>
<ellipse fill="none" stroke="#000000" cx="1265.9931" cy="-90" rx="79.0865" ry="18"/>
<text text-anchor="middle" x="1265.9931" y="-86.3" font-family="Times,serif" font-size="14.00" fill="#000000">Dirección Absoluta</text>
</g>
<!-- Modos de Direccionamiento&#45;&gt;Dirección Absoluta -->
<g id="edge18" class="edge">
<title>Modos de Direccionamiento&#45;&gt;Dirección Absoluta</title>
<path fill="none" stroke="#000000" d="M1227.1149,-143.8314C1233.1962,-135.411 1240.5351,-125.2495 1247.1909,-116.0338"/>
<polygon fill="#000000" stroke="#000000" points="1250.0381,-118.0695 1253.0556,-107.9134 1244.3633,-113.971 1250.0381,-118.0695"/>
</g>
</g>
</svg>
