<?xml version="1.0" encoding="UTF-8" standalone="no"?>

<svg
   xmlns:dc="http://purl.org/dc/elements/1.1/"
   xmlns:cc="http://web.resource.org/cc/"
   xmlns:rdf="http://www.w3.org/1999/02/22-rdf-syntax-ns#"
   xmlns:svg="http://www.w3.org/2000/svg"
   xmlns="http://www.w3.org/2000/svg"
   xmlns:sodipodi="http://sodipodi.sourceforge.net/DTD/sodipodi-0.dtd"
   xmlns:inkscape="http://www.inkscape.org/namespaces/inkscape"
   xml:space="preserve"
   width="85mm"
   height="60mm"
   shape-rendering="geometricPrecision"
   text-rendering="geometricPrecision"
   image-rendering="optimizeQuality"
   fill-rule="evenodd"
   clip-rule="evenodd"
   viewBox="0 0 85 60"
   id="svg2"
   sodipodi:version="0.32"
   inkscape:version="0.45.1"
   sodipodi:docname="DRAM-Zelle (stack).svg"
   inkscape:output_extension="org.inkscape.output.svg.inkscape"
   sodipodi:docbase="D:\Projekte\Wikipedia"><metadata
   id="metadata1015"><rdf:RDF><cc:Work
       rdf:about=""><dc:format>image/svg+xml</dc:format><dc:type
         rdf:resource="http://purl.org/dc/dcmitype/StillImage" /></cc:Work></rdf:RDF></metadata><sodipodi:namedview
   inkscape:window-height="480"
   inkscape:window-width="640"
   inkscape:pageshadow="2"
   inkscape:pageopacity="0.0"
   guidetolerance="10.0"
   gridtolerance="10.0"
   objecttolerance="10.0"
   borderopacity="1.0"
   bordercolor="#666666"
   pagecolor="#ffffff"
   id="base" />
 <defs
   id="defs4" />
 <g
   id="Ebene_x0020_2">

  <g
   id="_127312304">
   <rect
   id="_177358928"
   fill="white"
   x="4.67215e-005"
   width="85"
   height="60" />
   <rect
   id="_177358384"
   fill="#BFCFFF"
   x="3.0743"
   y="42.6896"
   width="78.5244"
   height="10.2714" />
   <path
   id="_177357840"
   fill="#B2B2B2"
   d="M81.5987 11.6937c-24.5543,0 -37.2389,0 -42.3338,0 -5.0949,0 -10.9585,21.3343 -13.3355,21.3343 -2.3769,0 -7.8252,-21.3343 -12.0152,-21.3343l-10.8399 0 0 30.7961 78.5244 0 0 -30.7961z" />
   <path
   id="_177357056"
   fill="#6078BF"
   d="M50.2213 46.5674l11.0476 0c1.4118,0 2.5669,-1.502 2.5669,-3.3377l0 -0.7399 -16.1814 0 0 0.7399c0,1.8357 1.1551,3.3377 2.5669,3.3377z" />
   <path
   id="_177355384"
   fill="#6078BF"
   d="M22.6795 46.5674l5.1716 0 5.08 0c1.3101,0 2.382,-1.502 2.382,-3.3377l0 -0.7399 -5.08 0 -9.9356 0 -5.08 0 0 0.7399c0,1.8357 1.0719,3.3377 2.382,3.3377l5.08 0z" />
   <rect
   id="_177352624"
   fill="#4C4C4C"
   x="34.6187"
   y="41.0928"
   width="13.7352"
   height="1.3968" />
   <rect
   id="_177350432"
   fill="#798FD9"
   x="34.6187"
   y="34.691"
   width="13.7352"
   height="6.402" />
   <g
   id="g915">
    <path
   id="_177349496"
   fill="none"
   stroke="black"
   stroke-width="0.7056"
   d="M3.0743 37.266c17.7451,-0.5886 10.9493,2.477 16.2944,5.2238 -4.9036,1.5231 1.819,5.3928 -16.2944,5.1747" />
    <path
   id="_177344496"
   fill="#CCCCCC"
   d="M3.0743 37.266c17.7451,-0.5886 10.9493,2.477 16.2944,5.2238 -4.9036,1.5231 1.819,5.3928 -16.2944,5.1747l0 -10.3985z" />
   </g>
   <path
   id="_128507160"
   fill="none"
   stroke="black"
   stroke-width="0.7056"
   d="M81.5987 12.2238l-30.9168 0c-20.2692,0 -19.9239,17.7508 -20.4488,30.266m-8.4184 0c-0.8089,-12.576 -0.5044,-30.266 -18.7404,-30.266m0 -3.81l5.1689 0c15.8826,0 14.8047,24.5677 17.6862,24.6141 3.1906,0.0514 0.1833,-24.6141 23.0659,-24.6141l32.6034 0" />
   <path
   id="_177343592"
   fill="#CC9933"
   d="M81.5987 12.2238l-30.9168 0c-20.2692,0 -19.9239,17.7508 -20.4488,30.266l-8.4184 0c-0.8089,-12.576 -0.5044,-30.266 -18.7404,-30.266l0 -3.81 5.1689 0c15.8826,0 14.8047,24.5677 17.6862,24.6141 3.1906,0.0514 0.1833,-24.6141 23.0659,-24.6141l32.6034 0 0 3.81z" />
   <text
   x="2.2966"
   y="5.6705"
   id="_177334544"
   fill="black"
   font-weight="normal"
   font-size="4.9389"
   font-family="DejaVu Sans">Bit-Leitung</text>

   <text
   x="4.4535"
   y="58.4344"
   id="_177312696"
   fill="black"
   font-weight="normal"
   font-size="4.9389"
   font-family="DejaVu Sans">Word-Leitung</text>

   <text
   x="37.3597"
   y="5.5702"
   id="_177296360"
   fill="black"
   font-weight="normal"
   font-size="4.9389"
   font-family="DejaVu Sans">Kondensatorplatte</text>

   <g
   id="g924">
    <g
   transform="matrix(1.00002 0 0 1 -32.5156 13.7726)"
   id="g926">
     <text
   x="37.7028"
   y="30"
   id="_177296504"
   fill="black"
   font-weight="normal"
   font-size="2.8221"
   font-family="DejaVu Sans">SiO</text>

    </g>
    <g
   transform="matrix(1.00002 0 0 1 -32.645 14.598)"
   id="g929">
     <text
   x="42.5"
   y="30"
   id="_177302656"
   fill="black"
   font-weight="normal"
   font-size="2.1166"
   font-family="DejaVu Sans">2</text>

    </g>
   </g>
   <g
   id="g932">
    <g
   transform="matrix(1.00002 0 0 1 36.0436 -8.7381)"
   id="g934">
     <text
   x="37.7028"
   y="30"
   id="_177285048"
   fill="black"
   font-weight="normal"
   font-size="2.8221"
   font-family="DejaVu Sans">SiO</text>

    </g>
    <g
   transform="matrix(1.00002 0 0 1 35.9142 -7.9127)"
   id="g937">
     <text
   x="42.5"
   y="30"
   id="_177291104"
   fill="black"
   font-weight="normal"
   font-size="2.1166"
   font-family="DejaVu Sans">2</text>

    </g>
   </g>
   <g
   id="g940">
    <path
   id="_172111512"
   fill="none"
   stroke="black"
   stroke-width="0.7056"
   d="M81.5987 37.1928c-17.7451,-0.5886 -10.9493,2.477 -16.2944,5.2238 4.9036,1.5231 -1.819,5.3928 16.2944,5.1747" />
    <path
   id="_177353712"
   fill="#CCCCCC"
   d="M81.5987 37.1928c-17.7451,-0.5886 -10.9493,2.477 -16.2944,5.2238 4.9036,1.5231 -1.819,5.3928 16.2944,5.1747l0 -10.3985z" />
   </g>
   <g
   id="g944">
    <g
   transform="matrix(1.00002 0 0 1 36.7429 13.7418)"
   id="g946">
     <text
   x="37.7028"
   y="30"
   id="_177274016"
   fill="black"
   font-weight="normal"
   font-size="2.8221"
   font-family="DejaVu Sans">SiO</text>

    </g>
    <g
   transform="matrix(1.00002 0 0 1 36.6135 14.5672)"
   id="g949">
     <text
   x="42.5"
   y="30"
   id="_177279920"
   fill="black"
   font-weight="normal"
   font-size="2.1166"
   font-family="DejaVu Sans">2</text>

    </g>
   </g>
   <g
   id="g952">
    <g
   transform="matrix(0.999981 0.00707072 -0.00707076 0.999975 2.39244 8.90554)"
   id="g954">
     <text
   x="40.7113"
   y="30"
   id="_177207288"
   fill="black"
   font-weight="normal"
   font-size="2.8221"
   font-family="DejaVu Sans">n</text>

    </g>
    <g
   transform="matrix(0.999981 0.00707072 -0.00707076 0.999975 1.81134 7.37654)"
   id="g957">
     <text
   x="42.5"
   y="30"
   id="_177211976"
   fill="black"
   font-weight="normal"
   font-size="2.1165"
   font-family="DejaVu Sans">+</text>

    </g>
   </g>
   <text
   x="40.539"
   y="50.9585"
   id="_177249680"
   fill="black"
   font-weight="normal"
   font-size="2.8222"
   font-family="DejaVu Sans">p-Si</text>

   <text
   x="43.9275"
   y="17.7746"
   id="_177242424"
   fill="black"
   font-weight="normal"
   font-size="2.8222"
   font-family="DejaVu Sans">Dielektrikum</text>

   <text
   x="45.0393"
   y="21.0597"
   id="text962"
   fill="black"
   font-weight="normal"
   font-size="2.8222"
   font-family="DejaVu Sans">(z. B. ONO)</text>

   <g
   transform="matrix(0.999981 0.00707072 -0.00707076 0.999975 16.7 15.4568)"
   id="g964">
    <text
   x="37.1173"
   y="30"
   id="_126353144"
   fill="black"
   font-weight="normal"
   font-size="2.8221"
   font-family="DejaVu Sans">n-Si</text>

   </g>
   <g
   id="g967">
    <path
   id="_125952968"
   fill="black"
   fill-rule="nonzero"
   d="M32.3243 16.0901l-12.054 -8.8731 0.4162 -0.5678 12.054 8.8731 -0.4162 0.5678zm-1.3046 -3.0523l3.3444 4.1167 -4.9245 -1.9701 1.5801 -2.1466z" />
   </g>
   <g
   id="g970">
    <path
   fill="black"
   fill-rule="nonzero"
   d="M37.771 39.1751l-14.0597 14.6485 -0.5072 -0.4878 14.0597 -14.6485 0.5072 0.4878zm-3.1938 0.8957l4.5145 -2.7797 -2.5924 4.6246 -1.9221 -1.8449z"
   id="path972" />
   </g>
   <path
   fill="#4C4C4C"
   d="M40.1385 31.8981l16.4567 0 0 2.2974 5.0806 0 1.4725 -2.2974 15.4777 0 0 -0.4813c-1.6315,0 -2.4234,0 -4.0548,0 0,-1.1716 0,-2.3431 0,-3.5146 0,-0.8893 0,-0.8893 -0.6027,-0.8893 -14.5516,0 -13.1627,4.8852 -14.5516,4.9371 -1.3887,0.0519 -0.0012,-4.9356 -14.664,-4.9371l-0.0063 0c-0.5963,0 -0.5964,0.0032 -0.5964,0.8893 0,1.1715 0,2.343 0,3.5146l-4.0117 0 0 0.4813zm38.4875 -0.4813l0 -0.5698 -0.0075 0c0.0073,0.1473 0.0075,0.3334 0.0075,0.5698zm-22.7761 -4.2646c-0.0273,-0.0466 -0.0532,-0.0932 -0.0776,-0.1393l-0.0469 0c0.0416,0.0471 0.0831,0.0935 0.1245,0.1393z"
   id="path974" />
   <path
   fill="#6078BF"
   d="M57.3652 42.4898l4.1034 0 -0.0001 -5.0373c0,-3.0551 3.3177,-5.5543 7.3727,-5.5544l5.1273 -0.0001 0 -3.9959c-14.5516,0 -12.0445,4.9033 -14.5516,4.9032 -2.5071,-0.0001 0,-4.9032 -14.6696,-4.9032l0 3.996 5.2453 0c4.0551,0 7.3726,2.4993 7.3726,5.5544l0 5.0373z"
   id="path976" />
   <line
   fill="none"
   stroke="black"
   stroke-width="0.3528"
   x1="19.3687"
   y1="42.4898"
   x2="65.3043"
   y2="42.4898"
   id="line978" />
   <path
   fill="#9933CC"
   d="M76.1213 29.8974c0,0.3975 0.9477,0.3975 1.7262,0.3975 0.7785,0 0.7785,0 0.7785,1.1219 -1.6315,0 -2.4234,0 -4.0548,0 0,-1.1716 0,-2.3431 0,-3.5146 0,-0.8893 0,-0.8893 -0.6027,-0.8893 -14.5516,0 -13.1627,4.8852 -14.5516,4.9371 -1.3887,0.0519 -0.0012,-4.9356 -14.664,-4.9371l-0.0063 0c-0.5963,0 -0.5964,0.0032 -0.5964,0.8893 0,1.1715 0,2.343 0,3.5146 -1.6314,0 -2.4233,0 -4.0548,0 0,-1.1219 0,-1.1219 0.7785,-1.1219 0.7785,0 1.7262,0 1.7262,-0.3975 0,-4.4376 0,-4.4376 2.1528,-4.4376 14.6696,0 13.2751,4.2237 14.664,4.1718 1.3889,-0.0519 0,-4.1718 14.5516,-4.1718 2.1528,0 2.1528,0 2.1528,4.4376zm-31.3684 -3.7522c0.0044,-0.1507 0.0068,-0.3315 0,-0.6854l0 0.6854z"
   id="path980" />
   <g
   id="g982">
    <path
   fill="black"
   fill-rule="nonzero"
   d="M67.7642 24.4327l-2.1974 -17.8994 0.7 -0.0854 2.1974 17.8994 -0.7 0.0854zm1.326 -3.0482l-0.6985 5.2668 -1.9516 -4.9415 2.6501 -0.3253z"
   id="path984" />
   </g>
   <g
   id="g986">
    <g
   transform="matrix(0.999981 0.00707072 -0.00707076 0.999975 17.6519 6.42514)"
   id="g988">
     <text
   x="40.7113"
   y="30"
   fill="black"
   font-weight="normal"
   font-size="2.8221"
   font-family="DejaVu Sans"
   id="text990">n</text>

    </g>
    <g
   transform="matrix(0.999981 0.00707072 -0.00707076 0.999975 17.0708 4.89614)"
   id="g992">
     <text
   x="42.5"
   y="30"
   fill="black"
   font-weight="normal"
   font-size="2.1165"
   font-family="DejaVu Sans"
   id="text994">+</text>

    </g>
   </g>
   <line
   fill="none"
   stroke="black"
   stroke-width="0.1764"
   x1="51.1954"
   y1="21.52"
   x2="50.3337"
   y2="27.6495"
   id="line996" />
   <g
   transform="matrix(0.999981 0.00707072 -0.00707076 0.999975 -14.3689 15.6566)"
   id="g998">
    <text
   x="37.1173"
   y="30"
   fill="black"
   font-weight="normal"
   font-size="2.8221"
   font-family="DejaVu Sans"
   id="text1000">n-Si</text>

   </g>
   <g
   id="g1002">
    <g
   transform="matrix(0.999981 0.00707072 -0.00707076 0.999975 21.1736 -4.76476)"
   id="g1004">
     <text
   x="40.7113"
   y="30"
   fill="black"
   font-weight="normal"
   font-size="2.8221"
   font-family="DejaVu Sans"
   id="text1006">n</text>

    </g>
    <g
   transform="matrix(0.999981 0.00707072 -0.00707076 0.999975 20.5925 -6.29376)"
   id="g1008">
     <text
   x="42.5"
   y="30"
   fill="black"
   font-weight="normal"
   font-size="2.1165"
   font-family="DejaVu Sans"
   id="text1010">+</text>

    </g>
   </g>
   <line
   fill="none"
   stroke="black"
   stroke-width="0.1764"
   x1="62.417"
   y1="25.7235"
   x2="63.2585"
   y2="27.6199"
   id="line1012" />
  </g>
 </g>
</svg>