<svg height="417.333" viewBox="0 0 620 417.333" width="620" xmlns="http://www.w3.org/2000/svg"><path d="m0 0h620v417.333h-620z" fill="#fff"/><g fill="none" stroke="#000"><path d="m386.11 212.336h-60.298" stroke-width="5"/><path d="m312.803 217.614c0-24.321 19.716-44.037 44.037-44.037 24.32 0 44.036 19.716 44.036 44.037 0 24.32-19.716 44.036-44.036 44.036-24.321 0-44.037-19.716-44.037-44.036z" stroke-width="3"/><path d="m329.428 200.261h51" stroke-width="3"/><path d="m356.84 200.261v-83.175" stroke-width="3"/><path d="m380.428 236.836h53.682" stroke-width="3"/><path d="m380.428 213.836v23" stroke-width="3"/><path d="m332.61 213.836v23" stroke-width="3"/><path d="m332.61 236.836h-53.75" stroke-width="3"/><path d="m120.904 391.049h313.206" stroke-width="3"/><path d="m221.427 391.049v-154.25" stroke-width="3"/><path d="m220.427 236.799h58.433" stroke-width="3"/></g><path d="m199.619 308.817h42.616v17h-42.616z" fill="#fff"/><path d="m200.119 307.628h42.616" fill="none" stroke="#000" stroke-width="12"/><path d="m200.119 328.799h42.616" fill="none" stroke="#000" stroke-width="12"/><path d="m434.11 289.19v-201.333" fill="none" stroke="#000" stroke-width="3"/><path d="m459.823 117.086h52" fill="none" stroke="#000" stroke-dasharray="9 6" stroke-width="3"/><path d="m156.539 117.086h73.059" fill="none" stroke="#000" stroke-dasharray="9 6" stroke-width="3"/><path d="m434.11 31.378v56.479" fill="none" stroke="#000" stroke-dasharray="9 6" stroke-width="3"/><path d="m434.11 285.685v69.026" fill="none" stroke="#000" stroke-dasharray="9 6" stroke-width="3"/><path d="m229.598 117.086h230.225" fill="none" stroke="#000" stroke-width="3"/><path d="m434.11 240.049c-1.795 0-3.25-1.455-3.25-3.25 0-1.794 1.455-3.25 3.25-3.25s3.25 1.456 3.25 3.25c0 1.795-1.455 3.25-3.25 3.25z"/><path d="m434.11 240.049c-1.795 0-3.25-1.455-3.25-3.25 0-1.794 1.455-3.25 3.25-3.25s3.25 1.456 3.25 3.25c0 1.795-1.455 3.25-3.25 3.25z" fill="none" stroke="#000" stroke-width="3"/><path d="m356.485 120.336c-1.795 0-3.25-1.455-3.25-3.25s1.455-3.25 3.25-3.25 3.25 1.455 3.25 3.25-1.455 3.25-3.25 3.25z"/><path d="m356.485 120.336c-1.795 0-3.25-1.455-3.25-3.25s1.455-3.25 3.25-3.25 3.25 1.455 3.25 3.25-1.455 3.25-3.25 3.25z" fill="none" stroke="#000" stroke-width="3"/><path d="m221.427 394.299c-1.795 0-3.25-1.455-3.25-3.25 0-1.794 1.455-3.25 3.25-3.25s3.25 1.456 3.25 3.25c0 1.795-1.455 3.25-3.25 3.25z"/><path d="m221.427 394.299c-1.795 0-3.25-1.455-3.25-3.25 0-1.794 1.455-3.25 3.25-3.25s3.25 1.456 3.25 3.25c0 1.795-1.455 3.25-3.25 3.25z" fill="none" stroke="#000" stroke-width="3"/><text transform="translate(234.195 94.836)"><tspan fill="#656565" font-family="Avenir-Medium" font-size="36" x="-78.156" y="11">Word line</tspan></text><text transform="translate(162.083 368.799)"><tspan fill="#656565" font-family="Avenir-Medium" font-size="36" x="-35.01" y="11">Gnd</tspan></text><text transform="matrix(0 -1 1 0 467.317 268.716)"><tspan fill="#656565" font-family="Avenir-Medium" font-size="36" x="-55.98" y="11">Bit line</tspan></text></svg>