<?xml version="1.0" encoding="UTF-8" standalone="no"?>
<!-- Created with Inkscape (http://www.inkscape.org/) -->

<svg
   width="210mm"
   height="297mm"
   viewBox="0 0 210 297"
   version="1.1"
   id="svg5"
   sodipodi:docname="tema3_absorcion_conjunto.svg"
   inkscape:version="1.2.2 (1:1.2.2+202212051550+b0a8486541)"
   xmlns:inkscape="http://www.inkscape.org/namespaces/inkscape"
   xmlns:sodipodi="http://sodipodi.sourceforge.net/DTD/sodipodi-0.dtd"
   xmlns="http://www.w3.org/2000/svg"
   xmlns:svg="http://www.w3.org/2000/svg">
  <sodipodi:namedview
     id="namedview7"
     pagecolor="#ffffff"
     bordercolor="#666666"
     borderopacity="1.0"
     inkscape:showpageshadow="2"
     inkscape:pageopacity="0.0"
     inkscape:pagecheckerboard="0"
     inkscape:deskcolor="#d1d1d1"
     inkscape:document-units="mm"
     showgrid="false"
     inkscape:zoom="1.539623"
     inkscape:cx="239.99382"
     inkscape:cy="558.25355"
     inkscape:window-width="1320"
     inkscape:window-height="704"
     inkscape:window-x="46"
     inkscape:window-y="27"
     inkscape:window-maximized="1"
     inkscape:current-layer="layer2" />
  <defs
     id="defs2">
    <rect
       x="99.809463"
       y="442.96384"
       width="112.8016"
       height="32.190609"
       id="rect2694" />
    <rect
       x="86.520105"
       y="449.11097"
       width="183.17419"
       height="24.843744"
       id="rect593" />
    <rect
       x="50.038962"
       y="476.50732"
       width="68.903523"
       height="49.929349"
       id="rect3316" />
    <rect
       x="144.08413"
       y="542.76757"
       width="83.606429"
       height="23.9383"
       id="rect3070" />
    <rect
       x="203.42809"
       y="604.17804"
       width="24.752625"
       height="22.377439"
       id="rect2908" />
    <rect
       x="160.11118"
       y="662.42916"
       width="42.020963"
       height="20.463597"
       id="rect2207" />
    <marker
       style="overflow:visible"
       id="Arrow1L"
       refX="0"
       refY="0"
       orient="auto-start-reverse"
       inkscape:stockid="Arrow1L"
       markerWidth="8.75"
       markerHeight="5"
       viewBox="0 0 8.75 5"
       inkscape:isstock="true"
       inkscape:collect="always"
       preserveAspectRatio="xMidYMid">
      <path
         style="fill:context-stroke;fill-rule:evenodd;stroke:none"
         d="M 0,0 5,-5 -12.5,0 5,5 Z"
         id="arrow1L"
         transform="scale(-0.5)" />
    </marker>
    <rect
       x="203.42809"
       y="604.17804"
       width="24.752625"
       height="22.377439"
       id="rect2908-9" />
    <rect
       x="203.42809"
       y="604.17804"
       width="24.752625"
       height="22.377439"
       id="rect2908-9-2" />
    <rect
       x="144.08414"
       y="542.76758"
       width="56.804401"
       height="23.938299"
       id="rect3070-4" />
    <rect
       x="144.08414"
       y="542.76758"
       width="56.804401"
       height="23.938299"
       id="rect3070-4-9" />
    <rect
       x="50.038962"
       y="476.50732"
       width="68.903523"
       height="49.929349"
       id="rect3399" />
    <rect
       x="50.038962"
       y="476.50732"
       width="68.903523"
       height="49.929349"
       id="rect3411" />
    <rect
       x="144.08414"
       y="542.76758"
       width="56.804401"
       height="23.938299"
       id="rect3070-4-9-0" />
    <clipPath
       id="clipPath941">
      <path
         d="M 0,3 H 5 V 8.109375 H 0 Z m 0,0"
         id="path6160" />
    </clipPath>
    <clipPath
       id="clipPath7577">
      <path
         d="M 18,3 H 31 V 8.109375 H 18 Z m 0,0"
         id="path3884" />
    </clipPath>
    <clipPath
       id="clipPath8319">
      <path
         d="M 0,1 H 6 V 5.535156 H 0 Z m 0,0"
         id="path7822" />
    </clipPath>
    <clipPath
       id="clipPath7405">
      <path
         d="m 8,0 h 6 V 5.535156 H 8 Z m 0,0"
         id="path3912" />
    </clipPath>
    <clipPath
       id="clipPath4829">
      <path
         d="m 17,1 h 6 v 4.535156 h -6 z m 0,0"
         id="path4945" />
    </clipPath>
    <clipPath
       id="clipPath3877">
      <path
         d="m 25,0 h 6 v 5.535156 h -6 z m 0,0"
         id="path7301" />
    </clipPath>
    <clipPath
       id="clipPath4847">
      <path
         d="m 33,1 h 6 v 4.535156 h -6 z m 0,0"
         id="path2818" />
    </clipPath>
    <clipPath
       id="clipPath6601">
      <path
         d="m 41,0 h 7 v 5.535156 h -7 z m 0,0"
         id="path3551" />
    </clipPath>
    <clipPath
       id="clipPath8041">
      <path
         d="m 50,1 h 5 v 4.535156 h -5 z m 0,0"
         id="path8695" />
    </clipPath>
    <clipPath
       id="clipPath2259">
      <path
         d="M 0,0 H 4 V 9.964844 H 0 Z m 0,0"
         id="path9679" />
    </clipPath>
    <clipPath
       id="clipPath560">
      <path
         d="m 26,0 h 4 v 9.964844 h -4 z m 0,0"
         id="path3415" />
    </clipPath>
    <clipPath
       id="clipPath1391">
      <path
         d="m 42,0 h 3 v 9.964844 h -3 z m 0,0"
         id="path4172" />
    </clipPath>
    <clipPath
       id="clipPath3290">
      <path
         d="m 67,0 h 3 v 9.964844 h -3 z m 0,0"
         id="path969" />
    </clipPath>
    <clipPath
       id="clipPath1050">
      <path
         d="M 0,0 H 4 V 9.964844 H 0 Z m 0,0"
         id="path5260" />
    </clipPath>
    <clipPath
       id="clipPath6442">
      <path
         d="m 26,0 h 4 v 9.964844 h -4 z m 0,0"
         id="path978" />
    </clipPath>
    <clipPath
       id="clipPath6432">
      <path
         d="m 42,0 h 3 v 9.964844 h -3 z m 0,0"
         id="path5840" />
    </clipPath>
    <clipPath
       id="clipPath4501">
      <path
         d="m 67,0 h 3 v 9.964844 h -3 z m 0,0"
         id="path7039" />
    </clipPath>
    <clipPath
       id="clipPath4507">
      <path
         d="M 0,0 H 4 V 9.964844 H 0 Z m 0,0"
         id="path4223" />
    </clipPath>
    <clipPath
       id="clipPath6802">
      <path
         d="m 26,0 h 4 v 9.964844 h -4 z m 0,0"
         id="path2348" />
    </clipPath>
    <clipPath
       id="clipPath3246">
      <path
         d="m 42,0 h 3 v 9.964844 h -3 z m 0,0"
         id="path2087" />
    </clipPath>
    <clipPath
       id="clipPath5672">
      <path
         d="m 67,0 h 3 v 9.964844 h -3 z m 0,0"
         id="path6066" />
    </clipPath>
  </defs>
  <g
     inkscape:label="Geruza 1"
     inkscape:groupmode="layer"
     id="layer1" />
  <g
     inkscape:groupmode="layer"
     id="layer2"
     inkscape:label="Geruza 2">
    <text
       xml:space="preserve"
       transform="scale(0.26458333)"
       id="text591"
       style="font-style:normal;font-weight:normal;font-size:16px;line-height:1.25;font-family:sans-serif;letter-spacing:0px;word-spacing:0px;white-space:pre;shape-inside:url(#rect593);display:inline;fill:#000000;fill-opacity:1;stroke:none"><tspan
         x="86.519531"
         y="463.26758"
         id="tspan2440">
</tspan></text>
    <g
       id="g3073"
       inkscape:export-filename="tema3_absorcion_conjunto.png"
       inkscape:export-xdpi="96"
       inkscape:export-ydpi="96">
      <g
         id="g1886"
         transform="translate(-0.09617233,2.4771376)">
        <circle
           style="opacity:1;vector-effect:none;fill:#362aff;fill-opacity:1;fill-rule:evenodd;stroke:#000000;stroke-width:0.190809;stroke-linecap:butt;stroke-linejoin:miter;stroke-miterlimit:4;stroke-dasharray:none;stroke-dashoffset:0;stroke-opacity:0.971698"
           id="circle1853"
           cx="16.830719"
           cy="164.79628"
           r="10.65006" />
        <circle
           style="opacity:1;vector-effect:none;fill:#362aff;fill-opacity:1;fill-rule:evenodd;stroke:#000000;stroke-width:0.190809;stroke-linecap:butt;stroke-linejoin:miter;stroke-miterlimit:4;stroke-dasharray:none;stroke-dashoffset:0;stroke-opacity:0.971698"
           id="path790"
           cx="16.830719"
           cy="164.79628"
           r="10.65006" />
        <circle
           style="opacity:1;vector-effect:none;fill:#d35f5f;fill-opacity:0.998848;fill-rule:evenodd;stroke:#000000;stroke-width:0.0910521;stroke-linecap:butt;stroke-linejoin:miter;stroke-miterlimit:4;stroke-dasharray:none;stroke-dashoffset:0;stroke-opacity:0.971698"
           id="circle848"
           cx="27.229561"
           cy="168.28027"
           r="5.0820937" />
        <circle
           style="opacity:1;vector-effect:none;fill:#ff7f2a;fill-opacity:1;fill-rule:evenodd;stroke:#000000;stroke-width:0.0910521;stroke-linecap:butt;stroke-linejoin:miter;stroke-miterlimit:4;stroke-dasharray:none;stroke-dashoffset:0;stroke-opacity:0.971698"
           id="circle846"
           cx="20.938065"
           cy="154.86041"
           r="5.0820937" />
      </g>
      <g
         id="g1880"
         transform="translate(-0.09617233,3.6990845)">
        <path
           id="path1847"
           style="opacity:1;vector-effect:none;fill:#d35f5f;fill-opacity:1;fill-rule:evenodd;stroke:#000000;stroke-width:0.190809;stroke-linecap:butt;stroke-linejoin:miter;stroke-miterlimit:4;stroke-dasharray:none;stroke-dashoffset:0;stroke-opacity:0.971698"
           d="m 53.109357,164.05218 a 5.0820935,5.0820935 0 0 0 -0.11646,-0.0104 5.0820935,5.0820935 0 0 0 -0.130577,-0.009 5.0820935,5.0820935 0 0 0 -0.13085,-0.005 5.0820935,5.0820935 0 0 0 -0.13085,-0.002 5.0820935,5.0820935 0 0 0 -0.379757,0.0141 5.0820935,5.0820935 0 0 0 -0.377627,0.0426 5.0820935,5.0820935 0 0 0 -0.37337,0.0706 5.0820935,5.0820935 0 0 0 -0.367227,0.0983 5.0820935,5.0820935 0 0 0 -0.358707,0.12553 5.0820935,5.0820935 0 0 0 -0.34831,0.1519 5.0820935,5.0820935 0 0 0 -0.336057,0.17775 5.0820935,5.0820935 0 0 0 -0.32166,0.20201 5.0820935,5.0820935 0 0 0 -0.305947,0.22572 5.0820935,5.0820935 0 0 0 -0.288087,0.24785 5.0820935,5.0820935 0 0 0 -0.26863,0.2689 5.0820935,5.0820935 0 0 0 -0.247837,0.28808 5.0820935,5.0820935 0 0 0 -0.22573,0.30567 5.0820935,5.0820935 0 0 0 -0.20227,0.32193 5.0820935,5.0820935 0 0 0 -0.177487,0.33579 5.0820935,5.0820935 0 0 0 -0.15217,0.34858 5.0820935,5.0820935 0 0 0 -0.12552,0.35871 5.0820935,5.0820935 0 0 0 -0.0983,0.36697 5.0820935,5.0820935 0 0 0 -0.0706,0.37336 5.0820935,5.0820935 0 0 0 -0.0426,0.37763 5.0820935,5.0820935 0 0 0 -0.0141,0.38003 5.0820935,5.0820935 0 0 0 0.0141,0.37976 5.0820935,5.0820935 0 0 0 0.0426,0.37763 5.0820935,5.0820935 0 0 0 0.0706,0.37336 5.0820935,5.0820935 0 0 0 0.0983,0.36697 5.0820935,5.0820935 0 0 0 0.12552,0.35897 5.0820935,5.0820935 0 0 0 0.15217,0.34832 5.0820935,5.0820935 0 0 0 0.177487,0.33579 5.0820935,5.0820935 0 0 0 0.20227,0.32193 5.0820935,5.0820935 0 0 0 0.22573,0.30567 5.0820935,5.0820935 0 0 0 0.247837,0.28809 5.0820935,5.0820935 0 0 0 0.26863,0.26889 5.0820935,5.0820935 0 0 0 0.163367,0.14072 10.65006,10.65006 0 0 0 3.828239,-8.17858 10.65006,10.65006 0 0 0 -0.0261,-0.74407 z" />
        <path
           id="path1849"
           style="opacity:1;vector-effect:none;fill:#ff7f2a;fill-opacity:1;fill-rule:evenodd;stroke:#000000;stroke-width:0.190809;stroke-linecap:butt;stroke-linejoin:miter;stroke-miterlimit:4;stroke-dasharray:none;stroke-dashoffset:0;stroke-opacity:0.971698"
           d="m 41.560653,154.1896 a 5.0820935,5.0820935 0 0 0 -0.0221,0.13965 5.0820935,5.0820935 0 0 0 -0.0277,0.53113 5.0820935,5.0820935 0 0 0 0.0277,0.53113 5.0820935,5.0820935 0 0 0 0.0834,0.52554 5.0820935,5.0820935 0 0 0 0.13752,0.5138 5.0820935,5.0820935 0 0 0 0.190807,0.49676 5.0820935,5.0820935 0 0 0 0.24145,0.47383 5.0820935,5.0820935 0 0 0 0.289677,0.44612 5.0820935,5.0820935 0 0 0 0.33473,0.41334 5.0820935,5.0820935 0 0 0 0.376027,0.3763 5.0820935,5.0820935 0 0 0 0.413607,0.33472 5.0820935,5.0820935 0 0 0 0.446117,0.28968 5.0820935,5.0820935 0 0 0 0.473837,0.24145 5.0820935,5.0820935 0 0 0 0.496757,0.19082 5.0820935,5.0820935 0 0 0 0.513807,0.13751 5.0820935,5.0820935 0 0 0 0.525267,0.0832 5.0820935,5.0820935 0 0 0 0.531397,0.028 5.0820935,5.0820935 0 0 0 0.531137,-0.028 5.0820935,5.0820935 0 0 0 0.525527,-0.0832 5.0820935,5.0820935 0 0 0 0.513817,-0.13751 5.0820935,5.0820935 0 0 0 0.49648,-0.19082 5.0820935,5.0820935 0 0 0 0.474107,-0.24145 5.0820935,5.0820935 0 0 0 0.446117,-0.28968 5.0820935,5.0820935 0 0 0 0.413337,-0.33472 5.0820935,5.0820935 0 0 0 0.376037,-0.3763 5.0820935,5.0820935 0 0 0 0.2625,-0.32379 10.65006,10.65006 0 0 0 -8.146595,-3.79095 10.65006,10.65006 0 0 0 -0.924754,0.0434 z" />
      </g>
      <circle
         style="vector-effect:none;fill:#362aff;fill-opacity:1;fill-rule:evenodd;stroke:#000000;stroke-width:0.190809;stroke-linecap:butt;stroke-linejoin:miter;stroke-miterlimit:4;stroke-dasharray:none;stroke-dashoffset:0;stroke-opacity:0.971698"
         id="circle1855"
         cx="70.180435"
         cy="167.27339"
         r="10.65006" />
      <g
         id="g1872"
         transform="translate(-19.146178,2.4771376)">
        <g
           id="g1866">
          <path
             id="path1857"
             style="opacity:1;vector-effect:none;fill:#d35f5f;fill-opacity:1;fill-rule:evenodd;stroke:#000000;stroke-width:0.190809;stroke-linecap:butt;stroke-linejoin:miter;stroke-miterlimit:4;stroke-dasharray:none;stroke-dashoffset:0;stroke-opacity:0.971698"
             d="m 127.01698,164.05218 a 5.0820935,5.0820935 0 0 0 -0.11646,-0.0104 5.0820935,5.0820935 0 0 0 -0.13059,-0.009 5.0820935,5.0820935 0 0 0 -0.13085,-0.005 5.0820935,5.0820935 0 0 0 -0.13085,-0.002 5.0820935,5.0820935 0 0 0 -0.37976,0.0141 5.0820935,5.0820935 0 0 0 -0.37762,0.0426 5.0820935,5.0820935 0 0 0 -0.37337,0.0706 5.0820935,5.0820935 0 0 0 -0.36724,0.0983 5.0820935,5.0820935 0 0 0 -0.35871,0.12553 5.0820935,5.0820935 0 0 0 -0.34831,0.1519 5.0820935,5.0820935 0 0 0 -0.33605,0.17775 5.0820935,5.0820935 0 0 0 -0.32167,0.20201 5.0820935,5.0820935 0 0 0 -0.30594,0.22572 5.0820935,5.0820935 0 0 0 -0.28808,0.24785 5.0820935,5.0820935 0 0 0 -0.26863,0.2689 5.0820935,5.0820935 0 0 0 -0.24785,0.28808 5.0820935,5.0820935 0 0 0 -0.22572,0.30568 5.0820935,5.0820935 0 0 0 -0.20227,0.32193 5.0820935,5.0820935 0 0 0 -0.17749,0.33578 5.0820935,5.0820935 0 0 0 -0.15217,0.34858 5.0820935,5.0820935 0 0 0 -0.12552,0.35871 5.0820935,5.0820935 0 0 0 -0.0983,0.36697 5.0820935,5.0820935 0 0 0 -0.0706,0.37336 5.0820935,5.0820935 0 0 0 -0.0426,0.37763 5.0820935,5.0820935 0 0 0 -0.0141,0.38003 5.0820935,5.0820935 0 0 0 0.0141,0.37976 5.0820935,5.0820935 0 0 0 0.0426,0.37763 5.0820935,5.0820935 0 0 0 0.0706,0.37336 5.0820935,5.0820935 0 0 0 0.0983,0.36697 5.0820935,5.0820935 0 0 0 0.12552,0.35897 5.0820935,5.0820935 0 0 0 0.15217,0.34832 5.0820935,5.0820935 0 0 0 0.17749,0.33579 5.0820935,5.0820935 0 0 0 0.20227,0.32193 5.0820935,5.0820935 0 0 0 0.22572,0.30567 5.0820935,5.0820935 0 0 0 0.24785,0.28809 5.0820935,5.0820935 0 0 0 0.26863,0.26889 5.0820935,5.0820935 0 0 0 0.16336,0.14072 10.65006,10.65006 0 0 0 3.82826,-8.17858 10.65006,10.65006 0 0 0 -0.0261,-0.74407 z" />
          <path
             id="path1859"
             style="opacity:1;vector-effect:none;fill:#362aff;fill-opacity:1;fill-rule:evenodd;stroke:#000000;stroke-width:0.190809;stroke-linecap:butt;stroke-linejoin:miter;stroke-miterlimit:4;stroke-dasharray:none;stroke-dashoffset:0;stroke-opacity:0.971698"
             d="m 115.46826,154.1896 a 10.65006,10.65006 0 0 0 -9.72509,10.60665 10.65006,10.65006 0 0 0 10.64984,10.65008 10.65006,10.65006 0 0 0 6.82183,-2.4715 5.0820935,5.0820935 0 0 1 -0.16336,-0.14072 5.0820935,5.0820935 0 0 1 -0.26863,-0.26889 5.0820935,5.0820935 0 0 1 -0.24785,-0.28809 5.0820935,5.0820935 0 0 1 -0.22572,-0.30567 5.0820935,5.0820935 0 0 1 -0.20227,-0.32193 5.0820935,5.0820935 0 0 1 -0.17749,-0.33579 5.0820935,5.0820935 0 0 1 -0.15217,-0.34832 5.0820935,5.0820935 0 0 1 -0.12552,-0.35897 5.0820935,5.0820935 0 0 1 -0.0983,-0.36697 5.0820935,5.0820935 0 0 1 -0.0706,-0.37336 5.0820935,5.0820935 0 0 1 -0.0426,-0.37763 5.0820935,5.0820935 0 0 1 -0.0141,-0.37976 5.0820935,5.0820935 0 0 1 0.0141,-0.38003 5.0820935,5.0820935 0 0 1 0.0426,-0.37763 5.0820935,5.0820935 0 0 1 0.0706,-0.37336 5.0820935,5.0820935 0 0 1 0.0983,-0.36697 5.0820935,5.0820935 0 0 1 0.12552,-0.35871 5.0820935,5.0820935 0 0 1 0.15217,-0.34858 5.0820935,5.0820935 0 0 1 0.17749,-0.33578 5.0820935,5.0820935 0 0 1 0.20227,-0.32193 5.0820935,5.0820935 0 0 1 0.22572,-0.30568 5.0820935,5.0820935 0 0 1 0.24785,-0.28808 5.0820935,5.0820935 0 0 1 0.26863,-0.2689 5.0820935,5.0820935 0 0 1 0.28808,-0.24785 5.0820935,5.0820935 0 0 1 0.30594,-0.22572 5.0820935,5.0820935 0 0 1 0.32167,-0.20201 5.0820935,5.0820935 0 0 1 0.33605,-0.17775 5.0820935,5.0820935 0 0 1 0.34831,-0.1519 5.0820935,5.0820935 0 0 1 0.35871,-0.12553 5.0820935,5.0820935 0 0 1 0.36724,-0.0983 5.0820935,5.0820935 0 0 1 0.37337,-0.0706 5.0820935,5.0820935 0 0 1 0.37762,-0.0426 5.0820935,5.0820935 0 0 1 0.37976,-0.0141 5.0820935,5.0820935 0 0 1 0.13085,0.002 5.0820935,5.0820935 0 0 1 0.13085,0.005 5.0820935,5.0820935 0 0 1 0.13059,0.009 5.0820935,5.0820935 0 0 1 0.11646,0.0104 10.65006,10.65006 0 0 0 -2.47737,-6.11507 5.0820935,5.0820935 0 0 1 -0.2625,0.32379 5.0820935,5.0820935 0 0 1 -0.37603,0.3763 5.0820935,5.0820935 0 0 1 -0.41334,0.33472 5.0820935,5.0820935 0 0 1 -0.44612,0.28968 5.0820935,5.0820935 0 0 1 -0.4741,0.24145 5.0820935,5.0820935 0 0 1 -0.49649,0.19082 5.0820935,5.0820935 0 0 1 -0.51381,0.13751 5.0820935,5.0820935 0 0 1 -0.52553,0.0832 5.0820935,5.0820935 0 0 1 -0.53114,0.028 5.0820935,5.0820935 0 0 1 -0.5314,-0.028 5.0820935,5.0820935 0 0 1 -0.52526,-0.0832 5.0820935,5.0820935 0 0 1 -0.51381,-0.13751 5.0820935,5.0820935 0 0 1 -0.49676,-0.19082 5.0820935,5.0820935 0 0 1 -0.47383,-0.24145 5.0820935,5.0820935 0 0 1 -0.44612,-0.28968 5.0820935,5.0820935 0 0 1 -0.41361,-0.33472 5.0820935,5.0820935 0 0 1 -0.37603,-0.3763 5.0820935,5.0820935 0 0 1 -0.33472,-0.41334 5.0820935,5.0820935 0 0 1 -0.28968,-0.44612 5.0820935,5.0820935 0 0 1 -0.24145,-0.47383 5.0820935,5.0820935 0 0 1 -0.19081,-0.49676 5.0820935,5.0820935 0 0 1 -0.13752,-0.5138 5.0820935,5.0820935 0 0 1 -0.0834,-0.52554 5.0820935,5.0820935 0 0 1 -0.0277,-0.53113 5.0820935,5.0820935 0 0 1 0.0277,-0.53113 5.0820935,5.0820935 0 0 1 0.0221,-0.13965 z" />
          <path
             id="path1861"
             style="opacity:1;vector-effect:none;fill:#ff7f2a;fill-opacity:1;fill-rule:evenodd;stroke:#000000;stroke-width:0.190809;stroke-linecap:butt;stroke-linejoin:miter;stroke-miterlimit:4;stroke-dasharray:none;stroke-dashoffset:0;stroke-opacity:0.971698"
             d="m 115.46826,154.1896 a 5.0820935,5.0820935 0 0 0 -0.0221,0.13965 5.0820935,5.0820935 0 0 0 -0.0277,0.53113 5.0820935,5.0820935 0 0 0 0.0277,0.53113 5.0820935,5.0820935 0 0 0 0.0834,0.52554 5.0820935,5.0820935 0 0 0 0.13752,0.5138 5.0820935,5.0820935 0 0 0 0.19081,0.49676 5.0820935,5.0820935 0 0 0 0.24145,0.47383 5.0820935,5.0820935 0 0 0 0.28968,0.44612 5.0820935,5.0820935 0 0 0 0.33472,0.41334 5.0820935,5.0820935 0 0 0 0.37603,0.3763 5.0820935,5.0820935 0 0 0 0.41361,0.33472 5.0820935,5.0820935 0 0 0 0.44612,0.28968 5.0820935,5.0820935 0 0 0 0.47383,0.24145 5.0820935,5.0820935 0 0 0 0.49676,0.19082 5.0820935,5.0820935 0 0 0 0.51381,0.13751 5.0820935,5.0820935 0 0 0 0.52526,0.0832 5.0820935,5.0820935 0 0 0 0.5314,0.028 5.0820935,5.0820935 0 0 0 0.53114,-0.028 5.0820935,5.0820935 0 0 0 0.52553,-0.0832 5.0820935,5.0820935 0 0 0 0.51381,-0.13751 5.0820935,5.0820935 0 0 0 0.49649,-0.19082 5.0820935,5.0820935 0 0 0 0.4741,-0.24145 5.0820935,5.0820935 0 0 0 0.44612,-0.28968 5.0820935,5.0820935 0 0 0 0.41334,-0.33472 5.0820935,5.0820935 0 0 0 0.37603,-0.3763 5.0820935,5.0820935 0 0 0 0.2625,-0.32379 10.65006,10.65006 0 0 0 -8.1466,-3.79095 10.65006,10.65006 0 0 0 -0.92475,0.0434 z" />
        </g>
      </g>
      <circle
         style="vector-effect:none;fill:#362aff;fill-opacity:1;fill-rule:evenodd;stroke:#000000;stroke-width:0.190809;stroke-linecap:butt;stroke-linejoin:miter;stroke-miterlimit:4;stroke-dasharray:none;stroke-dashoffset:0;stroke-opacity:0.971698"
         id="circle1874"
         cx="70.180435"
         cy="167.27339"
         r="10.65006" />
      <circle
         style="vector-effect:none;fill:#362aff;fill-opacity:1;fill-rule:evenodd;stroke:#000000;stroke-width:0.190809;stroke-linecap:butt;stroke-linejoin:miter;stroke-miterlimit:4;stroke-dasharray:none;stroke-dashoffset:0;stroke-opacity:0.971698"
         id="circle1876"
         cx="124.15546"
         cy="167.27339"
         r="10.65006" />
      <path
         style="fill:none;stroke:#000000;stroke-width:0.264583px;stroke-linecap:butt;stroke-linejoin:miter;stroke-opacity:1;marker-end:url(#Arrow1L)"
         d="m 32.328549,167.27339 c 6.556391,0 6.556391,0 6.556391,0"
         id="path1942" />
      <text
         xml:space="preserve"
         transform="matrix(0.26458333,0,0,0.26458333,-0.09617233,4.9995735)"
         id="text2906"
         style="font-style:normal;font-weight:normal;font-size:16px;line-height:1.25;font-family:sans-serif;letter-spacing:0px;word-spacing:0px;white-space:pre;shape-inside:url(#rect2908);display:inline;fill:#000000;fill-opacity:1;stroke:none"><tspan
           x="203.42773"
           y="618.33398"
           id="tspan2420">+</tspan></text>
      <text
         xml:space="preserve"
         transform="matrix(0.26458333,0,0,0.26458333,27.997378,4.9975066)"
         id="text2906-6"
         style="font-style:normal;font-weight:normal;font-size:16px;line-height:1.25;font-family:sans-serif;letter-spacing:0px;word-spacing:0px;white-space:pre;shape-inside:url(#rect2908-9);display:inline;fill:#000000;fill-opacity:1;stroke:none"><tspan
           x="203.42773"
           y="618.33398"
           id="tspan2422">=</tspan></text>
      <text
         xml:space="preserve"
         transform="matrix(0.26458333,0,0,0.26458333,55.493285,4.9975066)"
         id="text2906-6-5"
         style="font-style:normal;font-weight:normal;font-size:16px;line-height:1.25;font-family:sans-serif;letter-spacing:0px;word-spacing:0px;white-space:pre;shape-inside:url(#rect2908-9-2);display:inline;fill:#000000;fill-opacity:1;stroke:none"><tspan
           x="203.42773"
           y="618.33398"
           id="tspan2424">=</tspan></text>
      <text
         xml:space="preserve"
         transform="matrix(0.26458333,0,0,0.26458333,-3.9016345,3.8126519)"
         id="text3068"
         style="font-style:normal;font-weight:normal;font-size:16px;line-height:1.25;font-family:sans-serif;letter-spacing:0px;word-spacing:0px;white-space:pre;shape-inside:url(#rect3070);display:inline;fill:#000000;fill-opacity:1;stroke:none"><tspan
           x="144.08398"
           y="556.92383"
           id="tspan2426">x⋅u+x⋅v</tspan></text>
      <text
         xml:space="preserve"
         transform="matrix(0.26458333,0,0,0.26458333,31.281849,3.1696036)"
         id="text3068-4"
         style="font-style:normal;font-weight:normal;font-size:16px;line-height:1.25;font-family:sans-serif;letter-spacing:0px;word-spacing:0px;white-space:pre;shape-inside:url(#rect3070-4);display:inline;fill:#000000;fill-opacity:1;stroke:none"><tspan
           x="144.08398"
           y="556.92383"
           id="tspan2428">x</tspan></text>
      <text
         xml:space="preserve"
         transform="matrix(0.26458333,0,0,0.26458333,57.659402,3.1696036)"
         id="text3068-4-9"
         style="font-style:normal;font-weight:normal;font-size:16px;line-height:1.25;font-family:sans-serif;letter-spacing:0px;word-spacing:0px;white-space:pre;shape-inside:url(#rect3070-4-9);display:inline;fill:#000000;fill-opacity:1;stroke:none"><tspan
           x="144.08398"
           y="556.92383"
           id="tspan2430">x</tspan></text>
      <text
         xml:space="preserve"
         transform="matrix(0.26458333,0,0,0.26458333,-4.6671741,20.700836)"
         id="text3314"
         style="font-style:normal;font-weight:normal;font-size:16px;line-height:1.25;font-family:sans-serif;letter-spacing:0px;word-spacing:0px;white-space:pre;shape-inside:url(#rect3316);display:inline;fill:#362aff;fill-opacity:1;stroke:none"><tspan
           x="50.039062"
           y="490.66406"
           id="tspan2432">x</tspan></text>
      <text
         xml:space="preserve"
         transform="matrix(0.26458333,0,0,0.26458333,1.4558271,20.700836)"
         id="text3397"
         style="font-style:normal;font-weight:normal;font-size:16px;line-height:1.25;font-family:sans-serif;letter-spacing:0px;word-spacing:0px;white-space:pre;shape-inside:url(#rect3399);display:inline;fill:#ff7f2a;fill-opacity:1;stroke:none"><tspan
           x="50.039062"
           y="490.66406"
           id="tspan2434">u</tspan></text>
      <text
         xml:space="preserve"
         transform="matrix(0.26458333,0,0,0.26458333,7.9129533,20.700836)"
         id="text3409"
         style="font-style:normal;font-weight:normal;font-size:16px;line-height:1.25;font-family:sans-serif;letter-spacing:0px;word-spacing:0px;white-space:pre;shape-inside:url(#rect3411);display:inline;fill:#d35f5f;fill-opacity:1;stroke:none"><tspan
           x="50.039062"
           y="490.66406"
           id="tspan2436">v</tspan></text>
      <text
         xml:space="preserve"
         transform="matrix(0.26458333,0,0,0.26458333,82.722183,3.1696036)"
         id="text3068-4-9-5"
         style="font-style:normal;font-weight:normal;font-size:16px;line-height:1.25;font-family:sans-serif;letter-spacing:0px;word-spacing:0px;white-space:pre;shape-inside:url(#rect3070-4-9-0);display:inline;fill:#000000;fill-opacity:1;stroke:none"><tspan
           x="144.08398"
           y="556.92383"
           id="tspan2438">x</tspan></text>
      <path
         style="fill:none;fill-opacity:1;fill-rule:evenodd;stroke:#000000;stroke-width:0.191;stroke-linecap:butt;stroke-linejoin:miter;stroke-miterlimit:4;stroke-dasharray:0.573, 0.573;stroke-dashoffset:0;stroke-opacity:0.971698"
         id="circle3536"
         sodipodi:type="arc"
         sodipodi:cx="42.453979"
         sodipodi:cy="168.29808"
         sodipodi:rx="10.65006"
         sodipodi:ry="10.65006"
         sodipodi:start="4.312719"
         sodipodi:end="1.3089969"
         sodipodi:arc-type="arc"
         d="m 38.309888,158.48736 a 10.65006,10.65006 0 0 1 10.95183,1.62058 10.65006,10.65006 0 0 1 3.5952,10.47107 10.65006,10.65006 0 0 1 -7.6465,8.00624"
         sodipodi:open="true" />
      <g
         inkscape:label=""
         transform="translate(54.503258,131.35503)"
         id="g970">
        <g
           id="g1209"
           transform="matrix(0.352778,0,0,0.352778,-0.159852,0.0458611)">
          <g
             inkscape:label=""
             transform="matrix(2.83464,0,0,2.83464,19.729,55.1042)"
             id="g1207">
            <g
               id="g1575"
               transform="matrix(0.352778,0,0,0.352778,-0.104731,0.153017)">
              <g
                 inkscape:label=""
                 transform="matrix(2.83465,0,0,2.83465,-87.564599,-21.693704)"
                 id="g2090">
                <g
                   id="g2088"
                   transform="matrix(0.352778,0,0,0.352778,-0.347266,0.00436558)">
                  <g
                     clip-path="url(#clipPath1050)"
                     clip-rule="nonzero"
                     id="g2020">
                    <g
                       style="fill:#000000;fill-opacity:1"
                       id="g2018">
                      <g
                         id="g2016"
                         transform="translate(0,7.4720001)">
                        <path
                           style="stroke:none"
                           d="m 3.296875,2.390625 c 0,-0.03125 0,-0.046875 -0.171875,-0.21875 C 1.890625,0.921875 1.5625,-0.96875 1.5625,-2.5 c 0,-1.734375 0.375,-3.46875 1.609375,-4.703125 0.125,-0.125 0.125,-0.140625 0.125,-0.171875 0,-0.078125 -0.03125,-0.109375 -0.09375,-0.109375 -0.109375,0 -1,0.6875 -1.59375,1.953125 -0.5,1.09375 -0.625,2.203125 -0.625,3.03125 0,0.78125 0.109375,1.984375 0.65625,3.125 C 2.25,1.84375 3.09375,2.5 3.203125,2.5 c 0.0625,0 0.09375,-0.03125 0.09375,-0.109375 z m 0,0"
                           id="path2014" />
                      </g>
                    </g>
                  </g>
                  <g
                     style="fill:#000000;fill-opacity:1"
                     id="g2026">
                    <g
                       id="g2024"
                       transform="translate(3.8740001,7.4720001)">
                      <path
                         style="stroke:none"
                         d="M 3.328125,-3.015625 C 3.390625,-3.265625 3.625,-4.1875 4.3125,-4.1875 c 0.046875,0 0.296875,0 0.5,0.125 C 4.53125,-4 4.34375,-3.765625 4.34375,-3.515625 c 0,0.15625 0.109375,0.34375 0.375,0.34375 0.21875,0 0.53125,-0.171875 0.53125,-0.578125 0,-0.515625 -0.578125,-0.65625 -0.921875,-0.65625 -0.578125,0 -0.921875,0.53125 -1.046875,0.75 -0.25,-0.65625 -0.78125,-0.75 -1.078125,-0.75 -1.03125,0 -1.609375,1.28125 -1.609375,1.53125 0,0.109375 0.109375,0.109375 0.125,0.109375 0.078125,0 0.109375,-0.03125 0.125,-0.109375 0.34375,-1.0625 1,-1.3125 1.34375,-1.3125 0.1875,0 0.53125,0.09375 0.53125,0.671875 0,0.3125 -0.171875,0.96875 -0.53125,2.375 -0.15625,0.609375 -0.515625,1.03125 -0.953125,1.03125 -0.0625,0 -0.28125,0 -0.5,-0.125 0.25,-0.0625 0.46875,-0.265625 0.46875,-0.546875 0,-0.265625 -0.21875,-0.34375 -0.359375,-0.34375 -0.3125,0 -0.546875,0.25 -0.546875,0.578125 0,0.453125 0.484375,0.65625 0.921875,0.65625 0.671875,0 1.03125,-0.703125 1.046875,-0.75 0.125,0.359375 0.484375,0.75 1.078125,0.75 1.03125,0 1.59375,-1.28125 1.59375,-1.53125 0,-0.109375 -0.078125,-0.109375 -0.109375,-0.109375 -0.09375,0 -0.109375,0.046875 -0.140625,0.109375 -0.328125,1.078125 -1,1.3125 -1.3125,1.3125 -0.390625,0 -0.546875,-0.3125 -0.546875,-0.65625 0,-0.21875 0.046875,-0.4375 0.15625,-0.875 z m 0,0"
                         id="path2022" />
                    </g>
                  </g>
                  <g
                     style="fill:#000000;fill-opacity:1"
                     id="g2032">
                    <g
                       id="g2030"
                       transform="translate(11.782,7.4720001)">
                      <path
                         style="stroke:none"
                         d="m 6.09375,-3.78125 c 0,-1.515625 -1.53125,-2.1875 -2.78125,-2.1875 -1.28125,0 -2.765625,0.703125 -2.765625,2.171875 v 3.65625 c 0,0.1875 0,0.359375 0.203125,0.359375 0.203125,0 0.203125,-0.171875 0.203125,-0.359375 V -3.75 c 0,-1.5 1.625,-1.8125 2.359375,-1.8125 0.453125,0 1.078125,0.09375 1.609375,0.421875 C 5.6875,-4.640625 5.6875,-4 5.6875,-3.734375 v 3.59375 c 0,0.1875 0,0.359375 0.203125,0.359375 0.203125,0 0.203125,-0.171875 0.203125,-0.359375 z m 0,0"
                         id="path2028" />
                    </g>
                  </g>
                  <g
                     style="fill:#000000;fill-opacity:1"
                     id="g2038">
                    <g
                       id="g2036"
                       transform="translate(20.638,7.4720001)">
                      <path
                         style="stroke:none"
                         d="M 3.484375,-0.5625 C 3.59375,-0.15625 3.953125,0.109375 4.375,0.109375 4.71875,0.109375 4.953125,-0.125 5.109375,-0.4375 5.28125,-0.796875 5.40625,-1.40625 5.40625,-1.421875 c 0,-0.109375 -0.078125,-0.109375 -0.109375,-0.109375 -0.109375,0 -0.109375,0.046875 -0.140625,0.1875 -0.140625,0.5625 -0.328125,1.234375 -0.75,1.234375 -0.203125,0 -0.3125,-0.125 -0.3125,-0.453125 0,-0.21875 0.125,-0.6875 0.203125,-1.046875 L 4.578125,-2.6875 C 4.609375,-2.828125 4.703125,-3.203125 4.75,-3.359375 4.796875,-3.59375 4.890625,-3.96875 4.890625,-4.03125 c 0,-0.171875 -0.140625,-0.265625 -0.28125,-0.265625 -0.046875,0 -0.3125,0.015625 -0.390625,0.34375 -0.1875,0.734375 -0.625,2.484375 -0.75,3 -0.015625,0.046875 -0.40625,0.84375 -1.140625,0.84375 -0.515625,0 -0.609375,-0.453125 -0.609375,-0.8125 0,-0.5625 0.28125,-1.34375 0.53125,-2.03125 0.125,-0.3125 0.171875,-0.453125 0.171875,-0.640625 0,-0.4375 -0.3125,-0.8125 -0.8125,-0.8125 -0.953125,0 -1.3125,1.453125 -1.3125,1.53125 0,0.109375 0.09375,0.109375 0.109375,0.109375 0.109375,0 0.109375,-0.03125 0.15625,-0.1875 0.25,-0.859375 0.640625,-1.234375 1.015625,-1.234375 0.09375,0 0.25,0.015625 0.25,0.328125 0,0.234375 -0.109375,0.53125 -0.171875,0.671875 -0.375,1 -0.578125,1.609375 -0.578125,2.09375 0,0.953125 0.6875,1.203125 1.21875,1.203125 0.65625,0 1.015625,-0.453125 1.1875,-0.671875 z m 0,0"
                         id="path2034" />
                    </g>
                  </g>
                  <g
                     clip-path="url(#clipPath6442)"
                     clip-rule="nonzero"
                     id="g2046">
                    <g
                       style="fill:#000000;fill-opacity:1"
                       id="g2044">
                      <g
                         id="g2042"
                         transform="translate(26.341,7.4720001)">
                        <path
                           style="stroke:none"
                           d="m 2.875,-2.5 c 0,-0.765625 -0.109375,-1.96875 -0.65625,-3.109375 -0.59375,-1.21875 -1.453125,-1.875 -1.546875,-1.875 -0.0625,0 -0.109375,0.046875 -0.109375,0.109375 0,0.03125 0,0.046875 0.1875,0.234375 0.984375,0.984375 1.546875,2.5625 1.546875,4.640625 0,1.71875 -0.359375,3.46875 -1.59375,4.71875 C 0.5625,2.34375 0.5625,2.359375 0.5625,2.390625 0.5625,2.453125 0.609375,2.5 0.671875,2.5 0.765625,2.5 1.671875,1.8125 2.25,0.546875 2.765625,-0.546875 2.875,-1.65625 2.875,-2.5 Z m 0,0"
                           id="path2040" />
                      </g>
                    </g>
                  </g>
                  <g
                     style="fill:#000000;fill-opacity:1"
                     id="g2052">
                    <g
                       id="g2050"
                       transform="translate(32.429001,7.4720001)">
                      <path
                         style="stroke:none"
                         d="m 6.09375,-5.609375 c 0,-0.171875 0,-0.359375 -0.203125,-0.359375 -0.203125,0 -0.203125,0.1875 -0.203125,0.359375 V -2 c 0,1.5 -1.625,1.828125 -2.375,1.828125 -0.4375,0 -1.0625,-0.09375 -1.59375,-0.4375 C 0.953125,-1.09375 0.953125,-1.734375 0.953125,-2 v -3.609375 c 0,-0.171875 0,-0.359375 -0.203125,-0.359375 -0.203125,0 -0.203125,0.1875 -0.203125,0.359375 v 3.65625 c 0,1.515625 1.53125,2.171875 2.765625,2.171875 1.296875,0 2.78125,-0.703125 2.78125,-2.15625 z m 0,0"
                         id="path2048" />
                    </g>
                  </g>
                  <g
                     clip-path="url(#clipPath6432)"
                     clip-rule="nonzero"
                     id="g2060">
                    <g
                       style="fill:#000000;fill-opacity:1"
                       id="g2058">
                      <g
                         id="g2056"
                         transform="translate(41.285,7.4720001)">
                        <path
                           style="stroke:none"
                           d="m 3.296875,2.390625 c 0,-0.03125 0,-0.046875 -0.171875,-0.21875 C 1.890625,0.921875 1.5625,-0.96875 1.5625,-2.5 c 0,-1.734375 0.375,-3.46875 1.609375,-4.703125 0.125,-0.125 0.125,-0.140625 0.125,-0.171875 0,-0.078125 -0.03125,-0.109375 -0.09375,-0.109375 -0.109375,0 -1,0.6875 -1.59375,1.953125 -0.5,1.09375 -0.625,2.203125 -0.625,3.03125 0,0.78125 0.109375,1.984375 0.65625,3.125 C 2.25,1.84375 3.09375,2.5 3.203125,2.5 c 0.0625,0 0.09375,-0.03125 0.09375,-0.109375 z m 0,0"
                           id="path2054" />
                      </g>
                    </g>
                  </g>
                  <g
                     style="fill:#000000;fill-opacity:1"
                     id="g2066">
                    <g
                       id="g2064"
                       transform="translate(45.159,7.4720001)">
                      <path
                         style="stroke:none"
                         d="M 3.328125,-3.015625 C 3.390625,-3.265625 3.625,-4.1875 4.3125,-4.1875 c 0.046875,0 0.296875,0 0.5,0.125 C 4.53125,-4 4.34375,-3.765625 4.34375,-3.515625 c 0,0.15625 0.109375,0.34375 0.375,0.34375 0.21875,0 0.53125,-0.171875 0.53125,-0.578125 0,-0.515625 -0.578125,-0.65625 -0.921875,-0.65625 -0.578125,0 -0.921875,0.53125 -1.046875,0.75 -0.25,-0.65625 -0.78125,-0.75 -1.078125,-0.75 -1.03125,0 -1.609375,1.28125 -1.609375,1.53125 0,0.109375 0.109375,0.109375 0.125,0.109375 0.078125,0 0.109375,-0.03125 0.125,-0.109375 0.34375,-1.0625 1,-1.3125 1.34375,-1.3125 0.1875,0 0.53125,0.09375 0.53125,0.671875 0,0.3125 -0.171875,0.96875 -0.53125,2.375 -0.15625,0.609375 -0.515625,1.03125 -0.953125,1.03125 -0.0625,0 -0.28125,0 -0.5,-0.125 0.25,-0.0625 0.46875,-0.265625 0.46875,-0.546875 0,-0.265625 -0.21875,-0.34375 -0.359375,-0.34375 -0.3125,0 -0.546875,0.25 -0.546875,0.578125 0,0.453125 0.484375,0.65625 0.921875,0.65625 0.671875,0 1.03125,-0.703125 1.046875,-0.75 0.125,0.359375 0.484375,0.75 1.078125,0.75 1.03125,0 1.59375,-1.28125 1.59375,-1.53125 0,-0.109375 -0.078125,-0.109375 -0.109375,-0.109375 -0.09375,0 -0.109375,0.046875 -0.140625,0.109375 -0.328125,1.078125 -1,1.3125 -1.3125,1.3125 -0.390625,0 -0.546875,-0.3125 -0.546875,-0.65625 0,-0.21875 0.046875,-0.4375 0.15625,-0.875 z m 0,0"
                         id="path2062" />
                    </g>
                  </g>
                  <g
                     style="fill:#000000;fill-opacity:1"
                     id="g2072">
                    <g
                       id="g2070"
                       transform="translate(53.067001,7.4720001)">
                      <path
                         style="stroke:none"
                         d="m 6.09375,-3.78125 c 0,-1.515625 -1.53125,-2.1875 -2.78125,-2.1875 -1.28125,0 -2.765625,0.703125 -2.765625,2.171875 v 3.65625 c 0,0.1875 0,0.359375 0.203125,0.359375 0.203125,0 0.203125,-0.171875 0.203125,-0.359375 V -3.75 c 0,-1.5 1.625,-1.8125 2.359375,-1.8125 0.453125,0 1.078125,0.09375 1.609375,0.421875 C 5.6875,-4.640625 5.6875,-4 5.6875,-3.734375 v 3.59375 c 0,0.1875 0,0.359375 0.203125,0.359375 0.203125,0 0.203125,-0.171875 0.203125,-0.359375 z m 0,0"
                         id="path2068" />
                    </g>
                  </g>
                  <g
                     style="fill:#000000;fill-opacity:1"
                     id="g2078">
                    <g
                       id="g2076"
                       transform="translate(61.923,7.4720001)">
                      <path
                         style="stroke:none"
                         d="m 4.671875,-3.703125 c 0,-0.546875 -0.265625,-0.703125 -0.4375,-0.703125 -0.25,0 -0.5,0.265625 -0.5,0.484375 0,0.125 0.046875,0.1875 0.15625,0.296875 0.21875,0.203125 0.34375,0.453125 0.34375,0.8125 0,0.421875 -0.609375,2.703125 -1.765625,2.703125 -0.515625,0 -0.75,-0.34375 -0.75,-0.875 0,-0.546875 0.28125,-1.28125 0.578125,-2.109375 0.078125,-0.171875 0.125,-0.3125 0.125,-0.5 0,-0.4375 -0.3125,-0.8125 -0.8125,-0.8125 -0.9375,0 -1.3125,1.453125 -1.3125,1.53125 0,0.109375 0.09375,0.109375 0.109375,0.109375 0.109375,0 0.109375,-0.03125 0.15625,-0.1875 0.296875,-1 0.71875,-1.234375 1.015625,-1.234375 0.078125,0 0.25,0 0.25,0.3125 0,0.25 -0.109375,0.53125 -0.171875,0.703125 -0.4375,1.15625 -0.5625,1.609375 -0.5625,2.046875 0,1.078125 0.875,1.234375 1.328125,1.234375 1.671875,0 2.25,-3.296875 2.25,-3.8125 z m 0,0"
                         id="path2074" />
                    </g>
                  </g>
                  <g
                     clip-path="url(#clipPath4501)"
                     clip-rule="nonzero"
                     id="g2086">
                    <g
                       style="fill:#000000;fill-opacity:1"
                       id="g2084">
                      <g
                         id="g2082"
                         transform="translate(67.109001,7.4720001)">
                        <path
                           style="stroke:none"
                           d="m 2.875,-2.5 c 0,-0.765625 -0.109375,-1.96875 -0.65625,-3.109375 -0.59375,-1.21875 -1.453125,-1.875 -1.546875,-1.875 -0.0625,0 -0.109375,0.046875 -0.109375,0.109375 0,0.03125 0,0.046875 0.1875,0.234375 0.984375,0.984375 1.546875,2.5625 1.546875,4.640625 0,1.71875 -0.359375,3.46875 -1.59375,4.71875 C 0.5625,2.34375 0.5625,2.359375 0.5625,2.390625 0.5625,2.453125 0.609375,2.5 0.671875,2.5 0.765625,2.5 1.671875,1.8125 2.25,0.546875 2.765625,-0.546875 2.875,-1.65625 2.875,-2.5 Z m 0,0"
                           id="path2080" />
                      </g>
                    </g>
                  </g>
                </g>
              </g>
            </g>
          </g>
        </g>
      </g>
    </g>
  </g>
</svg>
